<svg width="495" height="536" fill="none" xmlns="http://www.w3.org/2000/svg"><path d="M113.616 83.212c-.318-2.645.886-4.352 3.465-4.656 2.579-.304 4.14 1.032 4.458 3.73l1.018 8.61c.304 2.646-.899 4.352-3.479 4.657-2.579.304-4.14-1.032-4.457-3.73l-1.005-8.611zm3.637 8.492c.146 1.164.688 1.587 1.548 1.494.859-.092 1.322-.648 1.15-1.812l-1.045-8.98c-.145-1.165-.727-1.588-1.547-1.482-.82.105-1.323.635-1.151 1.798l1.045 8.982zm10.185-14.166l2.434-.291-7.262 27.406-2.434.291 7.262-27.406zm.278 13.742c-.318-2.645.899-4.365 3.478-4.656 2.579-.29 4.14 1.032 4.458 3.717l1.005 8.611c.317 2.645-.886 4.352-3.479 4.656-2.592.304-4.14-1.032-4.457-3.73l-1.005-8.598zm3.65 8.479c.132 1.164.675 1.6 1.534 1.494.86-.105 1.323-.648 1.164-1.812l-1.058-8.98c-.132-1.151-.714-1.575-1.534-1.482-.82.093-1.323.648-1.151 1.799l1.045 8.98z" fill="#263238"/><path d="M142.794 109.56l-30.633 3.584a2.643 2.643 0 01-2.937-2.315l-3.677-31.585a3.974 3.974 0 011.124-3.228l12.778-12.579a3.873 3.873 0 014.748-.555l15.33 9.259a3.88 3.88 0 011.839 2.87l3.703 31.586a2.646 2.646 0 01-2.275 2.963v0z" stroke="#263238" stroke-linecap="round" stroke-linejoin="round"/><path d="M124.277 66.942a1.973 1.973 0 01-3.181 1.784 1.967 1.967 0 01-.044-3.053 1.972 1.972 0 011.055-.45 1.958 1.958 0 012.17 1.72v0zm-1.945-22.088s5.979 23.015 0 22.353m-1.521-4.629c1.164-6.402 7.024-17.195 7.024-17.195m-5.503 21.785a1.693 1.693 0 01-1.521-1.23m28.2-12.58a38.77 38.77 0 0111.904 16.468M87.096 73.78A38.796 38.796 0 01145.4 50.767m-46.228 62.006A38.596 38.596 0 0186.275 89.15m36.851 33.147a38.706 38.706 0 01-19.841-6.415m59.733-37.962a38.792 38.792 0 01-32.75 44.007" stroke="#263238" stroke-linecap="round" stroke-linejoin="round"/><path d="M26.464 206.982l48.7 9.442-5.672 29.256a2.194 2.194 0 01-2.57 1.735l-44.408-8.61a2.192 2.192 0 01-1.735-2.569l5.672-29.256.013.002z" stroke="#263238" stroke-width=".998" stroke-linecap="round" stroke-linejoin="round"/><path d="M76.858 217.092l-51.263-9.881 1.502-7.793a2.197 2.197 0 012.572-1.74l47.002 9.06a2.194 2.194 0 011.697 2.522l-1.503 7.793-.007.039z" stroke="#263238" stroke-linecap="round" stroke-linejoin="round"/><path d="M56.698 202.846l-6.974-1.345-7.991 41.458 6.974 1.344 7.991-41.457z" stroke="#263238" stroke-linecap="round" stroke-linejoin="round"/><path d="M53.208 202.174s12.103-8.835 17.698-6.163c5.595 2.671 2.83 10.118 0 9.576" stroke="#263238" stroke-linecap="round" stroke-linejoin="round"/><path d="M57.996 203.087s9.841-4.894 11.27-2.646c1.428 2.249-2.818 4.326-6.085 3.691m-9.642-2.567s5.105-9.259 4.444-12.248h3.4s1.11 3.518-2.858 9.536m-5.317 3.321s-7.936-12.698-14.14-12.288c-6.203.41-6.375 8.333-3.557 8.875" stroke="#263238" stroke-linecap="round" stroke-linejoin="round"/><path d="M48.42 201.249s-7.314-8.214-9.47-6.68c-2.156 1.534 1.018 5.053 4.285 5.674m9.894 1.243s-1.323-10.515.436-13.015l-3.174-1.323s-2.328 2.857-.873 9.92m39.707-9.761a49.484 49.484 0 0110.198 23.809" stroke="#263238" stroke-linecap="round" stroke-linejoin="round"/><path d="M6.345 195.243a49.54 49.54 0 0159.464-24.3 49.538 49.538 0 0119.646 12.118m-75.142 64.164a49.389 49.389 0 01-9.39-33.067m36.598 51.677a49.315 49.315 0 01-22.949-13.597m85.168-30.409a49.535 49.535 0 01-53.211 45.554M295.658 89.945l-4.154-2.117c.617-1.824.825-3.761.609-5.674 1.322.635 2.724 1.323 3.968 1.891-.066 1.706-.172 3.717-.423 5.9z" stroke="#263238" stroke-linecap="round" stroke-linejoin="round"/><path d="M301.702 86.77a14.978 14.978 0 004.18 1.402 37.702 37.702 0 01-3.399 23.927c-1.072 2.09-12.328-3.677-11.27-5.767a49.601 49.601 0 004.444-16.388c.252-2.182.397-4.193.463-5.9a213.234 213.234 0 015.582 2.726z" stroke="#263238" stroke-linecap="round" stroke-linejoin="round"/><path d="M315.127 60.54a14.737 14.737 0 017.262 17.8 14.738 14.738 0 01-16.52 9.832 14.967 14.967 0 01-4.18-1.402 213.234 213.234 0 00-5.582-2.725c-1.323-.622-2.645-1.257-3.968-1.892-3.254-1.494-6.402-2.87-8.029-3.399l14.233-27.777c2.962 2.17 13.451 7.857 16.784 9.564zM284.52 37.83a70.875 70.875 0 0013.796 13.122l-14.232 27.776a71.143 71.143 0 00-18.716-3.452l-5.516-.291 21.163-41.44 3.505 4.285z" stroke="#263238" stroke-linecap="round" stroke-linejoin="round"/><path d="M253.437 76.135l24.814-48.476a1.576 1.576 0 012.103-.675l1.825.94a1.573 1.573 0 01.688 2.102l-1.812 3.532-21.163 41.44-1.799 3.531a1.557 1.557 0 01-1.517.843 1.556 1.556 0 01-.586-.168l-1.839-.94a1.553 1.553 0 01-.89-1.53 1.57 1.57 0 01.176-.599v0zm.741-30.224l-9.563-4.893m20.766-10.45l-6.031-10.555m-11.058 43.954l-12.076 1.283m92.019-46.943a63.736 63.736 0 00-29.734-15.515m11.217 121.423a63.999 63.999 0 0037.359-44.322 63.992 63.992 0 00-13.762-56.309m-90.142 90.301a63.71 63.71 0 0041.638 15.396m-62.867-52.233a63.727 63.727 0 0015.224 30.924M284.811 1.31a63.993 63.993 0 00-63.991 63.992m-49.337 103.025c-5.37-4.802-10.938-2.646-13.782-1.019-.569-3.254-2.646-8.862-9.735-9.814-7.751-1.032-14.1 6.521-12.024 17.049 1.508 7.579 6.349 14.55 8.942 17.79.304.397.595.741.833 1.019h1.323c4.18-.172 12.592-1.005 19.311-4.788 9.299-5.291 10.952-15.026 5.132-20.237zm-30.157 29.959s-.357.648-.847 1.785" stroke="#263238" stroke-linecap="round" stroke-linejoin="round"/><path d="M139.13 203.761c-2.116 6.918-3.571 18.769 7.698 25.951 27.856 17.764 37.234-24.139 15.873-20.369-14.669 2.645.846 41.413 23.808 33.596" stroke="#263238" stroke-linecap="round" stroke-linejoin="round" stroke-dasharray="2.98 2.98"/><path d="M188.427 242.212a30.467 30.467 0 001.772-.873" stroke="#263238" stroke-linecap="round" stroke-linejoin="round"/><path d="M154.077 498.219s-15.727 10.701-22.063 9.987a2.947 2.947 0 01-1.865-.794c-4.127-4.259-7.447-11.746-7.447-11.746s1.971-2.724 8.042 4.511l3.849-3.532-7.936-8.015s4.484-3.558 12.103.979c-.265-.556-5.172-11.243-1.468-25.793l-18.518-17.869 16.428-14.312 1.322-1.111s1.032 1.018 2.646 2.645c1.613 1.627 3.849 3.585 6.269 5.714 5.794 5.093 12.804 10.582 15.873 10.582 5.528-.185-7.235 48.754-7.235 48.754z" fill="#fff"/><path opacity=".4" d="M141.921 491.209s-8.968 9.259-9.907 16.996a2.95 2.95 0 01-1.865-.793c-4.127-4.259-7.447-11.746-7.447-11.746s1.971-2.724 8.042 4.511l3.849-3.532-7.936-8.015s4.484-3.558 12.103.978c-.265-.555-5.172-11.243-1.468-25.792l-18.518-17.87 16.428-14.311 3.968 1.494a250.06 250.06 0 006.269 5.714c-3.478 5.093-10.925 15.635-10.925 15.635l6.441 8.729s-3.968 22.01.966 28.002z" fill="#FF8562"/><path d="M154.077 498.219s-15.727 10.701-22.063 9.987a2.947 2.947 0 01-1.865-.794c-4.127-4.259-7.447-11.746-7.447-11.746s1.971-2.724 8.042 4.511l3.849-3.532-7.936-8.015s4.484-3.558 12.103.979c-.265-.556-5.172-11.243-1.468-25.793l-18.518-17.869 16.428-14.312 1.322-1.111s1.032 1.018 2.646 2.645c1.613 1.627 3.849 3.585 6.269 5.714 5.794 5.093 12.804 10.582 15.873 10.582 5.528-.185-7.235 48.754-7.235 48.754zm-19.431-1.573a19.591 19.591 0 014.14-7.024" stroke="#263238" stroke-linecap="round" stroke-linejoin="round"/><path d="M428.006 373.649a44.81 44.81 0 01-8.902 9.602c-28.914 23.941-95.577 35.713-95.577 35.713s-2.236 3.346-5.675 8.108c-6.163 8.558-16.256 21.705-24.483 28.292-3.478 2.791-6.613 4.405-9.007 3.969l12.512 46.201 5.595 20.052s-57.484 25.131-155.8-3.598c0 0-1.124-12.83-.291-15.568 0-.132.08-.264.133-.41a18.186 18.186 0 013.862-4.841s-.556-8.253-.833-16.652a112.397 112.397 0 01.198-16.071c.701-4.233 3.796-14.47 5.357-19.497l.913-2.923-4.894-45.818-1.402-13.227-.08-.687v-.331l-.767-7.077-25.29 7.725s1.323 2.963 3.148 7.116c3.32 7.606 8.201 19.179 9.259 23.809.08.377.186.748.318 1.111 2.341 6.679 11.256 12.75 11.256 12.75l-23.954 27.988-7.077-4.946a22.512 22.512 0 01-2.857 1.798c-4.656 2.527-14.417 6.244-25.13.569a37.385 37.385 0 01-11.826-10.476c-18.782-24.39-26.956-44.349-24.298-67.721 2.659-23.372 107.839-95.499 128.712-94.745l31.043 6.852c.675-.556 2.487-1.984 3.889-1.918 5.648.291 5.793 6.851 5.793 6.851l69.574 11.296s7.208-3.611 8.465-3.558a5.464 5.464 0 014.405 2.791s18.015-10.793 23.808-8.28c19.073 8.227 113.99 54.349 99.903 75.751z" fill="#FF8562"/><path opacity=".2" d="M186.297 487.955a52.006 52.006 0 01-30.117 16.336 214.951 214.951 0 00-9.696 1.746 18.158 18.158 0 013.863-4.841s-.556-8.254-.834-16.653c8.161 5.383 22.393 11.6 36.784 3.412zm-31.228-38.94l.912-2.923-4.894-45.818c7.315 10.489 33.398 46.215 51.374 50.077 18.795 4.021-31.454 11.15-47.392-1.336zM296.848 505.6c-19.642-2.235-47.405-7.182-50.183-17.46-4.325-16.057 16.719-25.686 46.704-32.71-3.478 2.791-6.613 4.405-9.007 3.968l12.486 46.202zm122.243-122.335c-28.914 23.94-95.578 35.712-95.578 35.712s-2.235 3.347-5.674 8.108a111.185 111.185 0 01-4.246-73.872s5.132 27.776 26.454 34.39c0 0-16.322-12.156-10.581-41.414 0 0 5.568 34.39 41.797 43.94 17.578 4.722 34.786-.41 47.828-6.864zm-269.485 3.121l-.794-7.407-25.29 7.724s1.323 2.963 3.148 7.116c-9.669-.992-28.014 7.936-31.215-1.799-3.862-11.798 19.84-7.737 19.84-7.737l22.407-13.029c-4.233-18.121 6.547-31.744 6.547-31.744l2.05 12.644c.979-24.033 10.383-37.18 10.383-37.18-7.777 19.007-7.566 65.843-7.076 71.412zm-2.064 45.051l-23.954 27.988-7.076-4.947a22.52 22.52 0 01-2.857 1.799c-4.656 2.526-14.417 6.243-25.131.569 7.764-10.741 23.808-26.547 42.868-32.644a190.95 190.95 0 00-12.618 21.745l4.92 4.841s12.275-13.994 23.848-19.351zm58.159-123.275c0 2.474-1.561 30.422 18.809 37.869 20.369 7.447 38.437-5.146 38.437-5.146s-31.228 30.131-50.262 14.021-6.984-46.744-6.984-46.744z" fill="#000"/><path d="M146.63 522.041s-1.098-12.831-.278-15.555c.688-2.302 3.968-5.291 3.968-5.291s-1.733-26.004-.622-32.71c.953-5.754 6.27-22.486 6.27-22.486l-7.169-67.113-25.29 7.737s10.767 23.809 12.433 30.872c1.667 7.063 11.587 13.849 11.587 13.849l-23.954 27.975-7.076-4.934S95.6 470.733 76.726 446.29c-18.875-24.443-26.983-44.35-24.338-67.788 2.645-23.438 107.865-95.485 128.738-94.744l31.043 6.864c.661-.555 2.487-1.984 3.876-1.918 5.648.291 5.793 6.852 5.793 6.852l69.574 11.296s7.222-3.611 8.478-3.558a5.455 5.455 0 014.391 2.791s18.015-10.78 23.809-8.28c19.047 8.227 113.95 54.349 99.876 75.75-19.986 30.422-104.492 45.382-104.492 45.382s-28.108 42.326-39.178 40.368l18.107 66.254" stroke="#263238" stroke-linecap="round" stroke-linejoin="round"/><path d="M354.478 378.291c31.929 21.084 57.669 17.195 77.813-9.947 0 0 16.772-21.626 15.582-44.971-1.191-23.346-6.759-99.4-79.441-79.957-11.97 3.201-39.892 40.593-42.234 50.871-1.084 4.695-12.287 28.596-23.173 53.344" fill="#FF8562"/><path d="M354.478 378.291c31.929 21.084 57.669 17.195 77.813-9.947 0 0 16.772-21.626 15.582-44.971-1.191-23.346-6.759-99.4-79.441-79.957-11.97 3.201-39.892 40.593-42.234 50.871-1.084 4.695-12.287 28.596-23.173 53.344" stroke="#263238" stroke-linecap="round" stroke-linejoin="round"/><path d="M268.093 154.849s20.343-3.082 34.469 9.563c17.87 15.991 37.935 59.111 9.365 130.562 0 0-42.208-28.014-114.241-9.258 0 0 6.203-16.759-4.683-69.521-4.92-23.875 7.46-78.872 75.09-61.346z" fill="#263238"/><path d="M237.261 334.153c30.104 4.881 62.087-28.451 62.087-28.451s-16.362-2.01-17.83-9.695c-4.696-24.245 14.192-54.231 14.192-54.231s-73.092 2.024-60.314 18.518a41.399 41.399 0 015.78 9.907c4.431 10.886 1.322 19.1-.992 21.163-.168.137-.35.257-.543.357-4.417 2.011-22.578-.992-22.578-.992s-7.275 38.967 20.198 43.424z" fill="#fff" stroke="#263238" stroke-linecap="round" stroke-linejoin="round"/><path d="M288.991 314.934s-13.888 5.555-34.218 3.902l-9.153 4.484m-9.126-.701l-.662-6.005s-14.999-4.696-19.642-13.611" stroke="#263238" stroke-linecap="round" stroke-linejoin="round"/><path d="M240.184 291.403c22.38 5.847 32.895-22.856 32.895-22.856s-17.909-5.291-31.903 1.746c4.431 10.886 1.362 19.1-.992 21.11z" fill="#263238"/><path d="M297.007 226.71c5.436-30.567-.609-67.246-47.141-64.203-33.239 2.169-32.962 38.609-30.766 49.495 3.704 18.292-1.6 25.488 4.1 40.858 4.101 11.044 13.611 23.398 24.814 28.027 6.891 2.844 34.787-16.732 36.85-25.686" fill="#fff"/><path d="M297.007 226.71c5.436-30.567-.609-67.246-47.141-64.203-33.239 2.169-32.962 38.609-30.766 49.495 3.704 18.292-1.6 25.488 4.1 40.858 4.101 11.044 13.611 23.398 24.814 28.027 6.891 2.844 34.787-16.732 36.85-25.686" stroke="#263238" stroke-linecap="round" stroke-linejoin="round"/><path d="M238.544 217.703c-.278 3.439-.688 11.904-7.936 18.2-4.709 4.061 6.084 8.214 6.084 8.214m-5.873-38.543s-10.264-5-17.195 3.254m34.417-3.929a34.7 34.7 0 0121.943.873" stroke="#263238" stroke-linecap="round" stroke-linejoin="round"/><path d="M258.701 219.356c.318 2.95 2.302 5.158 4.432 4.92 2.129-.238 3.597-2.804 3.28-5.753-.318-2.95-2.302-5.146-4.431-4.921-2.13.225-3.598 2.804-3.281 5.754z" fill="#263238"/><path d="M237.194 253.838a57.736 57.736 0 0022.949-8.385s.966 12.83-9.775 15.488c-8.24 2.051-11.428-7.354-11.428-7.354" stroke="#263238" stroke-linecap="round" stroke-linejoin="round"/><path d="M267.378 174.147s-2.936 36.229 29.033 49.389l14.987-34.826-22.671-25.131-34.139-9.868c-51.016 3.188-72.973 34.88-44.654 119.334 0 .039-7.923-100.538 57.444-98.898z" fill="#263238"/><path d="M289.401 225.07c-.45-4.074 9.854-14.444 13.333-7.791 5.939 11.349 1.614 21.164-4.524 25.132-2.751 1.732-6.243 4.986-8.69 1.918" fill="#fff"/><path d="M289.401 225.07c-.45-4.074 9.854-14.444 13.333-7.791 5.939 11.349 1.614 21.164-4.524 25.132-2.751 1.732-6.243 4.986-8.69 1.918" stroke="#263238" stroke-linecap="round" stroke-linejoin="round"/><path d="M227.565 220.771c.331 2.95 2.315 5.159 4.444 4.921 2.13-.238 3.598-2.804 3.281-5.754-.318-2.95-2.315-5.159-4.445-4.92-2.129.238-3.61 2.738-3.28 5.753z" fill="#263238"/><path opacity=".2" d="M205.41 214.767a77.272 77.272 0 00-.793 7.407m57.471-54.614c-25.846-.674-49.866 15.793-55.553 41.652m50.936-49.033s-37.273-8.769-51.241 15.952m81.478 27.115a39.958 39.958 0 008.029 8.465m-22.817-46.703a100.71 100.71 0 0011.825 33.676m25.621 78.435a126.74 126.74 0 01-2.315 8.809m.159-58.066c6.045 13.425 5.635 30.131 3.148 44.257m-7.579-20.925a36.099 36.099 0 01-10.516 27.618m-6.666-109.479c6.336 8.571 11.045 17.763 18.385 25.594 7.738 8.24 15.476 17.684 16.931 29.297m-44.257-63.807a27.818 27.818 0 014.973 4.167" stroke="#fff" stroke-linecap="round" stroke-linejoin="round"/><path d="M405.15 359.323c-.741.159-1.482.291-2.249.397-19.999 2.857-42.432-13.729-49.997-33.636-5.979-15.727-.754-33.57 2.103-41.202.899-2.394 1.547-3.783 1.547-3.783 12.063-17.195 82.192 16.468 83.012 35.039.82 18.57-13.928 38.688-34.416 43.185z" fill="#263238" stroke="#263238" stroke-linecap="round" stroke-linejoin="round"/><path d="M427.093 318.651s-3.968 29.522-24.192 41.069c-19.999 2.857-42.432-13.729-49.997-33.636-5.979-15.727-.754-33.57 2.103-41.202 23.636-13.504 72.086 33.769 72.086 33.769z" fill="#fff"/><path opacity=".4" d="M427.093 318.651s-3.968 29.522-24.192 41.069c-19.999 2.857-42.432-13.729-49.997-33.636-5.979-15.727-.754-33.57 2.103-41.202 23.636-13.504 72.086 33.769 72.086 33.769z" fill="#FF8562"/><path d="M427.093 318.651s-3.968 29.522-24.192 41.069c-19.999 2.857-42.432-13.729-49.997-33.636-5.979-15.727-.754-33.57 2.103-41.202 23.636-13.504 72.086 33.769 72.086 33.769z" stroke="#263238" stroke-linecap="round" stroke-linejoin="round"/><path d="M344.385 334.193s22.777 32.697 49.376 35.421c26.6 2.725 43.649-19.681 44.694-36.572" stroke="#263238" stroke-linecap="round" stroke-linejoin="round"/><path d="M331.582 186.646c1.997-5.595 16.362-3.717 20.925 13.742 4.563 17.46 22.486 59.905 22.486 59.905s71.425-105.035 84.176-109.082c12.75-4.048 7.737 14.153-9.365 39.403 0 0 16.018-2.818 20.224 0 4.206 2.817 2.156 19.84 4.391 25.739 3.757 9.96-4.589 12.063-4.589 12.063a17.816 17.816 0 0111.15 4.246c4.59 4.299 2.288 22.063 3.598 27.089 1.309 5.026-7.447 9.259-7.447 9.259s21.044 11.467 16.295 14.351c-8.015 4.841-12.578-.119-12.578-.119s-32.34 40.606-56.731 49.654c-24.39 9.047-71.861-26.904-76.967-46.48-5.106-19.576.992-18.372-2.884-50.95-3.875-32.578-12.684-48.82-12.684-48.82z" fill="#fff" stroke="#263238" stroke-linecap="round" stroke-linejoin="round"/><path d="M435.715 122.109l-94.049 24.515a6.243 6.243 0 00-4.466 7.616l44.456 170.55a6.244 6.244 0 007.616 4.467l94.049-24.516a6.242 6.242 0 004.466-7.616l-44.456-170.549a6.243 6.243 0 00-7.616-4.467z" fill="#fff" stroke="#263238" stroke-linecap="round" stroke-linejoin="round"/><path d="M381.831 141.714a1.525 1.525 0 01-2.691 1.303 1.55 1.55 0 01-.259-.536 1.512 1.512 0 011.085-1.865 1.54 1.54 0 011.159.164c.349.206.603.542.706.934zm19.377-5.052a.956.956 0 01-.101.725.95.95 0 01-.587.439.95.95 0 01-.996-.353.954.954 0 011.396-1.282c.14.125.241.289.288.471z" fill="#FF8562" stroke="#263238" stroke-linecap="round" stroke-linejoin="round"/><path d="M396.578 139.047l-11.355 2.927a.423.423 0 00-.304.516l.059.231c.059.227.29.363.517.305l11.354-2.927a.424.424 0 00.305-.516l-.06-.231a.424.424 0 00-.516-.305z" fill="#FF8562" stroke="#263238" stroke-width="1.002" stroke-linecap="round" stroke-linejoin="round"/><path d="M440.505 128.341l44.086 169.146a3.706 3.706 0 01-2.646 4.511l-92.839 24.192a3.706 3.706 0 01-4.511-2.646L340.51 154.399a3.701 3.701 0 012.645-4.511l19.06-4.973a3.095 3.095 0 013.32 1.217l1.389 1.97a3.096 3.096 0 003.32 1.217l41.837-10.899a3.109 3.109 0 002.301-2.645l.252-2.394a3.08 3.08 0 012.301-2.645l19.06-4.974a3.704 3.704 0 014.51 2.579z" fill="#FF8562" stroke="#263238" stroke-linecap="round" stroke-linejoin="round"/><path d="M443.739 223.258c8.626-19.867-.487-42.966-20.354-51.592-19.868-8.626-42.966.486-51.593 20.354-8.626 19.867.487 42.966 20.355 51.592 19.867 8.627 42.966-.486 51.592-20.354z" fill="#fff" stroke="#263238" stroke-linecap="round" stroke-linejoin="round"/><path d="M391.566 230.163a3.463 3.463 0 004.206 1.957l12.896-3.717c.029.278.082.552.159.82a5.346 5.346 0 004.543 3.823 5.32 5.32 0 002.077-.179 5.329 5.329 0 003.193-2.555c.338-.615.552-1.29.63-1.987a5.362 5.362 0 00-.179-2.078 5.599 5.599 0 00-.304-.78l12.883-3.717a3.475 3.475 0 002.526-3.968 3.35 3.35 0 00-1.537-2.276 3.361 3.361 0 00-2.722-.369l-1.084-.662a10.824 10.824 0 01-4.842-6.282l-2.447-8.479A15.04 15.04 0 00404.951 189a4.092 4.092 0 00.525-4.938 4.092 4.092 0 00-4.629-1.799 4.09 4.09 0 00-2.948 3.996 4.084 4.084 0 003.084 3.892 15.038 15.038 0 00-8.412 18.015l2.474 8.571a10.8 10.8 0 01.321 4.616 10.8 10.8 0 01-1.644 4.326 3.379 3.379 0 00-2.065 1.767 3.373 3.373 0 00-.091 2.717zm12.711-44.522a2.384 2.384 0 01-2.086 3.032 2.385 2.385 0 01-2.316-1.277 2.388 2.388 0 01.293-2.629c.304-.36.707-.622 1.159-.753a2.363 2.363 0 011.815.197 2.376 2.376 0 011.135 1.43z" fill="#FF8562" stroke="#263238" stroke-linecap="round" stroke-linejoin="round"/><path d="M416.446 225.679l-5.688 1.653m14.1-10.753l-26.07 7.539" stroke="#263238" stroke-linecap="round" stroke-linejoin="round"/><path d="M452.092 269.262l-52.907 13.782a11.902 11.902 0 01-14.55-8.491 11.898 11.898 0 011.235-9.039 11.897 11.897 0 017.27-5.511l52.908-13.783a11.907 11.907 0 0114.483 8.492 11.905 11.905 0 01-8.439 14.55z" fill="#263238"/><path d="M393.352 266.523a2.524 2.524 0 011.706-1.203 2.49 2.49 0 012.076.224 3.015 3.015 0 011.164 1.865l.093.344-1.627.424-.119-.45a1.324 1.324 0 00-.423-.767.812.812 0 00-.714-.08.782.782 0 00-.569.424 1.32 1.32 0 000 .873c.105.434.346.823.688 1.111.435.343.905.64 1.402.886.429.216.844.459 1.243.727.348.242.656.536.913.873.294.396.51.845.634 1.323a3 3 0 01-.132 2.209 3.016 3.016 0 01-3.809.992 2.927 2.927 0 01-1.191-1.865l-.172-.675 1.627-.423.199.78c.185.715.569.993 1.164.834.595-.159.807-.582.621-1.323a2.155 2.155 0 00-.687-1.111 7.256 7.256 0 00-1.402-.873 14.06 14.06 0 01-1.244-.741 4.02 4.02 0 01-.912-.873 3.713 3.713 0 01-.635-1.322 3.078 3.078 0 01.106-2.183zm9.1 6.019c.185.701.582.979 1.177.833.595-.145.793-.595.608-1.323l-2.195-8.438 1.627-.424 2.169 8.32a3.005 3.005 0 01-.133 2.209 2.536 2.536 0 01-1.719 1.217 2.639 2.639 0 01-2.09-.212 3.103 3.103 0 01-1.19-1.878l-2.17-8.32 1.72-.449 2.196 8.465zm7.076-10.199a2.654 2.654 0 011.111 1.746l.093.384c.145.475.177.978.092 1.468a1.824 1.824 0 01-.621 1.032c.939.105 1.574.78 1.891 1.997l.225.899a2.639 2.639 0 01-.159 2.103 2.65 2.65 0 01-1.772 1.164l-2.646.715-2.857-10.939 2.646-.688a2.768 2.768 0 011.997.119zm-1.812 4.564l.675-.172a1.07 1.07 0 00.399-.158c.12-.08.223-.184.302-.305a1.33 1.33 0 000-.966l-.159-.608a1.391 1.391 0 00-.437-.794.787.787 0 00-.727-.093l-.833.212.78 2.884zm1.323 4.933l.978-.264a.863.863 0 00.609-.41 1.325 1.325 0 000-.9l-.251-.952a1.667 1.667 0 00-.53-.966 1.13 1.13 0 00-.925-.079l-.768.212.887 3.359zm2.711-10.065a2.467 2.467 0 011.706-1.204 2.486 2.486 0 012.077.212 3.053 3.053 0 011.177 1.878l.093.344-1.627.423-.119-.462a1.215 1.215 0 00-.437-.754.785.785 0 00-.701-.093.814.814 0 00-.582.423 1.333 1.333 0 000 .873c.101.433.338.822.675 1.111a8.61 8.61 0 001.415.887c.503.264.913.515 1.244.727.342.248.649.542.912.873.293.395.505.845.622 1.323.25.723.207 1.516-.119 2.209a2.57 2.57 0 01-1.72 1.216 2.635 2.635 0 01-2.103-.211 3.046 3.046 0 01-1.177-1.878l-.185-.662 1.627-.436.211.793c.186.701.569.979 1.164.82.596-.158.794-.582.609-1.322a2.106 2.106 0 00-.675-1.098 7.352 7.352 0 00-1.415-.886 13.688 13.688 0 01-1.23-.741 3.542 3.542 0 01-.913-.873 3.337 3.337 0 01-.635-1.323 3.046 3.046 0 01.106-2.169zm12.433 4.973a3 3 0 01-.132 2.209 2.565 2.565 0 01-1.719 1.204 2.53 2.53 0 01-2.09-.212 2.924 2.924 0 01-1.191-1.865l-1.481-5.687a3.004 3.004 0 01.119-2.209 2.57 2.57 0 011.72-1.217 2.635 2.635 0 012.103.212 3.04 3.04 0 011.177 1.878l.278 1.058-1.627.423-.305-1.177c-.185-.714-.568-.992-1.164-.833-.595.158-.793.582-.608 1.322l1.534 5.9c.186.714.569.992 1.164.833.596-.159.807-.582.622-1.323l-.41-1.561 1.627-.423.383 1.468zm5.066.939a6.19 6.19 0 01-.251-.833l-.45-1.719a1.723 1.723 0 00-.542-.992 1.135 1.135 0 00-.952-.106l-.582.158 1.15 4.458-1.719.45-2.844-10.939 2.645-.688a2.277 2.277 0 012.85.842c.196.304.316.65.351 1.01l.225.873a2.277 2.277 0 01-.542 2.5c.427.052.817.271 1.085.608.318.425.543.911.661 1.429l.436 1.693c.08.304.159.555.225.74.076.191.178.369.304.53l-1.745.463a2.114 2.114 0 01-.305-.477zm-3.187-5.052l.661-.172a1.108 1.108 0 00.714-.476 1.327 1.327 0 000-.953l-.291-1.084a1.325 1.325 0 00-.423-.794.814.814 0 00-.359-.135.813.813 0 00-.382.042l-.82.212.9 3.36zm4.999-6.56l2.844 10.938-1.719.45-2.844-10.978 1.719-.41zm5.939-.913a2.633 2.633 0 011.098 1.733l.106.396c.139.472.17.969.093 1.455a1.915 1.915 0 01-.622 1.032c.939.119 1.561.78 1.891 2.01l.225.9a2.647 2.647 0 01-.159 2.09 2.642 2.642 0 01-1.772 1.177l-2.645.701-2.963-10.912 2.645-.675a2.763 2.763 0 012.103.093zm-1.812 4.563l.675-.172c.285-.058.536-.224.701-.463.121-.31.121-.655 0-.965l-.159-.609a1.48 1.48 0 00-.436-.807.865.865 0 00-.741-.092l-.82.225.78 2.883zm1.323 4.921l.979-.252a.9.9 0 00.608-.423 1.241 1.241 0 000-.886l-.238-.953a1.703 1.703 0 00-.529-.978 1.14 1.14 0 00-.926-.067l-.767.199.873 3.36zm7.42-7.011l.41 1.574-2.367.609.833 3.201 2.976-.768.41 1.561-4.696 1.217-2.843-10.939 4.682-1.216.41 1.56-2.963.781.794 3.042 2.354-.622zm3.188-5.754a2.649 2.649 0 012.103.198 2.916 2.916 0 011.164 1.839l1.442 5.542a2.872 2.872 0 01-.119 2.182 2.526 2.526 0 01-1.733 1.178l-2.725.714-2.857-10.939 2.725-.714zm1.442 9.642l.965-.251a.874.874 0 00.595-.423 1.32 1.32 0 000-.873l-1.481-5.688a1.323 1.323 0 00-.45-.754.896.896 0 00-.701-.079l-.979.251 2.051 7.817z" fill="#fff"/><path d="M323.513 419.03s-16.057-37.366-7.936-82.682m-31.242 123.05s-32.459 9.921-35.712 17.394c-3.254 7.473 14.549 1.177 14.549 1.177m41.123-171.791s-29.893 29.628-49.892 37.524m-48.054-45.487s-5.449 39.999 14.881 47.551m-72.418 33.213s-.158-52.432 10.251-68.648m-14.139 15.224s-2.924 32.565 3.65 43.186m-25.052 17.975s-22.737-7.83-27.446 1.878c-4.708 9.709 13.558 1.098 13.558 1.098m27.565 31.017s-22.327 12.579-23.478 19.775m59.945-54.561s42.736 64.587 66.319 58.661m-37.128 31.93S169.354 501.077 164.499 499" stroke="#263238" stroke-linecap="round" stroke-linejoin="round"/><path opacity=".2" d="M437.543 371.703c2.261-1.852 3.756-3.082 4.245-3.465-.502.436-1.957 1.706-4.245 3.465z" fill="#000"/></svg>