<svg width="507" height="743" fill="none" xmlns="http://www.w3.org/2000/svg"><g filter="url(#filter0_b_401_2)"><path d="M120.758 524.43c66.692 3.303 123.435-48.084 126.738-114.777 3.303-66.692-48.084-123.435-114.777-126.738C66.027 279.612 9.284 330.999 5.981 397.692 2.678 464.384 54.065 521.127 120.758 524.43z" fill="url(#paint0_radial_401_2)" fill-opacity=".18"/><path d="M245.998 409.579c-3.262 65.865-59.301 116.615-125.166 113.353C54.967 519.67 4.217 463.631 7.479 397.766c3.262-65.865 59.301-116.615 125.166-113.353 65.865 3.262 116.615 59.301 113.353 125.166z" stroke="url(#paint1_radial_401_2)" stroke-width="3"/></g><path d="M60.268 308.816l121.553-71.708a9.98 9.98 0 015.091-1.4 9.98 9.98 0 015.092 1.4l120.718 71.67a5.118 5.118 0 011.856 1.894c.445.786.679 1.679.679 2.587 0 .909-.234 1.802-.679 2.588a5.118 5.118 0 01-1.856 1.894l-121.553 71.708a9.977 9.977 0 01-5.091 1.4 9.98 9.98 0 01-5.092-1.4l-120.718-71.67a5.12 5.12 0 01-1.855-1.894 5.262 5.262 0 010-5.176 5.124 5.124 0 011.855-1.893zm181.541 105.173l121.572-71.708a9.986 9.986 0 015.091-1.399 9.99 9.99 0 015.092 1.399l120.7 71.594a5.142 5.142 0 011.853 1.9c.445.788.679 1.682.679 2.592 0 .909-.234 1.803-.679 2.591a5.142 5.142 0 01-1.853 1.9l-121.553 71.688a10.01 10.01 0 01-5.092 1.394 10.01 10.01 0 01-5.092-1.394l-120.699-71.669a5.145 5.145 0 01-1.802-1.889 5.277 5.277 0 01-.661-2.55 5.277 5.277 0 01.65-2.552 5.138 5.138 0 011.794-1.897zm-40.53 188.252l121.553-71.708a9.992 9.992 0 015.092-1.399c1.788 0 3.545.483 5.092 1.399l120.718 71.67a5.152 5.152 0 011.854 1.9 5.282 5.282 0 010 5.183 5.142 5.142 0 01-1.854 1.899l-121.572 71.708a9.977 9.977 0 01-5.091 1.4 9.98 9.98 0 01-5.092-1.4l-120.7-71.67a5.103 5.103 0 01-1.866-1.895 5.256 5.256 0 01-.684-2.596c0-.912.236-1.807.684-2.596a5.11 5.11 0 011.866-1.895zM13.784 660.967l121.571-71.707a9.977 9.977 0 015.083-1.394c1.784 0 3.537.48 5.082 1.394l120.718 71.669a5.144 5.144 0 011.854 1.9 5.286 5.286 0 010 5.183 5.144 5.144 0 01-1.854 1.9l-121.553 71.689a9.986 9.986 0 01-5.091 1.399 9.99 9.99 0 01-5.092-1.399l-120.718-71.67a5.138 5.138 0 01-1.843-1.899 5.276 5.276 0 01-.673-2.583c0-.906.232-1.797.673-2.583a5.146 5.146 0 011.843-1.899z" fill="#fff"/><path d="M65.944 201.88l61.621-36.593 11.426-6.765 47.263-28.065 121.071 71.423-.315 112.261-120.292 71.404-121.09-71.404.316-112.261z" fill="#37474F"/><path d="M307.325 201.88l-121.071-71.423-120.31 71.423 121.089 71.423 120.292-71.423zm-120.292 71.423l-.315 112.242 120.292-71.404.315-112.261-120.292 71.423z" fill="#10123E"/><path d="M65.944 201.88l-.315 112.261 121.089 71.404.315-112.242-121.09-71.423z" fill="#10123E"/><path opacity=".2" d="M307.325 201.88l-121.071-71.423-120.31 71.423 121.089 71.423 120.292-71.423z" fill="#fff"/><path opacity=".1" d="M65.944 201.88l-.315 112.261 121.089 71.404.315-112.242-121.09-71.423z" fill="#000"/><path opacity=".3" d="M138.991 158.522l-23.428 13.909 121.071 71.424 23.428-13.91-121.071-71.423z" fill="#fff"/><path opacity=".3" d="M260.061 273.303l-23.427 13.91v-43.358l23.427-13.91v43.358zm0 68.619l-23.427 13.909v-28.633l23.427-13.91v28.634z" fill="#fff"/><path opacity=".4" d="M161.268 249.369l25.301-14.913 25.116 14.913-25.282 14.933-25.135-14.933z" fill="#fff"/><path d="M368.278 235.555l47.263 28.046 5.138 3.051 67.89 40.307.316 112.261-121.09 71.423-120.291-71.423-.316-112.261 121.09-71.404z" fill="#37474F"/><path d="M247.188 306.959l121.089-71.404 120.292 71.404-121.089 71.423-120.292-71.423z" fill="#10123E"/><path d="M367.48 378.382l.315 112.261-120.291-71.423-.316-112.262 120.292 71.424z" fill="#10123E"/><path d="M488.569 306.958l.316 112.262-121.09 71.423-.315-112.261 121.089-71.424z" fill="#10123E"/><path opacity=".4" d="M247.188 306.959l121.089-71.404 120.292 71.404-121.089 71.423-120.292-71.423z" fill="#fff"/><path opacity=".3" d="M488.569 306.958l.316 112.262-121.09 71.423-.315-112.261 121.089-71.424zM415.541 263.6l23.428 13.91-121.089 71.423-23.428-13.909L415.541 263.6z" fill="#fff"/><path opacity=".3" d="M294.452 378.382l23.427 13.909v-43.358l-23.427-13.909v43.358zm0 68.619l23.427 13.909v-28.634l-23.427-13.909v28.634z" fill="#fff"/><path d="M320.977 234.853l36.375-21.604 11.167-6.632 30.773-18.268 78.815 46.504-.204 73.053-78.314 46.504-78.816-46.485.204-73.072z" fill="#1053FF"/><path d="M478.107 234.853l-78.815-46.504-78.315 46.504 78.816 46.485 78.314-46.485z" fill="#FF10BC"/><path d="M399.793 281.338l-.204 73.072 78.314-46.504.204-73.053-78.314 46.485zm-78.816-46.485l-.204 73.072 78.816 46.485.204-73.072-78.816-46.485z" fill="#FF10BC"/><path opacity=".4" d="M478.107 234.853l-78.815-46.504-78.315 46.504 78.816 46.485 78.314-46.485z" fill="#fff"/><path opacity=".1" d="M399.793 281.338l-.204 73.072 78.314-46.504.204-73.053-78.314 46.485z" fill="#fff"/><path opacity=".3" d="M320.977 234.853l-.204 73.072 78.816 46.485.204-73.072-78.816-46.485zm47.542-28.235l-15.248 9.058 78.816 46.485 15.247-9.058-78.815-46.485z" fill="#fff"/><path opacity=".3" d="M447.334 281.338l-15.247 9.058V262.16l15.247-9.058v28.236zm0 44.666l-15.247 9.058v-18.647l15.247-9.039v18.628z" fill="#fff"/><path opacity=".4" d="M332.811 234.303l16.453-9.702 16.361 9.702-16.472 9.722-16.342-9.722z" fill="#fff"/><path d="M206.955 495.305l62.937-37.37 10.091-5.988h.019l47.244-28.065 121.09 71.423-.316 112.242-120.291 71.423-121.089-71.423.315-112.242z" fill="#1053FF"/><path d="M448.336 495.305l-121.09-71.423-120.291 71.423 121.089 71.423 120.292-71.423z" fill="#1053FF"/><path d="M328.044 566.728l-.315 112.242 120.291-71.423.316-112.242-120.292 71.423z" fill="#1053FF"/><path d="M206.955 495.305l-.315 112.242 121.089 71.423.315-112.242-121.089-71.423z" fill="#1053FF"/><path opacity=".2" d="M448.336 495.305l-121.09-71.423-120.291 71.423 121.089 71.423 120.292-71.423z" fill="#fff"/><path opacity=".1" d="M206.955 495.305l-.315 112.242 121.089 71.423.315-112.242-121.089-71.423z" fill="#000"/><path opacity=".3" d="M279.983 451.947l-23.409 13.909 121.071 71.423 23.428-13.909-121.09-71.423z" fill="#fff"/><path opacity=".3" d="M401.073 566.728l-23.428 13.91v-43.359l23.428-13.909v43.358zm0 68.619l-23.428 13.909v-28.634l23.428-13.909v28.634z" fill="#fff"/><path opacity=".4" d="M380.78 493.201l25.282-14.914 25.134 14.914-25.301 14.914-25.115-14.914z" fill="#fff"/><path d="M140.234 482.627l47.263 28.046 10.109 6.008 62.938 37.351.315 112.261-121.089 71.423-120.292-71.423-.315-112.261 121.071-71.405z" fill="#1053FF"/><path d="M19.163 554.032l121.07-71.405 120.31 71.405-121.089 71.423-120.291-71.423z" fill="#1053FF"/><path d="M139.454 625.455l.316 112.261-120.292-71.423-.315-112.262 120.291 71.424z" fill="#1053FF"/><path d="M260.544 554.031l.315 112.262-121.089 71.423-.315-112.261 121.089-71.424z" fill="#1053FF"/><path opacity=".2" d="M19.163 554.032l121.07-71.405 120.31 71.405-121.089 71.423-120.291-71.423z" fill="#fff"/><path opacity=".1" d="M260.544 554.031l.315 112.262-121.089 71.423-.315-112.261 121.089-71.424z" fill="#fff"/><path opacity=".3" d="M187.497 510.673l23.428 13.91-121.071 71.423-23.428-13.909 121.071-71.424zM66.426 625.455l23.428 13.909v-43.358l-23.428-13.909v43.358zm0 68.638l23.428 13.89v-28.634L66.426 665.44v28.653z" fill="#fff"/><path d="M140.196 407.205l37.488 22.267 11.445 6.784 46.521 27.61.242 89.066-96.085 56.68-95.436-56.68-.26-89.066 96.085-56.661z" fill="#37474F"/><path d="M44.111 463.866l96.085-56.661 95.455 56.661-96.085 56.681-95.454-56.681z" fill="#10123E"/><path d="M139.566 520.546l.241 89.066-95.436-56.68-.26-89.066 95.455 56.68zm96.084-56.68l.242 89.066-96.085 56.68-.241-89.066 96.084-56.68z" fill="#10123E"/><path opacity=".4" d="M44.111 463.866l96.085-56.661 95.455 56.661-96.085 56.681-95.454-56.681z" fill="#fff"/><path opacity=".1" d="M139.566 520.546l.241 89.066-95.436-56.68-.26-89.066 95.455 56.68z" fill="#fff"/><path opacity=".3" d="M235.65 463.866l.242 89.066-96.085 56.68-.241-89.066 96.084-56.68zm-57.966-34.394l18.605 11.029-96.085 56.661-18.586-11.029 96.066-56.661zm-96.066 91.074l18.586 11.029v-34.413l-18.586-11.029v34.413zm0 54.445l18.586 11.029v-22.722l-18.586-11.029v22.722z" fill="#fff"/><path opacity=".4" d="M119.885 501.88l20.052-11.844 19.94 11.844-20.07 11.825-19.922-11.825z" fill="#fff"/><g filter="url(#filter1_b_401_2)"><path d="M373.758 247.496c66.692 3.303 123.435-48.084 126.738-114.777C503.799 66.027 452.412 9.284 385.719 5.981c-66.692-3.303-123.435 48.084-126.738 114.777-3.303 66.692 48.084 123.435 114.777 126.738z" fill="url(#paint2_radial_401_2)" fill-opacity=".18"/><path d="M498.998 132.645c-3.262 65.865-59.301 116.615-125.166 113.353-65.865-3.262-116.615-59.301-113.353-125.166C263.741 54.967 319.78 4.217 385.645 7.479 451.51 10.741 502.26 66.78 498.998 132.645z" stroke="url(#paint3_radial_401_2)" stroke-width="3"/></g><defs><radialGradient id="paint0_radial_401_2" cx="0" cy="0" r="1" gradientUnits="userSpaceOnUse" gradientTransform="matrix(18.4272 260.06397 -278.9965 19.7687 107.334 281.541)"><stop stop-color="#fff" stop-opacity=".58"/><stop offset=".961" stop-color="#0C1138" stop-opacity=".1"/></radialGradient><radialGradient id="paint1_radial_401_2" cx="0" cy="0" r="1" gradientUnits="userSpaceOnUse" gradientTransform="matrix(222.27757 -377.4624 377.46584 222.2796 -40.973 614.96)"><stop stop-color="#070839" stop-opacity="0"/><stop offset=".332" stop-color="#fff"/><stop offset=".47" stop-color="#050727" stop-opacity="0"/><stop offset=".536" stop-color="#fff" stop-opacity="0"/><stop offset="1" stop-color="#fff" stop-opacity="0"/></radialGradient><radialGradient id="paint2_radial_401_2" cx="0" cy="0" r="1" gradientUnits="userSpaceOnUse" gradientTransform="matrix(18.4272 260.06397 -278.9965 19.7687 360.336 4.608)"><stop stop-color="#000105" stop-opacity=".58"/><stop offset=".961" stop-color="#0C1138" stop-opacity=".1"/></radialGradient><radialGradient id="paint3_radial_401_2" cx="0" cy="0" r="1" gradientUnits="userSpaceOnUse" gradientTransform="rotate(130.177 202.209 89.43) scale(365.121 365.124)"><stop offset=".016" stop-color="#070839" stop-opacity="0"/><stop offset=".332" stop-color="#fff"/><stop offset=".47" stop-color="#050727" stop-opacity="0"/><stop offset=".536" stop-color="#fff" stop-opacity="0"/><stop offset="1" stop-color="#fff" stop-opacity="0"/></radialGradient><filter id="filter0_b_401_2" x="-8.17" y="268.764" width="269.817" height="269.817" filterUnits="userSpaceOnUse" color-interpolation-filters="sRGB"><feFlood flood-opacity="0" result="BackgroundImageFix"/><feGaussianBlur in="BackgroundImage" stdDeviation="7"/><feComposite in2="SourceAlpha" operator="in" result="effect1_backgroundBlur_401_2"/><feBlend in="SourceGraphic" in2="effect1_backgroundBlur_401_2" result="shape"/></filter><filter id="filter1_b_401_2" x="244.83" y="-8.17" width="269.817" height="269.817" filterUnits="userSpaceOnUse" color-interpolation-filters="sRGB"><feFlood flood-opacity="0" result="BackgroundImageFix"/><feGaussianBlur in="BackgroundImage" stdDeviation="7"/><feComposite in2="SourceAlpha" operator="in" result="effect1_backgroundBlur_401_2"/><feBlend in="SourceGraphic" in2="effect1_backgroundBlur_401_2" result="shape"/></filter></defs></svg>