<svg width="522" height="448" fill="none" xmlns="http://www.w3.org/2000/svg"><path d="M437.088 307.392c2.54 1.144 8.741.949 8.752.949.012 0-1.34-3.991-1.457-4.231-1.363-2.791-5.664-7.412-9.172-6.943a4.23 4.23 0 00-1.623.622 4.144 4.144 0 00-1.225 1.217 4.035 4.035 0 00-.508 3.308c.583 2.379 3.065 4.152 5.233 5.078z" fill="#263238"/><path d="M439.255 325.097c2.634.378 8.158-1.201 8.613-1.327a71.435 71.435 0 003.356 9.15c.758 1.727 1.585 3.431 2.436 5.159-.513-.721-.967-1.373-1.037-1.453-2.074-2.345-7.471-5.719-10.722-4.323-.534.24-1.01.587-1.398 1.02-.389.433-.679.94-.854 1.491-.175.55-.23 1.13-.161 1.702.069.573.259 1.124.56 1.62 1.165 2.15 4.079 3.214 6.41 3.545 2.331.332 7.121-.915 8.379-1.258.327.652.653 1.315.991 1.967 1.597 3.134 3.217 6.257 4.662 9.356.524 1.144.99 2.196 1.48 3.294-.455-.64-.839-1.144-.909-1.258-2.063-2.345-7.459-5.719-10.711-4.323a4.154 4.154 0 00-1.402 1.018c-.389.432-.68.94-.855 1.491a4.016 4.016 0 00.404 3.324c1.166 2.15 4.079 3.214 6.41 3.545 2.331.332 6.655-.8 8.158-1.201.455 1.144.921 2.288 1.306 3.432.256.777.547 1.498.757 2.287.21.789.431 1.556.653 2.288.361 1.486.746 3.008 1.06 4.472.234 1.006.432 1.978.63 2.95-.513-1.143-1.55-3.225-1.655-3.431-1.678-2.619-6.503-6.725-9.93-5.867a4.221 4.221 0 00-1.542.802 4.13 4.13 0 00-1.076 1.35 4.048 4.048 0 00-.121 3.349c.863 2.288 3.497 3.775 5.828 4.449 2.482.744 7.971.069 8.659 0 .338 1.613.641 3.18.897 4.667a197.084 197.084 0 011.853 12.512c.07.538.117 1.018.175 1.476h-10.652l.723 13.839h24.474l.723-13.839h-9.918c.07-.149.14-.298.221-.446a224.483 224.483 0 005.28-11.678 177.12 177.12 0 001.969-4.918c.664.137 6.107 1.224 8.648.663 2.331-.514 5.093-1.795 6.118-4.026a4.04 4.04 0 00.15-3.375 4.093 4.093 0 00-.983-1.434 4.192 4.192 0 00-1.497-.909c-3.357-1.144-8.473 2.63-10.35 5.124a54.065 54.065 0 00-1.748 2.973c.268-.697.525-1.384.793-2.104.536-1.43 1.025-2.871 1.561-4.426l.7-2.288c.256-.755.419-1.601.629-2.402.454-1.875.827-3.808 1.165-5.718 1.282.457 5.828 2.013 8.159 1.852 2.33-.16 5.302-1.006 6.666-3.065a4.035 4.035 0 00.656-3.286 4.076 4.076 0 00-.737-1.551 4.156 4.156 0 00-1.318-1.122c-3.146-1.589-8.787 1.35-11.025 3.535-.14.137-1.561 1.875-2.331 2.859.187-1.144.385-2.345.536-3.534.432-3.431.77-6.943 1.108-10.431.105-1.064.233-2.127.338-3.191.454.16 5.827 2.127 8.484 1.944 2.331-.16 5.303-1.006 6.666-3.065a4.044 4.044 0 00.656-3.281 4.057 4.057 0 00-.737-1.548 4.138 4.138 0 00-1.317-1.118c-3.147-1.59-8.788 1.338-11.025 3.522-.163.172-2.215 2.688-2.704 3.351.256-2.344.524-4.677.897-6.976a69.102 69.102 0 012.04-9.15c.21.08 5.827 2.161 8.519 1.967 2.331-.16 5.315-1.006 6.678-3.065a4.032 4.032 0 00.645-3.282 4.055 4.055 0 00-.738-1.547 4.154 4.154 0 00-1.317-1.119c-3.147-1.589-8.776 1.339-11.013 3.523-.175.172-2.331 2.882-2.751 3.431.058-.171.093-.354.14-.526a53.171 53.171 0 013.706-8.681 57.34 57.34 0 012.529-4.346c1.002.492 5.618 2.688 8.077 2.779 2.459.092 5.384-.423 6.992-2.287.387-.434.677-.943.851-1.493a4.049 4.049 0 00-.402-3.324 4.144 4.144 0 00-1.183-1.256c-2.948-1.922-8.869.388-11.34 2.287-.139.103-1.387 1.327-2.272 2.219.396-.618.792-1.258 1.165-1.83 1.48-2.196 2.972-4.106 4.312-5.787.77-.95 1.48-1.796 2.156-2.585 1.236 0 6.247-.172 8.438-1.144 2.191-.972 4.569-2.814 5.093-5.215a4.039 4.039 0 00-.599-3.293 4.156 4.156 0 00-1.257-1.184 4.24 4.24 0 00-1.64-.579c-3.496-.366-7.692 4.358-8.974 7.194-.117.241-1.399 4.267-1.34 4.267h.081a80.333 80.333 0 00-2.121 2.436c-1.375 1.658-2.913 3.534-4.452 5.718a72.781 72.781 0 00-4.662 7.206 53.025 53.025 0 00-3.939 8.704.543.543 0 010 .114v-4.083c-.408-3.077-3.03-8.784-6.515-9.413a4.262 4.262 0 00-1.741.094 4.22 4.22 0 00-1.55.782c-.455.365-.827.82-1.091 1.335a4.044 4.044 0 00-.443 1.655c-.209 2.436 1.597 4.884 3.357 6.428 1.981 1.738 7.494 3.431 7.937 3.557a69.239 69.239 0 00-2.331 9.424c-.338 1.864-.618 3.74-.874 5.627v-1.773c-.408-3.076-3.031-8.783-6.515-9.413a4.285 4.285 0 00-1.739.098 4.234 4.234 0 00-1.549.783 4.108 4.108 0 00-1.537 2.985c-.198 2.448 1.596 4.884 3.356 6.428 1.76 1.544 6.457 3.1 7.692 3.431-.081.732-.186 1.453-.28 2.185-.419 3.431-.827 6.954-1.328 10.351a230.714 230.714 0 01-.618 3.545v-1.532c-.408-3.077-3.03-8.784-6.503-9.413a4.269 4.269 0 00-3.288.88 4.142 4.142 0 00-1.091 1.333 4.05 4.05 0 00-.446 1.652c-.21 2.437 1.597 4.884 3.357 6.428 1.759 1.544 5.99 2.94 7.47 3.431-.256 1.201-.513 2.402-.827 3.546-.222.778-.385 1.544-.653 2.288-.268.743-.501 1.532-.758 2.287a180.332 180.332 0 01-1.62 4.3 67.705 67.705 0 01-1.165 2.803c.186-1.144.513-3.535.513-3.729a15.79 15.79 0 00-2.18-7.754 4.744 4.744 0 00-.058-.915 4.036 4.036 0 00-.584-1.602 4.131 4.131 0 00-1.197-1.231 4.248 4.248 0 00-3.335-.599c-3.415.892-5.583 6.771-5.746 9.871 0 .183.117 2.173.21 3.431-.175-.732-.326-1.441-.513-2.185-.361-1.486-.769-2.962-1.165-4.575-.233-.754-.467-1.521-.711-2.287-.245-.766-.548-1.555-.828-2.345a82.717 82.717 0 00-2.272-5.421c1.328-.309 6.002-1.475 7.89-2.894 1.888-1.418 3.857-3.717 3.834-6.164a4.04 4.04 0 00-.315-1.684 4.102 4.102 0 00-.988-1.412 4.25 4.25 0 00-3.219-1.113c-3.496.377-6.561 5.879-7.202 8.909 0 .195-.245 2.414-.338 3.649a116.492 116.492 0 00-1.539-3.237c-1.573-3.111-3.263-6.21-4.941-9.298-.513-.95-1.002-1.899-1.515-2.848.478-.103 6.072-1.384 8.158-2.974 1.865-1.407 3.857-3.706 3.834-6.165a4.015 4.015 0 00-.315-1.682 4.094 4.094 0 00-.988-1.41 4.205 4.205 0 00-3.219-1.105c-3.496.377-6.561 5.867-7.202 8.909 0 .229-.35 3.432-.373 4.255-1.107-2.093-2.191-4.197-3.182-6.302a70.897 70.897 0 01-3.496-8.749c.221 0 6.06-1.35 8.216-2.974 1.877-1.407 3.858-3.717 3.846-6.165a4.053 4.053 0 00-.319-1.682 4.114 4.114 0 00-.988-1.409 4.203 4.203 0 00-1.486-.894 4.264 4.264 0 00-1.729-.224c-3.496.378-6.573 5.879-7.202 8.91-.058.24-.373 3.694-.385 4.323 0-.171-.128-.354-.175-.526a52.238 52.238 0 01-1.794-9.241 57.176 57.176 0 01-.338-4.987c1.165-.137 6.2-.801 8.309-2.059 2.11-1.258 4.242-3.271 4.499-5.718a4.025 4.025 0 00-.122-1.708 4.082 4.082 0 00-.823-1.51c-.38-.44-.85-.797-1.38-1.047a4.23 4.23 0 00-1.696-.402c-3.496 0-7.179 5.124-8.158 8.075-.058.16-.408 1.853-.653 3.077v-2.174c0-2.63.175-5.032.35-7.159.105-1.213.221-2.288.35-3.317 1.013-.686 5.104-3.523 6.363-5.547 1.259-2.025 2.238-4.827 1.317-7.114a4.103 4.103 0 00-.921-1.446 4.2 4.2 0 00-1.44-.954 4.248 4.248 0 00-3.396.112c-3.147 1.602-3.975 7.801-3.497 10.866 0 .263 1.236 4.312 1.282 4.277h.058c-.128.984-.268 2.036-.396 3.18-.21 2.127-.431 4.575-.501 7.171-.1 2.838-.03 5.68.21 8.51.25 3.17.788 6.313 1.608 9.39v.114c-.559-.858-2.191-3.202-2.331-3.431-2.063-2.288-7.459-5.719-10.722-4.324-.534.24-1.01.588-1.398 1.021a4.045 4.045 0 00-.455 4.812c1.224 1.991 4.137 3.054 6.468 3.443zm35.069 45.486c1.806 1.922 6.445 4.175 7.051 4.461a347.475 347.475 0 01-1.877 4.381 216.671 216.671 0 01-5.489 11.437c-.28.549-.536 1.041-.781 1.487h-.233c-.07-.538-.14-1.144-.233-1.762-.431-3.065-1.166-7.422-2.156-12.581a90.704 90.704 0 00-1.166-5.169 46.07 46.07 0 004.86-2.311l.024.057z" fill="#263238"/><path d="M499.859 308.73c.058 0 1.165-4.049 1.165-4.312.431-3.065-.571-9.252-3.753-10.762a4.242 4.242 0 00-4.825.989 4.093 4.093 0 00-.874 1.481c-.85 2.288.233 5.136 1.515 7.08 1.527 2.276 6.772 5.524 6.772 5.524z" fill="#263238"/><path d="M494.288 49.262H372.825v158.614h121.463V49.262z" stroke="#A1A1A1" stroke-linecap="round" stroke-linejoin="round"/><path d="M487.54 58.07H379.573v140.987H487.54V58.069z" stroke="#A1A1A1" stroke-linecap="round" stroke-linejoin="round"/><path d="M450.432 106.541h-33.74v44.056h33.74v-44.056zM238.192 1.123H28.307V405.97h209.885V1.123z" stroke="#A1A1A1" stroke-linecap="round" stroke-linejoin="round"/><path d="M128.197 19.56H48.516v83.71h79.681V19.56z" stroke="#A1A1A1" stroke-linecap="round" stroke-linejoin="round"/><path d="M116.018 32.358H60.695v58.113h55.323V32.358zm-55.323 0L48.515 19.56m67.503 70.911l12.179 12.799m-12.179-70.912l12.179-12.798M60.695 90.471l-12.18 12.799M222.96 19.56h-79.682v83.71h79.682V19.56z" stroke="#A1A1A1" stroke-linecap="round" stroke-linejoin="round"/><path d="M210.793 32.358h-55.324v58.113h55.324V32.358zm-55.324 0L143.278 19.56m67.503 70.911l12.19 12.799m-12.19-70.912l12.19-12.798m-67.502 70.911l-12.191 12.799m-15.081 21.319H48.516v83.71h79.681v-83.71z" stroke="#A1A1A1" stroke-linecap="round" stroke-linejoin="round"/><path d="M116.018 137.387H60.695V195.5h55.323v-58.113zm-55.323 0l-12.18-12.798m67.503 70.911l12.179 12.799m-12.179-70.912l12.179-12.798M60.695 195.5l-12.18 12.799m174.445-83.71h-79.682v83.71h79.682v-83.71z" stroke="#A1A1A1" stroke-linecap="round" stroke-linejoin="round"/><path d="M210.793 137.387h-55.324V195.5h55.324v-58.113zm-55.324 0l-12.191-12.798m67.503 70.911l12.19 12.799m-12.19-70.912l12.19-12.798M155.469 195.5l-12.191 12.799m-15.081 21.319H48.516v83.71h79.681v-83.71z" stroke="#A1A1A1" stroke-linecap="round" stroke-linejoin="round"/><path d="M116.018 242.416H60.695v58.114h55.323v-58.114zm-55.323 0l-12.18-12.798m67.503 70.912l12.179 12.798m-12.179-70.912l12.179-12.798M60.695 300.53l-12.18 12.798m174.445-83.71h-79.682v83.71h79.682v-83.71z" stroke="#A1A1A1" stroke-linecap="round" stroke-linejoin="round"/><path d="M210.793 242.416h-55.324v58.114h55.324v-58.114zm-55.324 0l-12.191-12.798m67.503 70.912l12.19 12.798m-12.19-70.912l12.19-12.798m-67.502 70.912l-12.191 12.798m-15.081 21.319H48.516v71.324h79.681v-71.324z" stroke="#A1A1A1" stroke-linecap="round" stroke-linejoin="round"/><path d="M116.018 347.446H60.695v58.113h55.323v-58.113zm-55.323 0l-12.18-12.799m67.503 12.799l12.179-12.799m94.763 0h-79.682v71.324h79.682v-71.324z" stroke="#A1A1A1" stroke-linecap="round" stroke-linejoin="round"/><path d="M210.793 347.446h-55.324v58.113h55.324v-58.113zm-55.324 0l-12.191-12.799m67.503 12.799l12.19-12.799M45.754 218.364c0-1.269-.384-2.51-1.102-3.565a6.51 6.51 0 00-2.934-2.363 6.647 6.647 0 00-3.778-.365 6.568 6.568 0 00-3.348 1.756 6.377 6.377 0 00-1.79 3.285 6.304 6.304 0 00.373 3.707 6.442 6.442 0 002.408 2.88 6.627 6.627 0 003.632 1.081 6.603 6.603 0 004.624-1.879 6.359 6.359 0 001.915-4.537v0z" stroke="#A1A1A1" stroke-linecap="round" stroke-linejoin="round"/><path d="M462.063 405.971c-3.788-24.991-20.454-135.419-20.162-138.724.315-3.74-44.392-17.431-44.392-17.431l-25.046-.937v-.298l-3.962.149-3.963-.149v.298l-25.045.937s-44.695 13.725-44.38 17.431c.279 3.305-16.387 113.733-20.163 138.724h187.113z" fill="#FF8562" stroke="#263238" stroke-linecap="round" stroke-linejoin="round"/><path d="M441.132 266.16l.769 1.087c.023-.309-.257-.675-.769-1.087zm-43.332 8.613l36.455-12.147c-12.691-5.398-36.746-12.764-36.746-12.764l-11.328-.423 11.619 25.334zm44.485-3.523l13.286 134.721h6.539c-3.45-22.543-17.296-114.248-19.825-134.721z" fill="#263238" stroke="#263238" stroke-linecap="round" stroke-linejoin="round"/><path d="M460.303 405.971l-21.91-44.103-11.597.263-1.491 43.84h34.998z" fill="#FF8562" stroke="#263238" stroke-linecap="round" stroke-linejoin="round"/><path d="M420.992 310.469v-5.284m0 53.698v-42.364" stroke="#263238" stroke-linecap="round" stroke-linejoin="round"/><path d="M311.673 405.971l-1.491-43.84-11.597-.263-21.91 44.103h34.998z" fill="#FF8562" stroke="#263238" stroke-linecap="round" stroke-linejoin="round"/><path d="M315.986 321.551v-16.366m0 53.698v-33.306" stroke="#263238" stroke-linecap="round" stroke-linejoin="round"/><path d="M355.984 277.826l12.68 16.173-13.95 89.92 16.479 20.222 13.321-21.777-13.321-89.292 13.006-15.875-12.365-14.308-15.85 14.937z" fill="#263238" stroke="#263238" stroke-linecap="round" stroke-linejoin="round"/><path d="M370.937 272.485s-12.424 6.863-15.909 11.209c-3.484 4.346-11.724 12.752-11.724 13.725 0 .972-7.925-28.925-7.925-38.258 0-9.333-.956-8.407 1.585-11.209 2.54-2.802 10.489-10.579 12.68-11.506 2.191-.926 40.254-.309 42.48.618 2.226.926 7.925 12.135 9.51 15.875a32.33 32.33 0 011.9 5.284s-3.496 20.221-4.126 25.162c-.629 4.941-5.384 15.555-5.384 15.555s-14.58-16.79-15.535-18.975c-.956-2.184-7.552-7.48-7.552-7.48z" fill="#FF8562" stroke="#263238" stroke-linecap="round" stroke-linejoin="round"/><path d="M347.733 224.311l.338 23.332 22.866 24.888 19.882-23.023.665-24.27-43.751-.927z" fill="#fff" stroke="#263238" stroke-linecap="round" stroke-linejoin="round"/><path d="M360.086 233.667l1.329 2.184 27.423 15.967 1.981-2.31.664-24.27-34.171-.721 2.774 9.15z" fill="#263238"/><path d="M342.441 189.416s-3.612-11.369-9.137-8.498c-5.524 2.871-3.216 15.12.105 18.688a21.287 21.287 0 008.66 5.056s-1.69 16.115 5.664 22.04c7.354 5.924 10.489 13.233 14.941 13.427 4.452.194 15.232 0 17.155-.492 1.923-.492 12.447-8.498 14.673-15.555a59.633 59.633 0 002.517-13.599s11.597-10.705 12.191-16.904c.594-6.199-4.662-8.304-7.272-7.48l-2.576.823 1.492-18.94s15.255-.572 15.325-2.127c.07-1.556-6.223-9.619-6.223-9.619s18.717.194 20.011-7.526c1.293-7.72-14.837-15.6-19.661-14.251-4.825 1.35-12.494 2.562-12.494 2.562s11.118-7.297 6.212-10.934c-4.907-3.637-14.452-3.122-20.023.675a44.674 44.674 0 00-7.913 6.508 20.33 20.33 0 00-12.447-5.524c-7.902-.664-12.494 2.562-10.314 3.591a7.046 7.046 0 013.053 2.63s-16.013 3.352-18.029 12.582c-2.016 9.23 4.09 42.867 4.09 42.867z" fill="#fff" stroke="#263238" stroke-linecap="round" stroke-linejoin="round"/><path d="M401.961 186.099l-2.016.64-1.69 4.175-1.166 19.569s11.597-10.705 12.191-16.904c.594-6.199-4.767-8.304-7.319-7.48z" fill="#263238"/><path d="M353.7 187.734l8.426.744m20.36.892l8.089-.4m-52.026-6.714l3.892 7.16a22.344 22.344 0 00-3.892-7.16v0z" stroke="#263238" stroke-linecap="round" stroke-linejoin="round"/><path d="M429.932 148.71c1.305-7.731-14.65-14.251-19.662-14.251a31.214 31.214 0 00-12.493 2.562s11.118-7.297 6.212-10.934c-4.907-3.637-14.452-3.122-20.023.675a44.674 44.674 0 00-7.913 6.508 20.33 20.33 0 00-12.447-5.524c-7.902-.664-12.494 2.562-10.314 3.591a7.046 7.046 0 013.053 2.63s-16.013 3.352-18.029 12.582c-2.016 9.23 4.09 42.844 4.09 42.844l2.588-1.144a20.26 20.26 0 012.028-9.573c2.47-5.49 5.419-7.549 5.594-11.586.175-4.037-3.881-12.318 1.282-14.262 5.163-1.945 36.129 0 39.322.777 3.193.778 5.21 3.969 4.032 8.899-1.177 4.929-2.191 6.439-1.037 8.989 1.154 2.551 2.331 11.003 2.238 13.485l-.105 2.482-.152 3.431 1.562-4.129-.431.138 1.492-18.941s15.255-.572 15.325-2.127c.07-1.556-6.223-9.619-6.223-9.619s18.752.217 20.011-7.503z" fill="#263238" stroke="#263238" stroke-linecap="round" stroke-linejoin="round"/><path d="M400.795 153.628a25.338 25.338 0 003.683 1.613m-37.714-10.74s17.598 7.583 21.118 6.611c3.52-.972 1.259-7.869 1.259-7.869a37.641 37.641 0 008.251 8.258" stroke="#6E6E6E" stroke-linecap="round" stroke-linejoin="round"/><path d="M378.547 176.983l-2.331 9.551s.921 7.514 1.666 12.215a14.508 14.508 0 01-.676 7.754l-12.668-.549 15.675 3.237 2.028-4.243-3.916-18.963.222-9.002z" fill="#263238" stroke="#263238" stroke-linecap="round" stroke-linejoin="round"/><path d="M359.2 211.639a9.39 9.39 0 006.212 3.076l11.398.492a7.095 7.095 0 002.885-.731 6.965 6.965 0 002.313-1.842" stroke="#263238" stroke-linecap="round" stroke-linejoin="round"/><path d="M361.998 182.954c-.07 1.384-.711 2.482-1.446 2.447-.734-.034-1.282-1.144-1.165-2.562.117-1.418.711-2.482 1.445-2.459.734.023 1.224 1.19 1.166 2.574zm22.831.995c-.058 1.384-.711 2.482-1.445 2.447-.735-.034-1.271-1.143-1.166-2.562.105-1.418.711-2.482 1.445-2.447.735.034 1.224 1.178 1.166 2.562z" fill="#263238" stroke="#263238" stroke-linecap="round" stroke-linejoin="round"/><path d="M354.609 173.129a20.253 20.253 0 0114.23.938m10.769.469s6.177-3.157 11.071.789" stroke="#263238" stroke-width="3" stroke-linecap="round" stroke-linejoin="round"/><path d="M389.607 346.977a52.686 52.686 0 01-9.755-8.224 3.668 3.668 0 00-2.164-1.188 3.702 3.702 0 00-2.439.445l-2.098 1.144a3.553 3.553 0 00-1.416 1.454 3.48 3.48 0 00-.379 1.977c.21 2.287.909 5.718 3.159 7.903a30.709 30.709 0 007.19 5.295l10.42-3.877-2.518-4.929zm-45.662 0s6.654-4.266 10.361-8.967c.35-.435.849-.73 1.404-.831a2.366 2.366 0 011.614.282l3.765 2.127c.373.211.68.519.885.891.206.371.303.791.28 1.214-.105 2.161-.664 6.29-3.228 8.806a30.711 30.711 0 01-7.191 5.296l-10.419-3.877 2.529-4.941z" fill="#fff" stroke="#263238" stroke-linecap="round" stroke-linejoin="round"/><path d="M437.6 405.971v-54.053c0-.968-.391-1.896-1.088-2.58a3.757 3.757 0 00-2.629-1.069H302.56a3.781 3.781 0 00-1.426.275 3.7 3.7 0 00-2.019 1.975 3.581 3.581 0 00-.284 1.399v54.053H437.6z" fill="#737373" stroke="#263238" stroke-linecap="round" stroke-linejoin="round"/><path d="M435.759 348.761a3.7 3.7 0 00-1.83-.492H302.56a3.755 3.755 0 00-1.664.385 3.683 3.683 0 00-1.308 1.079c8.892 7.343 55.522 45.303 71.034 45.887 16.048.617 55.09-36.954 65.137-46.859z" stroke="#263238" stroke-linecap="round" stroke-linejoin="round"/><path d="M377.999 382.169h-14.941v23.458h14.941v-23.458z" fill="#263238" stroke="#263238" stroke-linecap="round" stroke-linejoin="round"/><path d="M345.262 333.824h-4.685c-1.474 0-2.669 1.172-2.669 2.619v15.612c0 1.446 1.195 2.619 2.669 2.619h4.685c1.474 0 2.669-1.173 2.669-2.619v-15.612c0-1.447-1.195-2.619-2.669-2.619z" fill="#fff" stroke="#263238" stroke-linecap="round" stroke-linejoin="round"/><path d="M339.458 354.48c.313.128.65.195.99.194h4.942a2.52 2.52 0 001.165-.275v-5.935h-7.062l-.035 6.016zm.711-13.805h5.291m-4.231-1.853a5.164 5.164 0 014.581.343" stroke="#263238" stroke-linecap="round" stroke-linejoin="round"/><path d="M323.748 333.824h-4.686c-1.474 0-2.668 1.172-2.668 2.619v15.612c0 1.446 1.194 2.619 2.668 2.619h4.686c1.474 0 2.668-1.173 2.668-2.619v-15.612c0-1.447-1.194-2.619-2.668-2.619z" fill="#fff" stroke="#263238" stroke-linecap="round" stroke-linejoin="round"/><path d="M317.944 354.48c.314.128.65.195.99.194h4.942c.406.006.807-.088 1.165-.275v-5.935h-6.992l-.105 6.016zm.711-13.805h5.291m-4.242-1.853a5.177 5.177 0 014.591.343" stroke="#263238" stroke-linecap="round" stroke-linejoin="round"/><path d="M312.28 337.792h-2.774c-1.474 0-2.669 1.173-2.669 2.62v11.643c0 1.446 1.195 2.619 2.669 2.619h2.774c1.474 0 2.668-1.173 2.668-2.619v-11.643c0-1.447-1.194-2.62-2.668-2.62z" fill="#fff" stroke="#263238" stroke-linecap="round" stroke-linejoin="round"/><path d="M308.096 354.514c.25.106.52.16.792.16h4.009c.316-.007.626-.081.909-.217v-4.815h-5.71v4.872zm.571-11.186h4.277m-3.426-1.532a4.18 4.18 0 013.717.274" stroke="#263238" stroke-linecap="round" stroke-linejoin="round"/><path d="M334.155 331.09h-4.685c-1.474 0-2.669 1.173-2.669 2.619v18.346c0 1.446 1.195 2.619 2.669 2.619h4.685c1.474 0 2.669-1.173 2.669-2.619v-18.346c0-1.446-1.195-2.619-2.669-2.619z" fill="#fff" stroke="#263238" stroke-linecap="round" stroke-linejoin="round"/><path d="M328.351 354.48c.31.128.643.195.979.194h4.953c.406.006.807-.088 1.166-.275v-5.935h-7.051l-.047 6.016zm.7-13.805h5.302m-4.242-1.853a5.186 5.186 0 014.592.343" stroke="#263238" stroke-linecap="round" stroke-linejoin="round"/><path d="M389.922 354.674h4.685c1.474 0 2.669-1.173 2.669-2.619v-15.612c0-1.447-1.195-2.619-2.669-2.619h-4.685c-1.474 0-2.669 1.172-2.669 2.619v15.612c0 1.446 1.195 2.619 2.669 2.619z" fill="#fff" stroke="#263238" stroke-linecap="round" stroke-linejoin="round"/><path d="M395.726 354.48a2.608 2.608 0 01-.991.194h-4.941a2.446 2.446 0 01-1.166-.275v-5.935h6.993l.105 6.016zm-.711-13.805h-5.291m4.242-1.853a5.197 5.197 0 00-4.592.343" stroke="#263238" stroke-linecap="round" stroke-linejoin="round"/><path d="M411.436 354.674h4.685c1.474 0 2.669-1.173 2.669-2.619v-15.612c0-1.447-1.195-2.619-2.669-2.619h-4.685c-1.474 0-2.669 1.172-2.669 2.619v15.612c0 1.446 1.195 2.619 2.669 2.619z" fill="#fff" stroke="#263238" stroke-linecap="round" stroke-linejoin="round"/><path d="M417.24 354.48c-.31.128-.643.195-.979.194h-4.976a2.481 2.481 0 01-1.166-.275v-5.935h7.051l.07 6.016zm-.699-13.805h-5.291m4.23-1.853a5.186 5.186 0 00-4.592.343" stroke="#263238" stroke-linecap="round" stroke-linejoin="round"/><path d="M422.915 354.663h2.774c1.474 0 2.669-1.173 2.669-2.62V340.4c0-1.446-1.195-2.619-2.669-2.619h-2.774c-1.473 0-2.668 1.173-2.668 2.619v11.643c0 1.447 1.195 2.62 2.668 2.62z" fill="#fff" stroke="#263238" stroke-linecap="round" stroke-linejoin="round"/><path d="M427.1 354.514a2.058 2.058 0 01-.805.16h-3.997a2.132 2.132 0 01-.909-.217v-4.815h5.711v4.872zm-.571-11.186h-4.289m3.426-1.532a4.177 4.177 0 00-3.706.274" stroke="#263238" stroke-linecap="round" stroke-linejoin="round"/><path d="M401.029 354.663h4.685c1.474 0 2.669-1.173 2.669-2.62v-18.345c0-1.447-1.195-2.619-2.669-2.619h-4.685c-1.474 0-2.669 1.172-2.669 2.619v18.345c0 1.447 1.195 2.62 2.669 2.62z" fill="#fff" stroke="#263238" stroke-linecap="round" stroke-linejoin="round"/><path d="M406.832 354.48a2.54 2.54 0 01-.978.194h-4.942a2.49 2.49 0 01-1.165-.275v-5.935h7.051l.034 6.016zm-.699-13.805h-5.291m4.231-1.853a5.161 5.161 0 00-4.581.343M94.05 405.971h415.202" stroke="#263238" stroke-linecap="round" stroke-linejoin="round"/><path d="M216.398 373.557l7.319 35.971h-24.439l17.12-35.971z" fill="#263238" stroke="#263238" stroke-linecap="round" stroke-linejoin="round"/><path d="M208.065 412.398H75.845l8.333-38.841h132.22l-8.333 38.841z" fill="#FF8562" stroke="#263238" stroke-linecap="round" stroke-linejoin="round"/><path d="M99.399 116.548s-29.37 16.264-30.115 19.581c-.746 3.317.745 38.43-.385 41.014-1.13 2.585-16.934 25.86-16.934 38.053 0 12.192-.373 78.334-.373 78.334l-21.41 38.052 51.956 18.471 25.978-38.795s17.319-15.143 21.083-18.837l-6.083-176.971-23.717 1.098z" fill="#fff" stroke="#263238" stroke-linecap="round" stroke-linejoin="round"/><path d="M85.845 144.627s13.927 4.072 18.822 8.875m-14.685 15.51s4.15-1.144 11.655-.366" stroke="#263238" stroke-linecap="round" stroke-linejoin="round"/><path d="M89.122 84.655s36.529 221.102 37.077 228.997a1726.73 1726.73 0 011.109 17.688s44.826-9.823 74.154-13.263c29.328-3.44 126.729-10.808 126.729-10.808s-24.905-151.832-28.219-172.006c-3.314-20.175-13.841-81.072-13.841-81.072s-105.139 8.352-137.793 8.352a482.89 482.89 0 00-62.53 4.425l3.314 17.687z" fill="#fff" stroke="#263238" stroke-linecap="round" stroke-linejoin="round"/><path d="M241.875 160.273l42.492-4.449c-1.853-7.137-3.135-12.192-3.135-12.581 0-.938-7.832-2.608-11.398-3.328-.699-1.144-2.098-3.203-2.692-3.431h-.163l-.129-1.51a5.675 5.675 0 00.84-2.002 16.45 16.45 0 00.116-3.637c.326-.423 2.587-3.362 2.506-4.963a1.978 1.978 0 00-.258-.961 2.017 2.017 0 00-.698-.721 1.688 1.688 0 00-1.422-.034l-.443.217-.349-4.678a11.634 11.634 0 003.776-1.052c.151-.114.14-.183.14-.229a9.21 9.21 0 00-1.853-2.173c1.084-.183 4.743-.949 4.766-2.848a2.543 2.543 0 00-.452-1.212 2.609 2.609 0 00-.993-.846c-1.422-.904-3.636-1.419-4.487-1.041-.851.377-1.899.743-2.564.961.513-.549 1.294-1.499 1.166-2.288a.915.915 0 00-.501-.675 5.348 5.348 0 00-2.84-.256 5.284 5.284 0 00-2.556 1.24 13.874 13.874 0 00-1.749 1.91 5.597 5.597 0 00-3.496-.892c-1.608.103-2.809.743-2.867 1.258a.325.325 0 00.061.235c.05.067.124.114.207.131.259.073.498.202.699.377-.85.344-3.962 1.785-4.102 4.049a1.459 1.459 0 000 .229v1.384c-.006.08-.006.16 0 .24v.126c0 .091 0 .183.058.274v.092l.07.377v.103l.07.298v.137c0 .091 0 .183.058.274v.126c0 .126 0 .252.094.366l.104.423v.115c0 .103.059.206.082.32v.126c0 .103 0 .217.093.331v.092c.082.286.163.583.245.858v.08l.105.354v.08c0 .138.082.264.116.389.082.286.175.572.257.835 0 .126.081.263.128.378l.466 1.452h-.058l-.07-.103-.082-.08-.104-.126a.674.674 0 01-.094-.091l-.058-.057-.093-.08-.07-.058a1.656 1.656 0 00-.664-.331 1.068 1.068 0 00-.933.194 1.854 1.854 0 00-.676 1.544 5.24 5.24 0 001.457 3.58c.72.509 1.55.849 2.424.995 0 .675.373 3.969 2.121 5.33l.315 2.573a33.788 33.788 0 00-2.564 3.008c-.291.412-.396.584-.396.881-3.497 1.51-10.279 4.575-10.105 5.467.501.355.362 5.57.082 12.924z" fill="#263238"/><path d="M290.905 148.253a9.692 9.692 0 00-1.603-5.483 9.97 9.97 0 00-4.437-3.684 10.19 10.19 0 00-5.774-.645 10.084 10.084 0 00-5.167 2.613 9.778 9.778 0 00-2.817 4.989 9.65 9.65 0 00.482 5.684 9.862 9.862 0 003.618 4.463 10.148 10.148 0 005.536 1.739c1.314.019 2.62-.215 3.842-.691a10.033 10.033 0 003.281-2.081 9.832 9.832 0 002.22-3.156c.521-1.184.8-2.458.819-3.748z" fill="#FF8562" stroke="#263238" stroke-linecap="round" stroke-linejoin="round"/><path d="M276.803 146.308l4.627 5.273 9.091-16.047" stroke="#263238" stroke-width="3" stroke-linecap="round" stroke-linejoin="round"/><path d="M140.924 131.474l87.443-7.8m-87.708-4.216l87.443-7.8m-87.443-4.566l87.443-7.8m-85.593 44.66l87.444-7.8m-45.359 16.676l46.944-4.186m-87.444 7.8l31.898-2.848m-30.301 15.326l87.443-7.8m-28.763 18.094l84.402-7.949m-140.705 13.256l49.928-4.701m59.065 11.815l34.101-3.214m-140.705 13.267l96.931-9.138m20.652 15.44l25.511-2.402m-99.599 9.39l65.428-6.165m-106.534 10.031l35.034-3.294m80.253 9.825l27.795-2.619m-140.704 13.256l96.219-9.07m-56.512 22.714l103.387-9.744m-140.705 13.267l23.938-2.265m54.823 12.227l64.333-6.062m-140.705 13.256l67.55-6.359m64.507 11.3l11.025-1.041m-74.717 7.046l54.019-5.09M162.38 287.502l56.536-5.329" stroke="#263238" stroke-linecap="round" stroke-linejoin="round"/><path d="M92.243 208.184s6.398-20.69 9.417-29.931c3.018-9.241 4.895-16.63 7.156-24.385 2.261-7.754 1.165-24.75 1.165-28.078 0-3.328 20.337-2.219 22.971-1.853 2.634.366 9.79 43.977 7.529 52.84-2.261 8.864-10.489 16.253-10.489 21.423 0 5.169-.385 15.154-.385 17.373 0 2.219 5.653 24.018 6.026 33.614.373 9.596-5.268 24.019-6.399 25.494-1.13 1.476-27.481 32.517-27.481 32.517" fill="#fff"/><path d="M92.243 208.184s6.398-20.69 9.417-29.931c3.018-9.241 4.895-16.63 7.156-24.385 2.261-7.754 1.165-24.75 1.165-28.078 0-3.328 20.337-2.219 22.971-1.853 2.634.366 9.79 43.977 7.529 52.84-2.261 8.864-10.489 16.253-10.489 21.423 0 5.169-.385 15.154-.385 17.373 0 2.219 5.653 24.018 6.026 33.614.373 9.596-5.268 24.019-6.399 25.494-1.13 1.476-27.481 32.517-27.481 32.517" stroke="#263238" stroke-linecap="round" stroke-linejoin="round"/><path d="M112.196 148.699s8.659-3.695 15.815-.744c0 0 .757-17.362-3.392-22.165m-16.561 38.429c4.328.81 8.804.291 12.82-1.487m-11.689-2.218s7.901-4.427 16.561-1.144m-1.877-2.917a13.844 13.844 0 00-11.293.366" stroke="#263238" stroke-linecap="round" stroke-linejoin="round"/><path d="M35.58 314.678s23.763-2.711 43.12 9.767c19.359 12.478 24.906 28.193 24.906 28.193l-16.025 32.551s-27.679-26.581-46.466-33.088c-18.787-6.508-21.56-7.046-21.56-7.046l16.024-30.377z" fill="#fff" stroke="#263238" stroke-linecap="round" stroke-linejoin="round"/><path d="M1.047 359.901c15.01 34.049 40.989 63.82 79.577 87.05l22.26-64.301s-15.477-29.28-33.717-39.047c-18.239-9.768-49.182-13.554-49.182-13.554L1.047 359.901z" fill="#263238" stroke="#263238" stroke-linecap="round" stroke-linejoin="round"/><path d="M133.247 89.835l144.54-10.911" stroke="#FF8562" stroke-linecap="round" stroke-linejoin="round"/></svg>