<svg width="280" height="382" fill="none" xmlns="http://www.w3.org/2000/svg"><path fill-rule="evenodd" clip-rule="evenodd" d="M139.335 296.044C65.887 338.198 5.292 372.975.501 366.163c-6.29-8.944 65.802-88.509 140.777-171.259 66.324-73.2 134.904-148.891 153.483-180.393 57.243-40.256 47.683 14.698 40.108 58.237-3.412 19.612-6.421 36.909-2.74 42.144 3.9 5.545 22.688 7.209 43.188 9.025 41.812 3.703 90.747 8.038 35.036 47.218-26.529-15.411-162.741 62.765-271.018 124.909zm67.729 44.856c-41.736 23.954-76.169 43.716-78.891 39.845-3.414-4.854 20.381-28.809 47.612-56.222 26.5-26.678 56.253-56.631 67.346-75.44 47.18-33.18 66.752-20.7 73.488-11.122 2.216 3.151 12.892 4.096 24.541 5.128 23.76 2.105 51.567 4.568 19.909 26.832-15.075-8.758-92.477 35.666-154.005 70.979z" fill="#F3F5F9"/></svg>