<svg width="229" height="447" fill="none" xmlns="http://www.w3.org/2000/svg"><path fill-rule="evenodd" clip-rule="evenodd" d="M15.823 84.318C47.848 42.125 74.269 7.315 68.82 1.865c-6.834-6.833-39.38 12.11-76.625 33.789-36.246 21.096-76.941 44.783-102.716 49.82-44.668 44.669-26.788 76.227-13.304 89.711 4.436 4.436 6.057 18.74 7.826 34.349 1.852 16.342 3.866 34.113 9.443 43.485-.561 26.638 12.92 46.299 24.416 57.794 7.136 7.136 9.744 30.147 12.59 55.256 5.803 51.21 12.596 111.146 60.81 62.931-20.246-38.42 75.296-164.298 151.246-264.361 51.518-67.876 94.021-123.874 85.254-132.64-10.992-10.993-63.349 19.481-123.263 54.354C54.99 115.17.323 146.988-40.432 160.897c17.22-25.152 37.68-52.107 56.255-76.579z" fill="#F3F5F9"/></svg>