<svg width="559" height="438" fill="none" xmlns="http://www.w3.org/2000/svg"><path d="M396.961 426.603s12.153-4.484 8.722-1.007c-.461.48-.946.931-1.454 1.348h-36.022l-1.09-2.453-.262-.585-.436-.991 4.361-3.249-4.608 2.762-1.207-3.038.931-10.22-1.454 9.31-.916-2.551-4.026-8.611 6.541 16.247-9.362-4.159 9.755 4.971 1.134 2.567h-38.814c-2.122-.26-5.102-.942-5.64-2.843-.872-2.973 8.242-2.973 8.242-2.973s-9.55-4.484-6.076-5.475c3.474-.991 9.551 2.973 9.551 2.973s-3.475-8.952.857-6.97a8.958 8.958 0 013.035 2.276c.86.984 1.53 2.156 1.966 3.443-.465-1.755-1.337-5.898 1.076-4.712 1.511.851 2.78 2.156 3.663 3.77-1.163-2.665-2.181-6.629 2.907-5.264 0 0-1.061-12.218 10.409-14.444 11.469-2.226 10.859 15.435 14.755 18.928 3.895 3.493 8.722-.504 10.422 3.477 1.701 3.98 1.294 5.978 1.294 5.978s6.513-19.415 7.385-13.939c.379 3.659-.392 7.352-2.181 10.446 0 0 10.423-15.434 8.257-9.455a73.257 73.257 0 01-4.782 10.463s14.318-3.997 12.153-1.495c-2.166 2.502-9.086 5.475-9.086 5.475z" fill="#FF8562"/><path d="M379.677 423.792a63.3 63.3 0 01.508-3.704c.073-.439.146-.894.248-1.381a6.607 6.607 0 002.253 0c.309-.093.598-.257.848-.48.25-.224.456-.503.605-.82a1.376 1.376 0 00-.033-.981 1.237 1.237 0 00-.273-.399 1.073 1.073 0 00-.391-.244c-.887-.26-2.152.942-2.602 1.722 0 0-.306.666-.437.991 0-.293.117-.569.175-.877.058-.309.189-.878.276-1.316.087-.439.131-.455.189-.683.058-.227.131-.438.189-.682l.349-.991a6.83 6.83 0 002.122.373 2.1 2.1 0 00.938-.314c.289-.18.539-.427.734-.725a1.352 1.352 0 00.115-.986 1.258 1.258 0 00-.218-.445 1.12 1.12 0 00-.362-.308c-.843-.406-2.253.569-2.806 1.267l-.232.374.392-.975c.393-.926.829-1.836 1.25-2.762l.262-.585c.699.259 1.43.391 2.166.39.331-.021.654-.124.946-.301.291-.177.544-.423.74-.722a1.36 1.36 0 00.109-.99 1.247 1.247 0 00-.223-.444 1.108 1.108 0 00-.365-.305c-.844-.406-2.254.569-2.791 1.251 0 0-.146.212-.277.439.233-.52.451-1.023.64-1.527a21.71 21.71 0 00.901-2.697c.724.26 1.479.397 2.239.406.329-.021.65-.124.939-.301a2.33 2.33 0 00.733-.723 1.349 1.349 0 00.114-.985 1.258 1.258 0 00-.218-.445 1.11 1.11 0 00-.362-.308c-.843-.406-2.253.569-2.805 1.251l-.611.991c.211-.912.357-1.841.436-2.778.067-.843.091-1.689.073-2.535 0-.779-.073-1.494-.116-2.112 0-.341 0-.666-.102-.942 0 0 .334-1.186.349-1.251.145-.91 0-2.746-.872-3.249a1.001 1.001 0 00-.855 0 1.086 1.086 0 00-.361.274 1.251 1.251 0 00-.238.408 2.85 2.85 0 00-.038 1.089c.058.361.185.705.372 1.007a7.4 7.4 0 001.643 1.625c0 .308 0 .633.087.991 0 .633.073 1.348.073 2.112v.65c0-.358-.145-.862-.16-.91-.247-.878-1.192-2.405-2.108-2.405a.974.974 0 00-.443.11c-.14.071-.264.175-.364.304a1.244 1.244 0 00-.219.445 1.326 1.326 0 00-.035.506c.074.36.216.699.417.993.2.294.455.537.746.713.684.331 1.41.539 2.151.617 0 .488 0 .975-.087 1.479-.09.93-.256 1.849-.494 2.745v.147c0-.179-.073-1.203-.087-1.284-.16-.893-.945-2.534-1.861-2.648a.976.976 0 00-.45.059 1.048 1.048 0 00-.388.261c-.112.117-.2.259-.258.416a1.318 1.318 0 00-.081.499c.032.367.136.721.304 1.039.168.317.397.589.67.797a7.233 7.233 0 002.136.893c-.254.883-.56 1.745-.915 2.583-.262.634-.553 1.251-.844 1.869 0-.244-.072-1.202-.087-1.267-.16-.894-.945-2.535-1.846-2.649a.983.983 0 00-.452.059 1.08 1.08 0 00-.391.261 1.21 1.21 0 00-.262.416c-.06.157-.09.328-.087.499.035.366.142.719.312 1.033.171.315.402.583.677.787a6.756 6.756 0 002.122.91c-.145.276-.276.552-.407.828-.436.926-.887 1.836-1.308 2.746-.131.325-.262.633-.407.958 0-.357 0-1.023-.073-1.088-.16-.894-.945-2.535-1.861-2.648a.963.963 0 00-.45.059 1.056 1.056 0 00-.388.261 1.21 1.21 0 00-.258.416 1.336 1.336 0 00-.081.498c.031.369.137.726.308 1.043.171.318.403.589.68.793a6.849 6.849 0 002.035.878 21.75 21.75 0 00-.596 1.624c-.072.244-.16.471-.218.699l-.189.682c-.116.471-.232.894-.32 1.333-.087.438-.101.438-.145.649v-1.007c0-.926-.581-2.664-1.454-2.941a.972.972 0 00-.876.173 1.145 1.145 0 00-.313.369c-.08.147-.13.312-.148.482-.017.37.04.739.165 1.082.126.342.318.65.562.9.599.512 1.26.927 1.962 1.235-.116.52-.218 1.04-.305 1.527a61.781 61.781 0 00-.581 3.721c-.117.893-.175 1.429-.175 1.429a.412.412 0 00.013.14.361.361 0 00.157.211.297.297 0 00.356-.042.364.364 0 00.114-.244s0-.487.16-1.381z" fill="#FF8562"/><path d="M386.233 399.422a7.254 7.254 0 002.282-.26c.311-.123.595-.32.831-.578.236-.259.419-.571.536-.917a1.307 1.307 0 00-.121-.98 1.152 1.152 0 00-.316-.362 1.025 1.025 0 00-.421-.185c-.916-.146-2.05 1.202-2.399 2.031-.029.081-.407 1.251-.392 1.251zm-7.501 24.354a123.1 123.1 0 01-1.454-3.396 37.62 37.62 0 01-.48-1.299 7.61 7.61 0 001.89-1.365 2.64 2.64 0 00.512-.939c.108-.35.146-.723.113-1.092a1.288 1.288 0 00-.183-.488 1.152 1.152 0 00-.35-.355.99.99 0 00-.92-.083c-.873.325-1.323 2.112-1.309 3.022 0 0 0 .764.117 1.105-.088-.276-.189-.536-.291-.829a36.346 36.346 0 01-.407-1.283l-.189-.667c-.073-.227-.117-.454-.175-.698-.058-.244-.13-.682-.203-1.04a6.63 6.63 0 001.948-.991 2.55 2.55 0 00.636-.841c.155-.328.246-.689.265-1.06a1.325 1.325 0 00-.113-.491 1.206 1.206 0 00-.282-.397 1.045 1.045 0 00-.402-.234.968.968 0 00-.453-.031c-.916.178-1.599 1.852-1.715 2.762v.455c0-.342-.117-.683-.16-1.04-.117-1.008-.218-2.047-.32-3.071 0-.227 0-.439-.073-.65a7.056 7.056 0 002.021-1.007 2.6 2.6 0 00.624-.845c.153-.328.242-.687.262-1.056a1.325 1.325 0 00-.113-.491 1.206 1.206 0 00-.282-.397 1.045 1.045 0 00-.402-.234.98.98 0 00-.453-.032c-.915.179-1.599 1.853-1.715 2.762v.537c0-.569-.131-1.121-.218-1.625a23.98 23.98 0 00-.582-2.795 7.276 7.276 0 002.065-1.039c.265-.223.482-.51.636-.839.153-.328.239-.692.25-1.062a1.325 1.325 0 00-.113-.491 1.195 1.195 0 00-.282-.397 1.06 1.06 0 00-.402-.235.993.993 0 00-.453-.031c-.901.179-1.599 1.869-1.701 2.778v1.203a16.44 16.44 0 00-1.003-2.584 21.775 21.775 0 00-1.177-2.144c-.393-.65-.8-1.202-1.148-1.706l-.553-.731s-.305-1.186-.334-1.268c-.335-.828-1.454-2.242-2.326-2.144a1 1 0 00-.427.17 1.134 1.134 0 00-.329.349 1.318 1.318 0 00-.173.469c-.027.168-.023.341.013.507.098.361.266.695.492.975.226.281.505.503.816.649a6.567 6.567 0 002.195.358l.553.78c.349.503.727 1.072 1.105 1.722.101.162.203.357.305.536l-.582-.65c-.639-.585-2.18-1.283-2.907-.715a1.182 1.182 0 00-.307.368 1.341 1.341 0 00-.111.977c.043.163.116.313.215.442.238.259.524.458.838.581.314.123.648.169.979.134a6.984 6.984 0 002.108-.812c.218.406.436.828.639 1.3.387.82.704 1.679.945 2.567a.731.731 0 010 .162 25.025 25.025 0 00-.698-1.007c-.581-.65-2.035-1.544-2.907-1.073-.134.082-.25.194-.343.329a1.3 1.3 0 00-.194.455 1.356 1.356 0 00.159.971c.21.287.473.519.772.679.299.16.626.245.958.247a6.629 6.629 0 002.224-.568c.224.896.394 1.808.509 2.729.087.682.16 1.365.218 2.063l-.698-.991c-.581-.666-2.035-1.624-2.907-1.072a1.13 1.13 0 00-.347.325 1.29 1.29 0 00-.198.455 1.324 1.324 0 00.152.975c.21.286.474.517.773.677.299.16.626.245.957.249a6.709 6.709 0 002.21-.553l.087.943c.087 1.023.16 2.063.262 3.087l.13 1.056c-.189-.293-.567-.813-.596-.861-.581-.65-2.035-1.528-2.907-1.073-.132.085-.248.2-.339.336a1.325 1.325 0 00-.192.459 1.41 1.41 0 00-.014.506c.027.168.083.328.167.47.212.283.477.51.776.667.298.157.624.24.954.243a6.336 6.336 0 002.137-.52c.087.569.174 1.154.291 1.706 0 .244.101.488.159.715l.175.682.392 1.316c0 .212.146.407.204.618-.16-.325-.422-.845-.451-.878-.479-.747-1.802-1.868-2.674-1.543a1.082 1.082 0 00-.37.263 1.23 1.23 0 00-.247.403 1.345 1.345 0 00.006.959c.17.316.4.588.674.796.274.207.584.346.91.406a6.328 6.328 0 002.254-.179c.16.52.334 1.007.494 1.462a67.095 67.095 0 001.352 3.477c.349.829.567 1.3.567 1.3a.346.346 0 00.191.174.28.28 0 00.125.013.277.277 0 00.12-.041.341.341 0 00.156-.213.404.404 0 00-.025-.274s-.015-.553-.378-1.365z" fill="#FF8562"/><path d="M372.248 399.406a7.732 7.732 0 001.774-1.625c.199-.292.339-.63.41-.989a2.82 2.82 0 00-.003-1.091 1.244 1.244 0 00-.219-.436 1.09 1.09 0 00-.359-.299.976.976 0 00-.876-.012c-.843.439-1.105 2.258-1.003 3.249-.073 0 .189 1.219.276 1.203zm172.029 27.1s15.497-5.703 11.135-1.268c-.77.764-1.366 1.3-1.86 1.625h-45.878l-1.454-3.119-.335-.764-.552-1.267 5.495-4.224-5.815 3.509-1.541-3.883 1.192-12.998-1.875 11.893-1.134-3.249-5.131-10.983 8.344 20.65-11.949-5.313 12.458 6.499 1.453 3.249h-49.483c-2.689-.325-6.498-1.202-7.268-3.623-1.105-3.802 10.524-3.802 10.524-3.802s-12.182-5.719-7.748-6.986c4.434-1.267 12.182 3.802 12.182 3.802s-4.434-11.373 1.105-8.887a11.306 11.306 0 013.869 2.89 12.9 12.9 0 012.498 4.388c-.582-2.242-1.701-7.522 1.454-6.011 1.927 1.113 3.542 2.8 4.666 4.874-1.454-3.396-2.777-8.448 3.634-6.71 0 0-1.352-15.581 13.287-18.424 14.638-2.843 13.853 19.691 18.825 24.143 4.972 4.452 11.077-.65 13.301 4.435 2.224 5.086 1.657 7.62 1.657 7.62s8.301-24.76 9.406-17.774c1.105 6.986-2.762 13.339-2.762 13.339s13.286-19.691 10.524-12.072a93.294 93.294 0 01-6.091 13.339s18.273-5.085 15.497-1.901c-2.777 3.185-11.63 7.003-11.63 7.003z" fill="#FF8562"/><path d="M522.312 422.915c.131-1.137.334-2.778.654-4.712a51.13 51.13 0 01.306-1.771 8.598 8.598 0 002.907 0 2.77 2.77 0 001.125-.576c.334-.281.609-.638.808-1.048.065-.202.093-.416.083-.629a1.773 1.773 0 00-.139-.617 1.641 1.641 0 00-.341-.51 1.43 1.43 0 00-.489-.324c-1.134-.341-2.748 1.202-3.315 2.177 0 0-.392.861-.567 1.284l.218-1.121c.117-.536.247-1.121.364-1.625.087-.292.16-.585.232-.877.073-.293.175-.569.247-.861.073-.293.291-.862.451-1.284a7.897 7.897 0 002.704.488 2.702 2.702 0 001.2-.403c.369-.23.689-.547.937-.93a1.804 1.804 0 00.114-1.243 1.704 1.704 0 00-.269-.563 1.494 1.494 0 00-.441-.403c-1.076-.52-2.908.731-3.576 1.624l-.306.472c.16-.407.32-.829.509-1.235.494-1.17 1.047-2.356 1.585-3.526.116-.244.218-.503.334-.747a8.62 8.62 0 002.777.503c.42-.033.829-.168 1.198-.395a3.03 3.03 0 00.939-.921 1.78 1.78 0 00.168-.609 1.828 1.828 0 00-.054-.634 1.69 1.69 0 00-.269-.562 1.511 1.511 0 00-.441-.404c-1.076-.52-2.908.715-3.576 1.625l-.349.552c.29-.65.567-1.3.828-1.95a28.544 28.544 0 001.134-3.428c.94.335 1.92.511 2.907.52a2.683 2.683 0 001.198-.395 3.03 3.03 0 00.939-.921 1.79 1.79 0 00.108-1.247 1.66 1.66 0 00-.273-.562 1.485 1.485 0 00-.445-.4c-1.076-.52-2.908.714-3.562 1.624l-.785 1.268c.278-1.16.463-2.346.553-3.542a30.64 30.64 0 00.101-3.25c0-1.007-.087-1.917-.159-2.713 0-.439-.073-.828-.117-1.202 0 0 .422-1.511.436-1.625.189-1.17-.072-3.509-1.104-4.127a1.325 1.325 0 00-1.121-.017 1.45 1.45 0 00-.478.35c-.137.151-.246.33-.32.528-.11.457-.129.935-.056 1.401.073.466.236.908.477 1.296a9.696 9.696 0 002.094 2.113c0 .389.072.796.101 1.251 0 .812.102 1.722.102 2.713v.828a38.625 38.625 0 00-.203-1.169c-.306-1.121-1.454-3.071-2.675-3.087-.193.014-.38.071-.553.167a1.5 1.5 0 00-.452.394 1.686 1.686 0 00-.281.558 1.81 1.81 0 00-.066.635c.087.459.262.891.513 1.267.251.376.572.686.941.91.873.422 1.8.691 2.747.797 0 .617 0 1.234-.131 1.884a20.631 20.631 0 01-.625 3.493v.195c0-.243-.087-1.543-.116-1.624-.204-1.138-1.192-3.25-2.355-3.38a1.38 1.38 0 00-1.028.476 1.726 1.726 0 00-.426 1.149c.045.468.179.919.395 1.323.216.404.508.751.855 1.016.85.533 1.767.922 2.719 1.154a31.032 31.032 0 01-1.163 3.249 38.078 38.078 0 01-1.076 2.372c0-.324-.102-1.527-.116-1.624-.204-1.138-1.192-3.25-2.355-3.38a1.313 1.313 0 00-.579.1 1.435 1.435 0 00-.496.347 1.622 1.622 0 00-.334.537 1.79 1.79 0 00-.118.641c.047.469.184.922.402 1.326.218.404.513.75.863 1.014a9.454 9.454 0 002.704 1.153l-.509 1.072a151.257 151.257 0 00-1.672 3.494 44.93 44.93 0 00-.508 1.218c0-.471-.102-1.316-.102-1.381-.204-1.153-1.207-3.249-2.37-3.396-.385 0-.755.172-1.027.476a1.726 1.726 0 00-.426 1.149c.042.471.176.926.392 1.332.216.407.509.757.858 1.024.816.517 1.699.89 2.617 1.105a38.411 38.411 0 00-.771 2.047c-.102.292-.203.601-.276.893-.073.293-.175.569-.247.862-.146.601-.291 1.153-.407 1.705 0 .293-.117.553-.175.829 0-.471.073-1.235.073-1.3 0-1.169-.741-3.395-1.875-3.753a1.304 1.304 0 00-.573.001 1.373 1.373 0 00-.529.248c-.159.12-.296.276-.401.456a1.737 1.737 0 00-.213.595c-.019.473.054.944.215 1.382.161.438.405.831.716 1.153a9.729 9.729 0 002.5 1.624c-.131.666-.276 1.332-.378 1.95a100.43 100.43 0 00-.756 4.744 27.699 27.699 0 00-.203 1.82.506.506 0 00.097.337.41.41 0 00.281.166.387.387 0 00.306-.103.484.484 0 00.144-.319s-.189-.894-.058-2.031z" fill="#FF8562"/><path d="M530.7 391.835a8.921 8.921 0 002.907-.342 2.876 2.876 0 001.059-.736c.301-.328.535-.725.686-1.164a1.83 1.83 0 00.022-.639 1.723 1.723 0 00-.2-.599 1.557 1.557 0 00-.391-.467 1.373 1.373 0 00-.522-.261c-1.163-.179-2.616 1.624-3.067 2.599-.058.098-.494 1.592-.494 1.609zm-9.58 31.08a72.09 72.09 0 01-1.788-4.354 66.368 66.368 0 01-.611-1.625 9.744 9.744 0 002.414-1.738c.29-.341.511-.749.646-1.195.136-.446.183-.92.139-1.388a1.724 1.724 0 00-.243-.578 1.517 1.517 0 00-.423-.429 1.368 1.368 0 00-.538-.214 1.294 1.294 0 00-.57.035c-1.105.422-1.686 2.696-1.672 3.866 0 0 .102.959.16 1.398-.131-.342-.247-.683-.378-1.057-.131-.373-.349-1.088-.523-1.624-.174-.536-.16-.585-.233-.861a9.62 9.62 0 01-.218-.878c-.101-.438-.174-.893-.261-1.348a8.678 8.678 0 002.485-1.267 3.2 3.2 0 00.806-1.071 3.54 3.54 0 00.328-1.35 1.775 1.775 0 00-.16-.616 1.62 1.62 0 00-.362-.499 1.417 1.417 0 00-.505-.303 1.325 1.325 0 00-.572-.061c-1.148.228-2.035 2.389-2.18 3.542v.585c-.073-.455-.146-.893-.204-1.348-.145-1.284-.276-2.6-.407-3.916l-.087-.829a8.446 8.446 0 002.558-1.283 3.19 3.19 0 00.806-1.071c.196-.418.308-.878.328-1.35a1.764 1.764 0 00-.159-.612 1.622 1.622 0 00-.357-.496 1.421 1.421 0 00-.501-.304 1.303 1.303 0 00-.567-.066c-1.163.227-2.05 2.372-2.195 3.542v.666a96.374 96.374 0 00-.276-2.129c-.183-1.207-.43-2.4-.742-3.574a9.069 9.069 0 002.631-1.316 3.19 3.19 0 00.806-1.071c.196-.418.308-.878.328-1.35a1.764 1.764 0 00-.159-.612 1.622 1.622 0 00-.357-.496 1.421 1.421 0 00-.501-.304 1.305 1.305 0 00-.567-.066c-1.163.227-2.05 2.388-2.195 3.542v1.543a22.462 22.462 0 00-1.294-3.249 27.266 27.266 0 00-1.454-2.73c-.494-.828-1.003-1.543-1.453-2.177l-.698-.926s-.407-1.527-.436-1.625c-.422-1.072-1.788-2.859-2.908-2.729-.193.023-.38.093-.547.204a1.43 1.43 0 00-.421.44 1.676 1.676 0 00-.195 1.24c.132.449.35.861.639 1.206a2.92 2.92 0 001.033.793 8.442 8.442 0 002.791.471c.218.292.465.617.712.975.437.65.931 1.365 1.454 2.209.131.212.262.455.393.699a28.756 28.756 0 00-.742-.861c-.814-.731-2.776-1.625-3.765-.91-.152.131-.28.294-.376.48a1.794 1.794 0 00-.142 1.241c.051.207.138.401.257.57.302.33.666.583 1.065.74.399.157.825.215 1.246.17a8.909 8.909 0 002.689-1.024c.276.52.567 1.056.829 1.625a20.846 20.846 0 011.192 3.249v.195a54.453 54.453 0 00-.901-1.283c-.742-.845-2.603-1.966-3.649-1.381-.166.111-.31.259-.424.433a1.734 1.734 0 00-.241.583 1.823 1.823 0 00-.019.642c.031.213.101.417.204.6.269.361.604.652.983.854.379.202.792.31 1.212.316a8.797 8.797 0 002.835-.715c.289 1.141.508 2.302.654 3.477.116.861.203 1.738.276 2.632-.16-.26-.828-1.219-.887-1.267-.741-.845-2.602-1.966-3.648-1.381a1.51 1.51 0 00-.424.433 1.734 1.734 0 00-.241.583c-.044.21-.051.429-.019.642.031.213.101.417.204.6.27.362.608.655.989.857a2.66 2.66 0 001.221.313 8.71 8.71 0 002.82-.715c0 .406 0 .812.101 1.218.102 1.316.204 2.632.335 3.948 0 .439.102.878.174 1.333l-.77-1.089c-.742-.829-2.602-1.966-3.649-1.365a1.528 1.528 0 00-.419.432 1.695 1.695 0 00-.238.578 1.812 1.812 0 00-.022.636c.031.211.098.414.199.596.268.364.602.658.981.863.379.205.794.315 1.214.323a8.538 8.538 0 002.733-.682c.102.731.218 1.462.364 2.177.072.309.131.617.203.91l.233.877c.174.585.334 1.138.509 1.625 0 .276.16.536.247.796a40.54 40.54 0 00-.567-1.121c-.611-.959-2.312-2.388-3.416-1.982a1.456 1.456 0 00-.478.355 1.654 1.654 0 00-.317.533 1.79 1.79 0 00.01 1.256c.216.406.509.755.858 1.021a2.74 2.74 0 001.162.523 8.746 8.746 0 002.908-.228l.639 1.869a85.584 85.584 0 001.73 4.419c.451 1.056.712 1.625.712 1.625a.435.435 0 00.245.211.383.383 0 00.308-.033.479.479 0 00.198-.278.534.534 0 00-.024-.355s-.45-.536-.901-1.56z" fill="#FF8562"/><path d="M512.747 391.818a10.85 10.85 0 002.268-2.079c.252-.377.428-.81.516-1.27.088-.46.085-.936-.008-1.395a1.662 1.662 0 00-.297-.542 1.485 1.485 0 00-.462-.373 1.32 1.32 0 00-1.116-.043c-1.061.568-1.454 2.892-1.279 4.061.014.098.363 1.641.378 1.641zm-106.134 34.85s-9.579-3.493-6.846-.764c.479.455.857.797 1.163 1.04h28.332l.857-1.901.204-.471.349-.78-3.402-2.583 3.591 2.145.945-2.372-.727-7.978 1.163 7.279.698-1.95 3.169-6.726-5.161 12.64 7.385-3.249-7.69 3.948-.901 1.998h30.643c1.672-.195 4.012-.731 4.448-2.209.684-2.34-6.497-2.34-6.497-2.34s7.53-3.493 4.782-4.273c-2.747-.78-7.53 2.34-7.53 2.34s2.747-7.003-.683-5.443a6.948 6.948 0 00-2.388 1.764 7.93 7.93 0 00-1.552 2.688c.364-1.365 1.047-4.598-.857-3.672-1.189.669-2.193 1.685-2.908 2.941.916-2.08 1.73-5.167-2.238-4.111.205-2.705-.538-5.394-2.074-7.498-1.535-2.104-3.742-3.458-6.154-3.777-9.042-1.739-8.562 12.055-11.63 14.768-3.067 2.713-6.847-.39-8.213 2.73a8.488 8.488 0 00-1.032 4.663s-5.132-15.159-5.815-10.886c-.294 2.849.313 5.723 1.715 8.124 0 0-8.227-12.039-6.512-7.377a56.434 56.434 0 003.765 8.124s-11.295-3.103-9.58-1.17c1.716 1.934 7.181 4.338 7.181 4.338z" fill="#FF8562"/><path d="M453.785 424.491c0-.699-.203-1.625-.392-2.892 0-.341-.131-.715-.204-1.089a5.077 5.077 0 01-1.773 0 1.703 1.703 0 01-.697-.365 1.946 1.946 0 01-.495-.658 1.013 1.013 0 01.014-.776.922.922 0 01.221-.312.791.791 0 01.317-.179c.698-.212 1.687.731 2.036 1.332.128.253.244.513.348.78l-.13-.683-.218-1.023-.146-.536c0-.179-.102-.358-.16-.537a16.05 16.05 0 00-.276-.779 5.151 5.151 0 01-1.672.292 1.635 1.635 0 01-.742-.241 1.85 1.85 0 01-.581-.571 1.031 1.031 0 01-.083-.77.996.996 0 01.175-.345c.08-.1.177-.179.286-.234.669-.325 1.774.439 2.21.975l.189.292c-.102-.243-.204-.503-.32-.747a68.481 68.481 0 00-.974-2.161l-.218-.455a5.341 5.341 0 01-1.715.309 1.69 1.69 0 01-.741-.245 1.905 1.905 0 01-.582-.567 1.062 1.062 0 01-.035-.71.936.936 0 01.413-.541c.669-.325 1.773.438 2.209.974 0 0 .102.179.219.342-.189-.39-.349-.796-.509-1.186a17.3 17.3 0 01-.713-2.112 5.391 5.391 0 01-1.758.325 1.63 1.63 0 01-.745-.238 1.823 1.823 0 01-.578-.575 1.02 1.02 0 01.081-1.111.863.863 0 01.282-.237c.669-.325 1.788.438 2.21.974l.479.78a13.38 13.38 0 01-.348-2.177v-1.966c0-.617 0-1.169.087-1.624l.087-.731s-.262-.927-.276-.992c-.102-.698 0-2.128.698-2.502a.769.769 0 01.693-.037.834.834 0 01.296.22.986.986 0 01.188.337c.066.275.079.563.036.843a2.105 2.105 0 01-.283.782 6.082 6.082 0 01-1.308 1.3v.763c0 .277-.073 1.056 0 1.625v.504c0-.276.116-.683.13-.715.204-.682.945-1.868 1.658-1.885.12.002.239.031.349.087a.884.884 0 01.286.239c.08.101.14.22.175.349.036.128.047.264.033.398-.058.282-.17.548-.328.777-.158.23-.359.419-.588.555a5.316 5.316 0 01-1.701.487v1.154c.072.726.203 1.444.393 2.144a.435.435 0 000 .114c0-.146 0-.942.072-1.007.131-.699.742-1.966 1.454-2.064a.781.781 0 01.351.049.853.853 0 01.303.202c.087.09.157.199.205.321.047.122.072.254.071.387a2.108 2.108 0 01-.241.812 1.878 1.878 0 01-.529.618 5.866 5.866 0 01-1.686.715c.198.69.441 1.363.726 2.014.204.488.422.959.655 1.446 0-.195 0-.926.072-.991.131-.699.742-1.966 1.454-2.063a.767.767 0 01.351.048.844.844 0 01.303.202c.088.09.157.2.205.322.047.122.072.253.071.386a2.102 2.102 0 01-.241.812 1.878 1.878 0 01-.529.618 5.382 5.382 0 01-1.686.699l.319.666c.349.715.698 1.429 1.033 2.144.116.244.218.488.319.731v-.828c.131-.715.756-1.982 1.454-2.08a.76.76 0 01.353.043.822.822 0 01.306.202.93.93 0 01.204.324c.047.123.07.256.067.39a2.098 2.098 0 01-.241.811 1.871 1.871 0 01-.529.619 5.223 5.223 0 01-1.614.698c.175.406.335.829.48 1.235l.174.552.146.52c.087.374.174.715.247 1.056.073.341.073.341.116.504v-.796c0-.715.465-2.08 1.163-2.291a.774.774 0 01.69.133c.1.075.185.173.249.287.064.115.106.243.122.376.024.301-.015.605-.113.887a1.99 1.99 0 01-.454.738 6.43 6.43 0 01-1.555.975c.087.406.175.812.247 1.186.218 1.202.364 2.209.451 2.908.087.698.145 1.121.145 1.121a.33.33 0 01-.065.203.273.273 0 01-.167.106.231.231 0 01-.189-.063.28.28 0 01-.062-.089.31.31 0 01-.026-.108s-.072-.537-.16-1.235z" fill="#FF8562"/><path d="M448.61 405.466a5.79 5.79 0 01-1.802-.211 1.778 1.778 0 01-.653-.453 2.036 2.036 0 01-.423-.717 1.028 1.028 0 01.106-.734.913.913 0 01.235-.273.81.81 0 01.313-.147c.713-.113 1.599.943 1.89 1.625.058 0 .349.91.334.91zm5.917 19.009c.291-.634.683-1.544 1.105-2.649.13-.324.247-.666.378-1.023a5.816 5.816 0 01-1.454-1.072 2.027 2.027 0 01-.406-.751 2.185 2.185 0 01-.074-.874c.023-.131.071-.256.14-.365a.91.91 0 01.26-.271.792.792 0 01.69-.095c.684.26 1.047 1.624 1.047 2.372 0 0-.073.585-.102.861l.218-.65c.117-.325.233-.666.335-.991l.145-.536c0-.179.087-.358.131-.536.044-.179.116-.536.16-.813a5.568 5.568 0 01-1.454-.779 2.001 2.001 0 01-.499-.654 2.198 2.198 0 01-.213-.825c.007-.134.038-.265.093-.385a.947.947 0 01.223-.311.796.796 0 01.672-.214c.713.146 1.265 1.462 1.352 2.161v.357c0-.259.088-.536.117-.812.101-.796.174-1.625.261-2.404v-.504a5.513 5.513 0 01-1.584-.78 1.983 1.983 0 01-.494-.663 2.205 2.205 0 01-.204-.832c.007-.133.038-.264.093-.383a.937.937 0 01.224-.308.82.82 0 01.317-.181.758.758 0 01.354-.021c.713.146 1.265 1.446 1.352 2.161v.406c0-.439.102-.861.175-1.3.104-.737.254-1.464.45-2.177a5.63 5.63 0 01-1.628-.812 1.906 1.906 0 01-.497-.652 2.126 2.126 0 01-.2-.827 1.05 1.05 0 01.087-.384.966.966 0 01.219-.312.832.832 0 01.314-.185.773.773 0 01.354-.029c.726.147 1.264 1.463 1.351 2.177v.943a12.81 12.81 0 01.8-2.015c.283-.56.594-1.103.93-1.625.306-.503.625-.942.902-1.332l.436-.569s.247-.926.261-.991c.262-.649 1.105-1.754 1.832-1.624a.786.786 0 01.336.125c.102.068.191.16.26.269a1.05 1.05 0 01.131.759c-.08.276-.214.529-.393.74a1.748 1.748 0 01-.639.479 5.366 5.366 0 01-1.73.292 6.481 6.481 0 00-.436.601c-.314.431-.605.881-.872 1.349a3.855 3.855 0 00-.248.422l.466-.52c.494-.455 1.715-.991 2.326-.552a.912.912 0 01.243.286c.062.114.102.241.117.372.015.132.005.267-.029.394a.973.973 0 01-.172.345c-.192.204-.421.36-.672.455a1.656 1.656 0 01-.781.098 5.33 5.33 0 01-1.672-.634c-.174.325-.349.65-.509 1.007-.299.646-.547 1.32-.741 2.015v.13l.552-.796c.451-.504 1.614-1.186 2.253-.829a.882.882 0 01.272.252 1.044 1.044 0 01.034 1.113 1.859 1.859 0 01-.612.532 1.667 1.667 0 01-.755.199 5.676 5.676 0 01-1.759-.439 16.177 16.177 0 00-.392 2.113c0 .536-.131 1.072-.175 1.624.102-.162.509-.747.553-.78.45-.52 1.599-1.202 2.253-.844.106.062.199.15.273.256a1.013 1.013 0 01.159.759.989.989 0 01-.141.365 1.808 1.808 0 01-.606.525 1.624 1.624 0 01-.746.19 5.04 5.04 0 01-1.745-.438v.747c0 .812-.13 1.625-.203 2.405 0 .276 0 .552-.102.828.145-.227.436-.633.465-.666.465-.504 1.614-1.202 2.253-.845a.87.87 0 01.277.254.993.993 0 01.158.359c.029.131.032.267.01.4-.022.132-.07.258-.139.368a1.829 1.829 0 01-.613.525 1.643 1.643 0 01-.754.19 5.194 5.194 0 01-1.686-.406c-.055.448-.133.893-.233 1.332 0 .179 0 .374-.116.553l-.145.536-.305 1.023c0 .179-.117.325-.16.488.116-.26.334-.65.348-.683.378-.585 1.454-1.462 2.123-1.202a.845.845 0 01.301.205.946.946 0 01.199.325 1.038 1.038 0 01-.02.77c-.136.248-.318.46-.534.623-.216.162-.46.271-.717.319a5.91 5.91 0 01-1.773-.13c-.131.39-.262.78-.393 1.137a62.197 62.197 0 01-1.075 2.714l-.436 1.007a.257.257 0 01-.059.088.221.221 0 01-.183.062.213.213 0 01-.093-.036.263.263 0 01-.079-.07.307.307 0 01-.023-.32s.059-.423.335-1.056z" fill="#FF8562"/><path d="M459.702 405.45a6.286 6.286 0 01-1.454-1.268 2.05 2.05 0 01-.322-.772 2.162 2.162 0 01.002-.852.995.995 0 01.178-.347c.08-.1.178-.18.287-.235a.795.795 0 01.349-.085c.12 0 .239.028.349.082.655.341.873 1.771.785 2.486.059.097-.16 1.007-.174.991zm-38.915 19.382c0-.536-.146-1.283-.305-2.177 0-.26-.088-.536-.131-.812a4.037 4.037 0 01-1.352 0 1.233 1.233 0 01-.521-.269 1.418 1.418 0 01-.366-.495.766.766 0 01.006-.584.695.695 0 01.164-.236.594.594 0 01.237-.138c.523-.147 1.279.552 1.541 1.007l.262.585c0-.163 0-.341-.102-.504-.102-.162-.116-.52-.174-.78l-.102-.406a3.799 3.799 0 00-.117-.39c0-.195-.13-.39-.203-.601a3.71 3.71 0 01-1.265.227 1.215 1.215 0 01-.553-.178 1.392 1.392 0 01-.435-.423.765.765 0 01-.09-.282.814.814 0 01.022-.299.724.724 0 01.13-.262.646.646 0 01.214-.18c.509-.244 1.337.325 1.657.731l.145.227a6.257 6.257 0 00-.232-.568 41.738 41.738 0 00-.741-1.625l-.146-.341a3.702 3.702 0 01-1.294.227 1.222 1.222 0 01-.561-.175 1.39 1.39 0 01-.442-.426.808.808 0 01-.061-.579.757.757 0 01.128-.261.654.654 0 01.21-.183c.508-.244 1.351.341 1.671.747l.16.244a24.356 24.356 0 01-.378-.894 13.682 13.682 0 01-.538-1.625 4.682 4.682 0 01-1.322.244 1.345 1.345 0 01-.559-.194 1.529 1.529 0 01-.445-.423.791.791 0 01.068-.829.65.65 0 01.209-.179c.508-.243 1.337.325 1.671.731l.364.585a11.208 11.208 0 01-.247-1.624 10.14 10.14 0 010-1.479v-1.803a7.304 7.304 0 01-.204-.748c-.087-.536 0-1.624.509-1.884a.587.587 0 01.528-.027.652.652 0 01.226.164.751.751 0 01.147.253c.05.21.058.429.023.643a1.555 1.555 0 01-.226.592 4.17 4.17 0 01-.974.974v.585a10.6 10.6 0 000 1.235v.39c0-.228.087-.52.102-.536.145-.52.697-1.414 1.25-1.43.09.004.178.028.259.072a.681.681 0 01.212.182.778.778 0 01.154.558 1.698 1.698 0 01-.251.581 1.527 1.527 0 01-.432.427c-.409.188-.84.308-1.28.357-.02.292-.02.585 0 .877.044.551.136 1.095.277 1.625a.269.269 0 010 .098v-.748c.101-.536.552-1.494 1.104-1.624a.562.562 0 01.263.034.642.642 0 01.228.15c.065.068.118.15.153.241.036.091.054.19.054.289a1.59 1.59 0 01-.18.619c-.1.188-.238.349-.401.47a4.308 4.308 0 01-1.265.52c.154.52.333 1.029.538 1.527l.509 1.089v-.748c.101-.52.566-1.494 1.104-1.624.09-.01.181.003.267.035a.637.637 0 01.229.155.725.725 0 01.153.246.776.776 0 01.049.295 1.552 1.552 0 01-.18.611 1.378 1.378 0 01-.401.461 4.094 4.094 0 01-1.251.52c.069.173.147.341.233.504.262.536.523 1.072.771 1.624.087.179.159.374.247.553v-.634c.101-.52.552-1.478 1.104-1.625a.582.582 0 01.267.036.637.637 0 01.229.155.77.77 0 01.202.54c-.02.216-.083.424-.184.609a1.42 1.42 0 01-.397.464 3.694 3.694 0 01-1.221.52c.13.308.261.633.363.942.05.133.094.268.131.406l.116.39c0 .276.131.536.189.796.031.123.056.248.073.374v-.585c0-.552.349-1.625.872-1.738a.583.583 0 01.269-.009.611.611 0 01.249.113c.075.056.139.13.187.215a.791.791 0 01.095.282c.006.218-.03.436-.105.637a1.52 1.52 0 01-.332.532 4.383 4.383 0 01-1.162.732c0 .308.13.601.174.893.174.894.276 1.625.349 2.177.073.553.102.845.102.845a.252.252 0 01-.044.161.201.201 0 01-.131.083.164.164 0 01-.073-.01.19.19 0 01-.111-.106.208.208 0 01-.019-.079s.145-.114.087-.634z" fill="#FF8562"/><path d="M416.891 410.519a4.35 4.35 0 01-1.352-.147 1.43 1.43 0 01-.486-.346 1.634 1.634 0 01-.328-.531.791.791 0 01.082-.578.689.689 0 01.191-.21.594.594 0 01.25-.106c.538-.097 1.207.699 1.454 1.186-.015.049.203.732.189.732zm4.463 14.297c.203-.471.509-1.154.828-1.982.088-.244.189-.504.277-.78a4.503 4.503 0 01-1.12-.796 1.507 1.507 0 01-.301-.547 1.623 1.623 0 01-.062-.639.732.732 0 01.297-.48.587.587 0 01.517-.073c.523.195.799 1.251.785 1.788 0 0 0 .438-.073.649l.175-.487c.087-.244.16-.504.247-.764l.102-.39c.04-.133.074-.268.101-.406l.131-.617a3.868 3.868 0 01-1.163-.585 1.432 1.432 0 01-.374-.486 1.595 1.595 0 01-.149-.619.786.786 0 01.065-.292.691.691 0 01.168-.236.601.601 0 01.508-.154c.538.097.945 1.088 1.018 1.625v.276c0-.211.072-.423.087-.618.087-.601.145-1.202.204-1.803.007-.13.007-.26 0-.39a4.225 4.225 0 01-1.178-.585 1.5 1.5 0 01-.378-.495 1.655 1.655 0 01-.16-.626.8.8 0 01.074-.286.73.73 0 01.168-.231.648.648 0 01.235-.139.595.595 0 01.265-.026c.537.113.959 1.105 1.017 1.624v.309c.029-.333.072-.663.131-.991.083-.548.194-1.091.334-1.625a4.338 4.338 0 01-1.221-.601 1.483 1.483 0 01-.371-.496 1.632 1.632 0 01-.152-.625.781.781 0 01.07-.287.695.695 0 01.168-.23.585.585 0 01.503-.149c.538.098.945 1.089 1.018 1.625v.698a9.825 9.825 0 01.596-1.511c.207-.439.441-.862.698-1.267.232-.374.479-.698.683-.991l.32-.439s.174-.698.189-.731c.203-.503.843-1.332 1.381-1.267a.597.597 0 01.252.1.68.68 0 01.195.204.812.812 0 01.105.573c-.07.203-.175.388-.31.544a1.458 1.458 0 01-.475.366 3.717 3.717 0 01-1.294.211l-.334.455c-.204.293-.436.634-.654 1.008l-.189.325.349-.39c.378-.342 1.293-.748 1.744-.423a.68.68 0 01.186.215.782.782 0 01-.055.841 1.32 1.32 0 01-.496.346 1.213 1.213 0 01-.58.077 4.308 4.308 0 01-1.25-.471c-.131.243-.262.487-.392.763a9.84 9.84 0 00-.553 1.511v.081l.422-.585c.349-.389 1.206-.909 1.701-.633a.67.67 0 01.203.194.771.771 0 01.119.57.762.762 0 01-.104.276 1.378 1.378 0 01-.456.393 1.228 1.228 0 01-.562.143 4.243 4.243 0 01-1.323-.325 13.257 13.257 0 00-.305 1.625l-.131 1.218c.129-.205.269-.401.422-.585.334-.39 1.206-.91 1.686-.633.08.046.151.111.207.191.057.08.097.171.119.27a.797.797 0 01-.094.578 1.383 1.383 0 01-.463.394 1.239 1.239 0 01-.569.142 4.595 4.595 0 01-1.308-.324v.552c0 .601-.102 1.218-.16 1.82 0 .195 0 .406-.073.601l.349-.488c.349-.39 1.207-.909 1.701-.633a.672.672 0 01.204.194.785.785 0 01.014.845c-.124.167-.28.301-.456.394a1.22 1.22 0 01-.561.143 3.997 3.997 0 01-1.28-.309c0 .341-.101.666-.16 1.007a4.224 4.224 0 01-.101.406l-.175.358-.232.763c0 .13-.088.26-.117.374.088-.195.248-.487.262-.52.291-.438 1.076-1.088 1.585-.91a.643.643 0 01.229.157.711.711 0 01.152.247.782.782 0 01-.018.587 1.376 1.376 0 01-.393.47 1.203 1.203 0 01-.537.229c-.448.053-.9.02-1.338-.097l-.305.861a42.4 42.4 0 01-.8 2.031 19.2 19.2 0 01-.334.763.21.21 0 01-.114.106.186.186 0 01-.148-.008.231.231 0 010-.293l.335-.747z" fill="#FF8562"/><path d="M425.235 410.519a4.946 4.946 0 01-1.047-.959 1.531 1.531 0 01-.247-.578 1.609 1.609 0 010-.641.735.735 0 01.132-.26.657.657 0 01.216-.178.572.572 0 01.524 0c.495.26.669 1.332.597 1.868 0 .033-.16.748-.175.748z" fill="#FF8562"/><path d="M558 426.018H374.923v11.064H558v-11.064z" fill="#fff" stroke="#263238" stroke-linecap="round" stroke-linejoin="round"/><path d="M499.62 426.408v6.466m3.78-6.466v3.493m3.779-3.493v3.493m3.78-3.493v8.968m4.535-8.968v4.192" stroke="#263238" stroke-width=".75" stroke-linecap="round" stroke-linejoin="round"/><path d="M471.273 274.499h-42.287v22.697h42.287v-22.697z" fill="#263238" stroke="#263238" stroke-linecap="round" stroke-linejoin="round"/><path d="M471.259 274.499h-14.624v22.697h14.624v-22.697z" fill="#fff" stroke="#263238" stroke-linecap="round" stroke-linejoin="round"/><path d="M412.806 308.715v-45.8H285.885v174.167h210.392V308.715h-83.471z" fill="#FF8562" stroke="#263238" stroke-linecap="round" stroke-linejoin="round"/><path d="M496.277 308.715h-16.849v128.367h16.849V308.715z" fill="#fff" stroke="#263238" stroke-linecap="round" stroke-linejoin="round"/><path d="M496.146 298.935h-83.573v26.466h83.573v-26.466zm-83.384-34.769H329.19v26.467h83.572v-26.467z" fill="#263238" stroke="#263238" stroke-linecap="round" stroke-linejoin="round"/><path d="M418.098 257.797H271.435v26.467h146.663v-26.467zm85.738 35.045h-91.263v26.466h91.263v-26.466z" fill="#fff" stroke="#263238" stroke-linecap="round" stroke-linejoin="round"/><path d="M377.249 258.285v10.463m3.78-10.463v10.463m0 2.827v8.01m3.794-21.3v10.463m0 3.282v7.425m3.518-7.425v4.679m.261-18.424v10.463m4.289-2.648v2.648m.247-10.463v5.946m-15.889 6.629v6.206m39.191 15.906v10.479m3.78-10.479v10.479m0 2.827v8.01m3.779-21.316v10.479m0 3.282v7.409m3.533-7.409v4.679m.247-18.44v10.479m4.288-2.648v2.648m.248-10.479v5.963m-15.875 6.628v6.207" stroke="#263238" stroke-width=".75" stroke-linecap="round" stroke-linejoin="round"/><path d="M406.991 341.095h-27.983v28.4h27.983v-28.4z" fill="#fff"/><path d="M379.008 362.785v5.621l27.983-25.41v-1.901h-4.099m4.099 13.713v-5.622l-22.372 20.325h6.193" fill="#FF8562" opacity=".6"/><path d="M406.991 341.095h-27.983v28.4h27.983v-28.4z" stroke="#263238" stroke-linecap="round" stroke-linejoin="round"/><path d="M406.991 332.923h-27.983v12.348h27.983v-12.348z" fill="#fff" stroke="#263238" stroke-linecap="round" stroke-linejoin="round"/><path d="M446.473 341.095H418.49v28.4h27.983v-28.4z" fill="#fff"/><path d="M442.374 341.095l-23.884 21.69v5.621l27.983-25.41v-1.901h-4.099zm-12.095 28.416l16.194-14.703v-5.622l-22.386 20.325h6.192z" fill="#FF8562" opacity=".6"/><path d="M446.473 341.095H418.49v28.4h27.983v-28.4z" stroke="#263238" stroke-linecap="round" stroke-linejoin="round"/><path d="M446.473 332.923H418.49v12.348h27.983v-12.348z" fill="#fff" stroke="#263238" stroke-linecap="round" stroke-linejoin="round"/><path d="M485.941 341.095h-27.983v28.4h27.983v-28.4z" fill="#fff"/><path d="M481.842 341.095l-23.884 21.69v5.621l27.983-25.41v-1.901h-4.099zm-12.08 28.416l16.179-14.703v-5.622l-22.372 20.325h6.193z" fill="#FF8562" opacity=".6"/><path d="M485.941 341.095h-27.983v28.4h27.983v-28.4z" stroke="#263238" stroke-linecap="round" stroke-linejoin="round"/><path d="M485.941 332.923h-27.983v12.348h27.983v-12.348z" fill="#fff" stroke="#263238" stroke-linecap="round" stroke-linejoin="round"/><path d="M406.991 388.943h-27.983v28.399h27.983v-28.399z" fill="#fff"/><path d="M379.008 410.632v5.606l27.983-25.394v-1.901h-4.099m4.099 13.712v-5.621l-22.372 20.308h6.193" fill="#FF8562" opacity=".6"/><path d="M406.991 388.943h-27.983v28.399h27.983v-28.399z" stroke="#263238" stroke-linecap="round" stroke-linejoin="round"/><path d="M406.991 380.754h-27.983v12.348h27.983v-12.348z" fill="#fff" stroke="#263238" stroke-linecap="round" stroke-linejoin="round"/><path d="M446.473 388.943H418.49v28.399h27.983v-28.399z" fill="#fff"/><path d="M418.49 410.632v5.606l27.983-25.394v-1.901h-4.099m-18.287 28.399h6.192l16.194-14.687v-5.621" fill="#FF8562" opacity=".6"/><path d="M446.473 388.943H418.49v28.399h27.983v-28.399z" stroke="#263238" stroke-linecap="round" stroke-linejoin="round"/><path d="M446.473 380.754H418.49v12.348h27.983v-12.348z" fill="#fff" stroke="#263238" stroke-linecap="round" stroke-linejoin="round"/><path d="M485.941 388.943h-27.983v28.399h27.983v-28.399z" fill="#fff"/><path d="M481.842 388.943l-23.884 21.689v5.606l27.983-25.394v-1.901h-4.099zm-12.08 28.399l16.179-14.687v-5.621l-22.372 20.308h6.193z" fill="#FF8562" opacity=".6"/><path d="M485.941 388.943h-27.983v28.399h27.983v-28.399z" stroke="#263238" stroke-linecap="round" stroke-linejoin="round"/><path d="M485.941 380.754h-27.983v12.348h27.983v-12.348z" fill="#fff" stroke="#263238" stroke-linecap="round" stroke-linejoin="round"/><path d="M75.566 247.123h-32.81v32.559h32.81v-32.559z" fill="#FF8562" stroke="#263238" stroke-linecap="round" stroke-linejoin="round"/><path d="M90.423 247.123h-32.81v32.559h32.81v-32.559zm83.427 43.623H44.457v146.336H173.85V290.746z" fill="#263238" stroke="#263238" stroke-linecap="round" stroke-linejoin="round"/><path d="M173.864 274.759H36.2v26.466h137.664v-26.466zm-36.08-54.703H97.822v41.69h39.962v-41.69z" fill="#263238"/><path d="M117.81 196.481l-24.204 24.403h48.408l-24.204-24.403z" fill="#FF8562" stroke="#263238" stroke-linecap="round" stroke-linejoin="round"/><path d="M142.014 220.884l-24.204-24.403-13.199 24.403h37.403zm-40.093 34.314h-2.805v25.134h2.805v-25.134zm33.726 0h-2.806v25.134h2.806v-25.134zm-18.462 0h-2.806v25.134h2.806v-25.134zm5.219 0h-2.806v25.134h2.806v-25.134z" fill="#263238"/><path d="M56.145 308.715h-6.833v30.528h6.833v-30.528zm0 48.335h-6.833v30.528h6.833V357.05z" fill="#fff" stroke="#263238" stroke-linecap="round" stroke-linejoin="round"/><path d="M373.353 21.892H152.902v415.19h220.451V21.892z" fill="#263238" stroke="#263238" stroke-linecap="round" stroke-linejoin="round"/><path d="M373.353 21.892H246.417v415.19h126.936V21.892z" fill="#fff" stroke="#263238" stroke-linecap="round" stroke-linejoin="round"/><path d="M358.613 21.892h-97.455v415.19h97.455V21.892z" fill="#FF8562" stroke="#263238" stroke-linecap="round" stroke-linejoin="round"/><path d="M373.353 21.892H246.417v28.432h126.936V21.892z" fill="#263238" stroke="#263238" stroke-linecap="round" stroke-linejoin="round"/><path d="M340.718 386.051h-61.665v51.031h61.665v-51.031z" fill="#fff"/><path d="M306.062 402.655l-26.399 26.856v7.295h.422l29.844-30.366v-3.785h-3.867zm-10.001 34.151l13.868-14.119v-7.733l-21.471 21.852h7.603z" fill="#FF8562" opacity=".6"/><path d="M340.718 386.051h-61.665v51.031h61.665v-51.031z" stroke="#263238" stroke-linecap="round" stroke-linejoin="round"/><path d="M340.718 386.051h-30.833v51.031h30.833v-51.031z" fill="#fff"/><path d="M336.328 402.655l-26.399 26.856v7.295h.422l29.844-30.366v-3.785h-3.867zm-10.002 34.151l13.869-14.119v-7.733l-21.471 21.852h7.602z" fill="#FF8562" opacity=".6"/><path d="M340.718 386.051h-30.833v51.031h30.833v-51.031z" stroke="#263238" stroke-linecap="round" stroke-linejoin="round"/><path d="M195.539 68.472h-27.984v28.4h27.984v-28.4z" fill="#fff"/><path d="M195.539 70.373v-1.9h-4.1l-23.884 21.673v5.621m27.984-13.582v-5.622l-22.387 20.309h6.193" fill="#FF8562" opacity=".6"/><path d="M195.539 68.472h-27.984v28.4h27.984v-28.4z" stroke="#263238" stroke-linecap="round" stroke-linejoin="round"/><path d="M195.539 60.284h-27.984V72.63h27.984V60.284z" fill="#fff" stroke="#263238" stroke-linecap="round" stroke-linejoin="round"/><path d="M235.544 68.472h-27.983v28.4h27.983v-28.4z" fill="#fff"/><path d="M207.561 90.146v5.621l27.983-25.394v-1.9h-4.099m4.099 13.712v-5.622l-22.387 20.309h6.193" fill="#FF8562" opacity=".6"/><path d="M235.544 68.472h-27.983v28.4h27.983v-28.4z" stroke="#263238" stroke-linecap="round" stroke-linejoin="round"/><path d="M235.544 60.284h-27.983V72.63h27.983V60.284z" fill="#fff" stroke="#263238" stroke-linecap="round" stroke-linejoin="round"/><path d="M195.539 122.997h-27.984v28.399h27.984v-28.399z" fill="#fff"/><path d="M167.555 144.686v5.605l27.984-25.394v-1.9h-4.1m4.1 13.712v-5.621l-22.387 20.308h6.193" fill="#FF8562" opacity=".6"/><path d="M195.539 122.997h-27.984v28.399h27.984v-28.399z" stroke="#263238" stroke-linecap="round" stroke-linejoin="round"/><path d="M195.539 114.808h-27.984v12.348h27.984v-12.348z" fill="#fff" stroke="#263238" stroke-linecap="round" stroke-linejoin="round"/><path d="M235.544 122.997h-27.983v28.399h27.983v-28.399z" fill="#fff"/><path d="M235.544 124.897v-1.9h-4.099l-23.884 21.689v5.605m5.596 1.105h6.193l16.194-14.687v-5.621" fill="#FF8562" opacity=".6"/><path d="M235.544 122.997h-27.983v28.399h27.983v-28.399z" stroke="#263238" stroke-linecap="round" stroke-linejoin="round"/><path d="M235.544 114.808h-27.983v12.348h27.983v-12.348z" fill="#fff" stroke="#263238" stroke-linecap="round" stroke-linejoin="round"/><path d="M195.539 177.521h-27.984v28.4h27.984v-28.4z" fill="#fff"/><path d="M167.555 199.211v5.621l27.984-25.41v-1.901h-4.1m4.1 13.713v-5.622l-22.387 20.309h6.193" fill="#FF8562" opacity=".6"/><path d="M195.539 177.521h-27.984v28.4h27.984v-28.4z" stroke="#263238" stroke-linecap="round" stroke-linejoin="round"/><path d="M195.539 169.349h-27.984v12.348h27.984v-12.348z" fill="#fff" stroke="#263238" stroke-linecap="round" stroke-linejoin="round"/><path d="M235.544 177.521h-27.983v28.4h27.983v-28.4z" fill="#fff"/><path d="M207.561 199.211v5.621l27.983-25.41v-1.901h-4.099m-18.288 28.4h6.193l16.194-14.687v-5.622" fill="#FF8562" opacity=".6"/><path d="M235.544 177.521h-27.983v28.4h27.983v-28.4z" stroke="#263238" stroke-linecap="round" stroke-linejoin="round"/><path d="M235.544 169.349h-27.983v12.348h27.983v-12.348z" fill="#fff" stroke="#263238" stroke-linecap="round" stroke-linejoin="round"/><path d="M195.539 232.046h-27.984v28.4h27.984v-28.4z" fill="#fff"/><path d="M191.439 232.046l-23.884 21.69v5.621l27.984-25.41v-1.901h-4.1zm-12.094 28.416l16.194-14.703v-5.622l-22.387 20.325h6.193z" fill="#FF8562" opacity=".6"/><path d="M195.539 232.046h-27.984v28.4h27.984v-28.4z" stroke="#263238" stroke-linecap="round" stroke-linejoin="round"/><path d="M195.539 223.874h-27.984v12.347h27.984v-12.347z" fill="#fff" stroke="#263238" stroke-linecap="round" stroke-linejoin="round"/><path d="M235.544 232.046h-27.983v28.4h27.983v-28.4z" fill="#fff"/><path d="M207.561 253.736v5.621l27.983-25.41v-1.901h-4.099m-18.288 28.416h6.193l16.194-14.703v-5.622" fill="#FF8562" opacity=".6"/><path d="M235.544 232.046h-27.983v28.4h27.983v-28.4z" stroke="#263238" stroke-linecap="round" stroke-linejoin="round"/><path d="M235.544 223.874h-27.983v12.347h27.983v-12.347z" fill="#fff" stroke="#263238" stroke-linecap="round" stroke-linejoin="round"/><path d="M195.539 286.571h-27.984v28.399h27.984v-28.399z" fill="#fff"/><path d="M191.439 286.571l-23.884 21.689v5.622l27.984-25.41v-1.901h-4.1zm-12.094 28.416l16.194-14.704v-5.621l-22.387 20.325h6.193z" fill="#FF8562" opacity=".6"/><path d="M195.539 286.571h-27.984v28.399h27.984v-28.399z" stroke="#263238" stroke-linecap="round" stroke-linejoin="round"/><path d="M195.539 278.399h-27.984v12.347h27.984v-12.347z" fill="#fff" stroke="#263238" stroke-linecap="round" stroke-linejoin="round"/><path d="M235.544 286.571h-27.983v28.399h27.983v-28.399z" fill="#fff"/><path d="M231.445 286.571l-23.884 21.689v5.622l27.983-25.41v-1.901h-4.099zm-12.095 28.416l16.194-14.704v-5.621l-22.387 20.325h6.193z" fill="#FF8562" opacity=".6"/><path d="M235.544 286.571h-27.983v28.399h27.983v-28.399z" stroke="#263238" stroke-linecap="round" stroke-linejoin="round"/><path d="M235.544 278.399h-27.983v12.347h27.983v-12.347z" fill="#fff" stroke="#263238" stroke-linecap="round" stroke-linejoin="round"/><path d="M195.539 341.095h-27.984v28.4h27.984v-28.4z" fill="#fff"/><path d="M191.439 341.095l-23.884 21.69v5.621l27.984-25.41v-1.901h-4.1zm-12.094 28.416l16.194-14.703v-5.622l-22.387 20.325h6.193z" fill="#FF8562" opacity=".6"/><path d="M195.539 341.095h-27.984v28.4h27.984v-28.4z" stroke="#263238" stroke-linecap="round" stroke-linejoin="round"/><path d="M195.539 332.923h-27.984v12.348h27.984v-12.348z" fill="#fff" stroke="#263238" stroke-linecap="round" stroke-linejoin="round"/><path d="M235.544 341.095h-27.983v28.4h27.983v-28.4z" fill="#fff"/><path d="M231.445 341.095l-23.884 21.69v5.621l27.983-25.41v-1.901h-4.099zm-12.095 28.416l16.194-14.703v-5.622l-22.387 20.325h6.193z" fill="#FF8562" opacity=".6"/><path d="M235.544 341.095h-27.983v28.4h27.983v-28.4z" stroke="#263238" stroke-linecap="round" stroke-linejoin="round"/><path d="M235.544 332.923h-27.983v12.348h27.983v-12.348z" fill="#fff" stroke="#263238" stroke-linecap="round" stroke-linejoin="round"/><path d="M284.649 68.472h-27.983v28.4h27.983v-28.4z" fill="#fff"/><path d="M256.666 90.146v5.621l27.983-25.394v-1.9h-4.099m4.099 13.712v-5.622l-22.372 20.309h6.193" fill="#FF8562" opacity=".6"/><path d="M284.649 68.472h-27.983v28.4h27.983v-28.4z" stroke="#263238" stroke-linecap="round" stroke-linejoin="round"/><path d="M284.649 60.284h-27.983V72.63h27.983V60.284z" fill="#fff" stroke="#263238" stroke-linecap="round" stroke-linejoin="round"/><path d="M324.655 68.472h-27.984v28.4h27.984v-28.4z" fill="#fff"/><path d="M324.655 70.373v-1.9h-4.1l-23.884 21.673v5.621m27.984-13.582v-5.622l-22.372 20.309h6.192" fill="#FF8562" opacity=".6"/><path d="M324.655 68.472h-27.984v28.4h27.984v-28.4z" stroke="#263238" stroke-linecap="round" stroke-linejoin="round"/><path d="M324.655 60.284h-27.984V72.63h27.984V60.284z" fill="#fff" stroke="#263238" stroke-linecap="round" stroke-linejoin="round"/><path d="M364.66 68.472h-27.983v28.4h27.983v-28.4z" fill="#fff"/><path d="M336.677 90.146v5.621l27.983-25.394v-1.9h-4.099m-18.273 28.399h6.193l16.179-14.687v-5.622" fill="#FF8562" opacity=".6"/><path d="M364.66 68.472h-27.983v28.4h27.983v-28.4z" stroke="#263238" stroke-linecap="round" stroke-linejoin="round"/><path d="M364.66 60.284h-27.983V72.63h27.983V60.284z" fill="#fff" stroke="#263238" stroke-linecap="round" stroke-linejoin="round"/><path d="M284.649 122.997h-27.983v28.399h27.983v-28.399z" fill="#fff"/><path d="M256.666 144.686v5.605l27.983-25.394v-1.9h-4.099m-18.273 28.399h6.193l16.179-14.687v-5.621" fill="#FF8562" opacity=".6"/><path d="M284.649 122.997h-27.983v28.399h27.983v-28.399z" stroke="#263238" stroke-linecap="round" stroke-linejoin="round"/><path d="M284.649 114.808h-27.983v12.348h27.983v-12.348z" fill="#fff" stroke="#263238" stroke-linecap="round" stroke-linejoin="round"/><path d="M324.655 122.997h-27.984v28.399h27.984v-28.399z" fill="#fff"/><path d="M296.671 144.686v5.605l27.984-25.394v-1.9h-4.1m-18.272 28.399h6.192l16.18-14.687v-5.621" fill="#FF8562" opacity=".6"/><path d="M324.655 122.997h-27.984v28.399h27.984v-28.399z" stroke="#263238" stroke-linecap="round" stroke-linejoin="round"/><path d="M324.655 114.808h-27.984v12.348h27.984v-12.348z" fill="#fff" stroke="#263238" stroke-linecap="round" stroke-linejoin="round"/><path d="M364.66 122.997h-27.983v28.399h27.983v-28.399z" fill="#fff"/><path d="M336.677 144.686v5.605l27.983-25.394v-1.9h-4.099m4.099 13.712v-5.621l-22.372 20.308h6.193" fill="#FF8562" opacity=".6"/><path d="M364.66 122.997h-27.983v28.399h27.983v-28.399z" stroke="#263238" stroke-linecap="round" stroke-linejoin="round"/><path d="M364.66 114.808h-27.983v12.348h27.983v-12.348z" fill="#fff" stroke="#263238" stroke-linecap="round" stroke-linejoin="round"/><path d="M284.649 177.521h-27.983v28.4h27.983v-28.4z" fill="#fff"/><path d="M256.666 199.211v5.621l27.983-25.41v-1.901h-4.099m4.099 13.713v-5.622l-22.372 20.309h6.193" fill="#FF8562" opacity=".6"/><path d="M284.649 177.521h-27.983v28.4h27.983v-28.4z" stroke="#263238" stroke-linecap="round" stroke-linejoin="round"/><path d="M284.649 169.349h-27.983v12.348h27.983v-12.348z" fill="#fff" stroke="#263238" stroke-linecap="round" stroke-linejoin="round"/><path d="M324.655 177.521h-27.984v28.4h27.984v-28.4z" fill="#fff"/><path d="M296.671 199.211v5.621l27.984-25.41v-1.901h-4.1m4.1 13.713v-5.622l-22.372 20.309h6.192" fill="#FF8562" opacity=".6"/><path d="M324.655 177.521h-27.984v28.4h27.984v-28.4z" stroke="#263238" stroke-linecap="round" stroke-linejoin="round"/><path d="M324.655 169.349h-27.984v12.348h27.984v-12.348z" fill="#fff" stroke="#263238" stroke-linecap="round" stroke-linejoin="round"/><path d="M364.66 177.521h-27.983v28.4h27.983v-28.4z" fill="#fff"/><path d="M336.677 199.211v5.621l27.983-25.41v-1.901h-4.099m-18.273 28.4h6.193l16.179-14.687v-5.622" fill="#FF8562" opacity=".6"/><path d="M364.66 177.521h-27.983v28.4h27.983v-28.4z" stroke="#263238" stroke-linecap="round" stroke-linejoin="round"/><path d="M364.66 169.349h-27.983v12.348h27.983v-12.348z" fill="#fff" stroke="#263238" stroke-linecap="round" stroke-linejoin="round"/><path d="M284.649 232.046h-27.983v28.4h27.983v-28.4z" fill="#fff"/><path d="M280.55 232.046l-23.884 21.69v5.621l27.983-25.41v-1.901h-4.099zm-12.08 28.416l16.179-14.703v-5.622l-22.372 20.325h6.193z" fill="#FF8562" opacity=".6"/><path d="M284.649 232.046h-27.983v28.4h27.983v-28.4z" stroke="#263238" stroke-linecap="round" stroke-linejoin="round"/><path d="M284.649 223.874h-27.983v12.347h27.983v-12.347z" fill="#fff" stroke="#263238" stroke-linecap="round" stroke-linejoin="round"/><path d="M324.655 232.046h-27.984v28.4h27.984v-28.4z" fill="#fff"/><path d="M296.671 253.736v5.621l27.984-25.41v-1.901h-4.1m4.1 13.713v-5.622l-22.372 20.325h6.192" fill="#FF8562" opacity=".6"/><path d="M324.655 232.046h-27.984v28.4h27.984v-28.4z" stroke="#263238" stroke-linecap="round" stroke-linejoin="round"/><path d="M324.655 223.874h-27.984v12.347h27.984v-12.347z" fill="#fff" stroke="#263238" stroke-linecap="round" stroke-linejoin="round"/><path d="M364.66 232.046h-27.983v28.4h27.983v-28.4z" fill="#fff"/><path d="M336.677 253.736v5.621l27.983-25.41v-1.901h-4.099m-18.273 28.416h6.193l16.179-14.703v-5.622" fill="#FF8562" opacity=".6"/><path d="M364.66 232.046h-27.983v28.4h27.983v-28.4z" stroke="#263238" stroke-linecap="round" stroke-linejoin="round"/><path d="M364.66 223.874h-27.983v12.347h27.983v-12.347z" fill="#fff" stroke="#263238" stroke-linecap="round" stroke-linejoin="round"/><path d="M284.649 286.571h-27.983v28.399h27.983v-28.399z" fill="#fff"/><path d="M280.55 286.571l-23.884 21.689v5.622l27.983-25.41v-1.901h-4.099zm-12.08 28.416l16.179-14.704v-5.621l-22.372 20.325h6.193z" fill="#FF8562" opacity=".6"/><path d="M284.649 286.571h-27.983v28.399h27.983v-28.399z" stroke="#263238" stroke-linecap="round" stroke-linejoin="round"/><path d="M284.649 278.399h-27.983v12.347h27.983v-12.347z" fill="#fff" stroke="#263238" stroke-linecap="round" stroke-linejoin="round"/><path d="M324.655 286.571h-27.984v28.399h27.984v-28.399z" fill="#fff"/><path d="M320.555 286.571l-23.884 21.689v5.622l27.984-25.41v-1.901h-4.1zm-12.08 28.416l16.18-14.704v-5.621l-22.372 20.325h6.192z" fill="#FF8562" opacity=".6"/><path d="M324.655 286.571h-27.984v28.399h27.984v-28.399z" stroke="#263238" stroke-linecap="round" stroke-linejoin="round"/><path d="M324.655 278.399h-27.984v12.347h27.984v-12.347z" fill="#fff" stroke="#263238" stroke-linecap="round" stroke-linejoin="round"/><path d="M364.66 286.571h-27.983v28.399h27.983v-28.399z" fill="#fff"/><path d="M364.66 288.472v-1.901h-4.099l-23.884 21.689v5.622m5.611 1.105h6.193l16.179-14.704v-5.621" fill="#FF8562" opacity=".6"/><path d="M364.66 286.571h-27.983v28.399h27.983v-28.399z" stroke="#263238" stroke-linecap="round" stroke-linejoin="round"/><path d="M364.66 278.399h-27.983v12.347h27.983v-12.347z" fill="#fff" stroke="#263238" stroke-linecap="round" stroke-linejoin="round"/><path d="M284.649 341.095h-27.983v28.4h27.983v-28.4z" fill="#fff"/><path d="M280.55 341.095l-23.884 21.69v5.621l27.983-25.41v-1.901h-4.099zm-12.08 28.416l16.179-14.703v-5.622l-22.372 20.325h6.193z" fill="#FF8562" opacity=".6"/><path d="M284.649 341.095h-27.983v28.4h27.983v-28.4z" stroke="#263238" stroke-linecap="round" stroke-linejoin="round"/><path d="M284.649 332.923h-27.983v12.348h27.983v-12.348z" fill="#fff" stroke="#263238" stroke-linecap="round" stroke-linejoin="round"/><path d="M324.655 341.095h-27.984v28.4h27.984v-28.4z" fill="#fff"/><path d="M320.555 341.095l-23.884 21.69v5.621l27.984-25.41v-1.901h-4.1zm-12.08 28.416l16.18-14.703v-5.622l-22.372 20.325h6.192z" fill="#FF8562" opacity=".6"/><path d="M324.655 341.095h-27.984v28.4h27.984v-28.4z" stroke="#263238" stroke-linecap="round" stroke-linejoin="round"/><path d="M324.655 332.923h-27.984v12.348h27.984v-12.348z" fill="#fff" stroke="#263238" stroke-linecap="round" stroke-linejoin="round"/><path d="M364.66 341.095h-27.983v28.4h27.983v-28.4z" fill="#fff"/><path d="M360.561 341.095l-23.884 21.69v5.621l27.983-25.41v-1.901h-4.099zm-12.08 28.416l16.179-14.703v-5.622l-22.372 20.325h6.193z" fill="#FF8562" opacity=".6"/><path d="M364.66 341.095h-27.983v28.4h27.983v-28.4z" stroke="#263238" stroke-linecap="round" stroke-linejoin="round"/><path d="M364.66 332.923h-27.983v12.348h27.983v-12.348z" fill="#fff" stroke="#263238" stroke-linecap="round" stroke-linejoin="round"/><path d="M364.311 385.969H255.299v15.451h109.012v-15.451z" fill="#263238" stroke="#263238" stroke-linecap="round" stroke-linejoin="round"/><path d="M364.311 381.502H255.299v15.45h109.012v-15.45z" fill="#fff" stroke="#263238" stroke-linecap="round" stroke-linejoin="round"/><path d="M212.169.527h-59.383v40.91h59.383V.527z" fill="#263238" stroke="#263238" stroke-linecap="round" stroke-linejoin="round"/><path d="M212.183.527h-20.555v40.91h20.555V.527z" fill="#fff" stroke="#263238" stroke-linecap="round" stroke-linejoin="round"/><path d="M362.683 10.52h-24.407v30.917h24.407V10.52z" fill="#263238" stroke="#263238" stroke-linecap="round" stroke-linejoin="round"/><path d="M378.717 21.892H147.538v19.561h231.179v-19.56z" fill="#263238" stroke="#263238" stroke-linecap="round" stroke-linejoin="round"/><path d="M378.717 21.892H240.472v19.561h138.245v-19.56z" fill="#fff" stroke="#263238" stroke-linecap="round" stroke-linejoin="round"/><path d="M246.417 21.892v8.205m3.78-8.205v8.205m0 2.209v6.272m3.794-16.686v8.205m0 2.567v5.816m3.518-5.816v3.672m.262-14.444v8.205m4.288-2.08v2.08m.247-8.205v4.663m-15.889 5.199v4.858" stroke="#263238" stroke-width=".75" stroke-linecap="round" stroke-linejoin="round"/><path d="M95.249 426.603s12.153-4.484 8.722-1.007c-.461.48-.946.93-1.454 1.348h-35.95l-1.09-2.453-.261-.585-.436-.991 4.36-3.25-4.607 2.762-1.207-3.038.93-10.219-1.453 9.309-.887-2.485-4.027-8.611 6.542 16.247-9.362-4.159 9.754 5.052 1.134 2.567H27.13c-2.122-.26-5.102-.942-5.64-2.843-.872-2.973 8.242-2.973 8.242-2.973s-9.55-4.484-6.076-5.475c3.474-.991 9.55 2.973 9.55 2.973s-3.473-8.952.858-6.97a8.952 8.952 0 013.035 2.276 10.2 10.2 0 011.966 3.443c-.465-1.755-1.337-5.898 1.076-4.712 1.511.851 2.78 2.156 3.663 3.77-1.163-2.665-2.18-6.629 2.908-5.264 0 0-1.062-12.218 10.408-14.444 11.47-2.226 10.859 15.435 14.755 18.928 3.896 3.493 8.722-.504 10.423 3.477 1.7 3.98 1.293 5.978 1.293 5.978s6.513-19.415 7.385-13.939c.379 3.659-.392 7.352-2.18 10.446 0 0 10.422-15.434 8.257-9.455a73.183 73.183 0 01-4.783 10.463s14.319-3.997 12.153-1.495c-2.166 2.502-9.173 5.329-9.173 5.329z" fill="#FF8562"/><path d="M78.037 423.792c.102-.893.247-2.177.51-3.704.072-.439.145-.894.246-1.381a6.659 6.659 0 002.253 0c.31-.093.599-.257.849-.48.25-.224.456-.503.605-.82a1.367 1.367 0 00-.034-.981 1.227 1.227 0 00-.272-.399 1.078 1.078 0 00-.392-.245c-.886-.26-2.151.943-2.602 1.723 0 0-.305.666-.436.991 0-.293.117-.569.175-.878.058-.308.189-.877.276-1.316.087-.438.13-.455.189-.682.058-.228.13-.439.189-.682l.349-.992a6.83 6.83 0 002.122.374c.33-.028.65-.135.938-.315a2.37 2.37 0 00.734-.725 1.357 1.357 0 00.115-.985 1.271 1.271 0 00-.219-.446 1.12 1.12 0 00-.361-.307c-.844-.406-2.254.569-2.806 1.267l-.233.374.393-.975c.392-.926.829-1.836 1.25-2.762l.262-.585a6.2 6.2 0 002.166.39c.33-.021.654-.124.945-.301a2.35 2.35 0 00.741-.722 1.357 1.357 0 00.109-.99 1.266 1.266 0 00-.223-.445 1.116 1.116 0 00-.366-.304c-.843-.406-2.253.569-2.79 1.251 0 0-.146.211-.277.439.233-.52.45-1.024.64-1.527a21.76 21.76 0 00.9-2.697 6.87 6.87 0 002.24.406 2.06 2.06 0 00.939-.302c.289-.177.539-.423.732-.722a1.353 1.353 0 00.115-.985 1.271 1.271 0 00-.218-.446 1.121 1.121 0 00-.362-.307c-.843-.406-2.253.568-2.805 1.251l-.611.991a19.8 19.8 0 00.436-2.778c.066-.843.09-1.689.073-2.535 0-.78-.073-1.495-.117-2.112 0-.341 0-.666-.101-.942 0 0 .334-1.186.349-1.251.145-.91 0-2.746-.873-3.25a.998.998 0 00-.855.001 1.1 1.1 0 00-.36.273 1.255 1.255 0 00-.238.409 2.84 2.84 0 00-.038 1.088c.058.362.185.706.372 1.008a7.359 7.359 0 001.643 1.624c0 .309 0 .634.087.991v2.762c0-.357-.145-.861-.16-.91-.247-.877-1.192-2.404-2.108-2.404a.989.989 0 00-.443.109c-.14.072-.264.175-.364.305-.1.129-.175.28-.219.444a1.342 1.342 0 00-.035.507c.074.36.216.699.417.993.2.294.455.537.746.713a6.52 6.52 0 002.151.617c0 .487 0 .975-.087 1.478-.09.93-.256 1.849-.494 2.746v.146c0-.178 0-1.202-.087-1.283-.16-.894-.945-2.535-1.861-2.648a.963.963 0 00-.45.059 1.057 1.057 0 00-.388.261c-.112.117-.2.259-.258.416a1.332 1.332 0 00-.082.498c.033.367.137.722.305 1.039.168.318.397.59.67.797a7.223 7.223 0 002.136.894 22.9 22.9 0 01-.915 2.583c-.262.634-.553 1.251-.844 1.869 0-.244 0-1.203-.087-1.268-.16-.893-.945-2.534-1.846-2.648a.984.984 0 00-.452.059 1.07 1.07 0 00-.391.261 1.221 1.221 0 00-.262.416 1.34 1.34 0 00-.087.499c.035.366.142.718.313 1.033.17.315.401.583.676.786a6.72 6.72 0 002.122.91c-.145.276-.276.553-.407.829-.436.926-.887 1.836-1.308 2.746-.131.325-.262.633-.407.958v-1.088c-.16-.894-.945-2.535-1.861-2.649a.976.976 0 00-.45.059 1.082 1.082 0 00-.388.261 1.2 1.2 0 00-.258.417 1.328 1.328 0 00-.082.498c.032.369.138.726.308 1.043.172.318.404.589.68.793a6.821 6.821 0 002.036.877 21.671 21.671 0 00-.596 1.625c0 .244-.16.471-.218.699l-.189.682c-.116.471-.233.894-.32 1.332-.087.439-.102.439-.145.65v-1.007c0-.926-.582-2.665-1.454-2.941a.96.96 0 00-.455-.02 1.02 1.02 0 00-.422.192 1.157 1.157 0 00-.313.37c-.079.147-.13.311-.147.482-.017.37.04.739.165 1.081.126.343.317.651.562.901.6.512 1.26.927 1.962 1.235-.116.52-.218 1.039-.305 1.527a62.378 62.378 0 00-.582 3.72 75.26 75.26 0 00-.174 1.43.402.402 0 00.073.263c.027.036.06.066.097.088a.29.29 0 00.245.025.315.315 0 00.11-.067.348.348 0 00.08-.109.393.393 0 00.034-.135s.059-.487.16-1.381z" fill="#FF8562"/><path d="M84.593 399.422a7.285 7.285 0 002.283-.26 2.24 2.24 0 00.83-.579c.237-.258.42-.57.536-.916a1.338 1.338 0 00-.12-.98 1.152 1.152 0 00-.316-.362 1.023 1.023 0 00-.421-.185c-.916-.146-2.05 1.202-2.4 2.031-.028.081-.406 1.251-.392 1.251zm-7.443 24.354c-.363-.796-.857-1.966-1.453-3.396a37.62 37.62 0 01-.48-1.299 7.646 7.646 0 001.89-1.365c.23-.268.404-.588.512-.939.108-.351.146-.723.113-1.092a1.3 1.3 0 00-.183-.488 1.149 1.149 0 00-.35-.355.993.993 0 00-.92-.083c-.873.325-1.323 2.112-1.309 3.022 0 0 0 .763.116 1.105-.087-.277-.189-.537-.29-.829a36.346 36.346 0 01-.407-1.283l-.19-.667c-.072-.227-.116-.455-.174-.698-.058-.244-.13-.683-.203-1.04a6.65 6.65 0 001.948-.991 2.55 2.55 0 00.636-.841c.155-.328.246-.689.265-1.06a1.33 1.33 0 00-.113-.491 1.207 1.207 0 00-.282-.397 1.043 1.043 0 00-.402-.234.979.979 0 00-.453-.032c-.916.179-1.6 1.853-1.716 2.762v.455c0-.341-.116-.682-.16-1.039-.116-1.008-.218-2.048-.32-3.071v-.65a6.816 6.816 0 002.007-1.007 2.55 2.55 0 00.636-.841c.155-.328.246-.69.265-1.06a1.333 1.333 0 00-.113-.491 1.209 1.209 0 00-.282-.397 1.058 1.058 0 00-.402-.235.993.993 0 00-.453-.031c-.916.179-1.6 1.852-1.715 2.762v.536c0-.568-.131-1.121-.219-1.624a24.103 24.103 0 00-.581-2.795 7.286 7.286 0 002.064-1.04c.266-.222.483-.509.636-.838a2.7 2.7 0 00.251-1.062 1.333 1.333 0 00-.113-.491 1.198 1.198 0 00-.282-.397 1.058 1.058 0 00-.402-.235.979.979 0 00-.453-.031c-.901.179-1.6 1.868-1.701 2.778v1.203a16.49 16.49 0 00-1.003-2.584 21.883 21.883 0 00-1.177-2.144c-.393-.65-.8-1.203-1.149-1.706l-.552-.731s-.306-1.186-.335-1.268c-.334-.828-1.453-2.242-2.326-2.144-.151.022-.297.08-.427.17-.13.089-.242.208-.328.349a1.303 1.303 0 00-.173.469c-.028.168-.023.34.013.507.097.361.265.694.491.975.227.281.505.503.817.649a6.564 6.564 0 002.195.358l.552.78c.35.503.727 1.072 1.105 1.722.102.162.204.357.305.536l-.581-.65c-.64-.585-2.18-1.284-2.907-.715a1.184 1.184 0 00-.307.368 1.357 1.357 0 00-.111.977c.043.162.116.313.214.442.239.259.525.457.838.581.314.123.648.169.98.134a7.157 7.157 0 002.107-.812c.218.406.436.828.64 1.299.387.821.703 1.68.945 2.568a.797.797 0 010 .162 24.94 24.94 0 00-.698-1.007c-.582-.65-2.035-1.544-2.907-1.073-.134.082-.25.194-.343.329-.093.135-.159.29-.194.455a1.356 1.356 0 00.158.971c.21.287.474.519.773.679.299.16.626.245.957.247a6.603 6.603 0 002.225-.569c.223.897.393 1.808.508 2.73.087.682.16 1.365.218 2.063l-.697-.991c-.582-.666-2.036-1.624-2.908-1.072-.134.08-.252.191-.346.325a1.285 1.285 0 00-.199.455 1.355 1.355 0 00.153.975c.21.286.474.517.773.677.299.16.625.245.957.249a6.706 6.706 0 002.21-.553l.086.943c.088 1.023.16 2.063.262 3.087l.13 1.056c-.188-.293-.566-.813-.595-.861-.582-.65-2.035-1.528-2.907-1.073a1.166 1.166 0 00-.34.336 1.327 1.327 0 00-.191.459 1.39 1.39 0 00.153.976c.212.283.477.51.775.667.299.157.624.24.955.243a6.334 6.334 0 002.136-.52c.088.569.175 1.154.291 1.706 0 .244.102.487.16.715l.175.682.392 1.316c.073.211.145.406.203.618-.16-.325-.421-.845-.45-.878-.48-.747-1.803-1.868-2.675-1.543a1.092 1.092 0 00-.37.262 1.25 1.25 0 00-.246.404 1.345 1.345 0 00.005.959c.17.316.4.588.674.795.274.208.585.347.911.407a6.324 6.324 0 002.253-.179c.16.52.335 1.007.495 1.462a67.48 67.48 0 001.351 3.477c.35.829.567 1.3.567 1.3.04.084.11.146.191.174.082.027.17.017.246-.028a.353.353 0 00.155-.213.398.398 0 00-.025-.274s-.145-.553-.45-1.365z" fill="#FF8562"/><path d="M70.536 399.406a7.745 7.745 0 001.774-1.625c.2-.292.34-.63.41-.989a2.82 2.82 0 00-.003-1.091 1.247 1.247 0 00-.219-.436 1.086 1.086 0 00-.359-.299.975.975 0 00-.876-.012c-.843.439-1.105 2.258-1.003 3.249 0 0 .262 1.219.276 1.203zm172.102 27.099s15.511-5.718 11.077-1.267a23.781 23.781 0 01-1.861 1.625h-45.82l-1.381-3.12-.334-.763-.553-1.267 5.495-4.225-5.814 3.51-1.541-3.883 1.192-12.998-1.876 11.893-1.133-3.249-5.19-10.886 8.344 20.65-11.949-5.313 12.458 6.499 1.454 3.249h-49.557c-2.689-.325-6.498-1.202-7.195-3.623-1.105-3.801 10.524-3.801 10.524-3.801s-12.181-5.719-7.748-6.987c4.434-1.267 12.182 3.802 12.182 3.802s-4.361-11.373 1.105-8.887a11.306 11.306 0 013.869 2.89 12.896 12.896 0 012.498 4.389c-.581-2.242-1.701-7.523 1.381-6.012 1.928 1.113 3.542 2.8 4.666 4.874-1.453-3.395-2.776-8.448 3.635-6.71 0 0-1.352-15.58 13.286-18.424 14.639-2.843 13.854 19.692 18.898 24.143 5.044 4.452 11.077-.65 13.301 4.436 2.224 5.085 1.658 7.62 1.658 7.62s8.3-24.761 9.405-17.775c1.105 6.987-2.762 13.339-2.762 13.339s13.287-19.691 10.525-12.071a93.443 93.443 0 01-6.091 13.338s18.272-5.085 15.496-1.9c-2.777 3.184-11.644 6.904-11.644 6.904z" fill="#FF8562"/><path d="M220.673 422.915c.131-1.137.334-2.778.654-4.712.087-.568.189-1.153.305-1.771a8.604 8.604 0 002.908 0 2.775 2.775 0 001.125-.576c.333-.281.609-.638.808-1.048a1.808 1.808 0 00-.057-1.246 1.639 1.639 0 00-.34-.51 1.435 1.435 0 00-.49-.324c-1.134-.341-2.747 1.202-3.314 2.177 0 0-.393.861-.567 1.284.073-.374.145-.731.218-1.121.073-.39.247-1.121.363-1.625.088-.292.16-.585.233-.877.073-.293.174-.569.247-.861.073-.293.291-.862.451-1.284a7.893 7.893 0 002.704.488c.421-.036.83-.173 1.199-.403.37-.23.689-.547.937-.93a1.804 1.804 0 00.114-1.243 1.683 1.683 0 00-.268-.563 1.485 1.485 0 00-.442-.403c-1.075-.52-2.907.731-3.576 1.624l-.305.472c.16-.407.334-.829.509-1.235.494-1.17 1.047-2.356 1.584-3.526l.335-.747c.898.32 1.834.49 2.776.503a2.683 2.683 0 001.198-.395 3.02 3.02 0 00.939-.921 1.804 1.804 0 00.114-1.243 1.669 1.669 0 00-.268-.562 1.502 1.502 0 00-.442-.404c-1.076-.52-2.907.715-3.576 1.625l-.349.552c.291-.65.567-1.3.829-1.95a28.544 28.544 0 001.134-3.428c.94.335 1.92.511 2.907.52.42-.033.829-.168 1.198-.395s.689-.542.939-.921a1.813 1.813 0 00.108-1.247 1.698 1.698 0 00-.273-.562 1.489 1.489 0 00-.446-.4c-1.075-.52-2.907.714-3.561 1.624l-.785 1.268c.278-1.16.462-2.346.552-3.542.094-1.08.123-2.166.088-3.25a29.257 29.257 0 00-.146-2.713c0-.439 0-.828-.116-1.202 0 0 .421-1.511.436-1.625.189-1.17-.073-3.509-1.105-4.127a1.319 1.319 0 00-1.12-.017 1.44 1.44 0 00-.478.35c-.137.151-.246.33-.321.528a3.62 3.62 0 00-.062 1.399c.07.466.23.909.469 1.298a10.079 10.079 0 002.108 2.113c0 .389.073.796.102 1.251 0 .812.102 1.722.102 2.713v.828c0-.471-.189-1.104-.204-1.169-.305-1.121-1.453-3.071-2.675-3.087-.192.014-.38.071-.552.167-.173.097-.326.23-.452.394a1.667 1.667 0 00-.281.558c-.06.204-.082.421-.066.635.087.459.262.891.513 1.267.251.376.572.686.94.91a8.488 8.488 0 002.748.797c0 .617 0 1.234-.131 1.884a20.731 20.731 0 01-.625 3.493v.195c0-.243-.087-1.543-.117-1.624-.203-1.138-1.192-3.25-2.355-3.38-.385 0-.755.171-1.027.476a1.726 1.726 0 00-.426 1.149c.044.468.179.919.395 1.323.216.404.507.751.855 1.016a9.23 9.23 0 002.718 1.154 30.805 30.805 0 01-1.163 3.249 37.498 37.498 0 01-1.075 2.372c0-.324-.102-1.527-.117-1.624-.203-1.138-1.192-3.25-2.369-3.38-.386 0-.755.172-1.028.476a1.726 1.726 0 00-.426 1.149c.046.469.183.922.402 1.326.218.404.513.75.863 1.014a9.442 9.442 0 002.704 1.153l-.509 1.072a106.946 106.946 0 00-1.657 3.494c-.184.411-.359.817-.524 1.218 0-.471-.087-1.316-.101-1.381-.204-1.153-1.207-3.249-2.37-3.396-.385 0-.755.172-1.028.476a1.73 1.73 0 00-.425 1.149c.042.471.176.926.392 1.332.216.407.508.757.858 1.024.816.517 1.698.89 2.616 1.105a38.393 38.393 0 00-.77 2.047c-.102.292-.204.601-.276.893-.073.293-.175.569-.247.862-.146.601-.291 1.153-.408 1.705 0 .293-.116.553-.174.829 0-.471.073-1.235.073-1.3 0-1.169-.742-3.395-1.876-3.753a1.304 1.304 0 00-.573.001 1.369 1.369 0 00-.528.248c-.159.12-.296.276-.401.456a1.737 1.737 0 00-.213.595c-.019.473.054.944.215 1.382.16.438.405.831.715 1.153a9.734 9.734 0 002.501 1.624c-.131.666-.276 1.332-.378 1.95a99.131 99.131 0 00-.756 4.744 28.275 28.275 0 00-.204 1.82.506.506 0 00.098.337c.07.094.171.154.28.166a.391.391 0 00.306-.103.445.445 0 00.102-.143.505.505 0 00.043-.176s-.247-.894-.116-2.031z" fill="#FF8562"/><path d="M229.046 391.835a8.944 8.944 0 002.907-.341 2.879 2.879 0 001.059-.737c.301-.328.535-.725.686-1.164a1.807 1.807 0 00-.178-1.238 1.553 1.553 0 00-.391-.466 1.386 1.386 0 00-.521-.262c-1.163-.179-2.617 1.624-3.068 2.599-.043.098-.523 1.592-.494 1.609zm-9.565 31.08a72.09 72.09 0 01-1.788-4.354 66.368 66.368 0 01-.611-1.625 9.746 9.746 0 002.413-1.738c.291-.342.512-.749.647-1.195.136-.446.183-.92.138-1.389a1.717 1.717 0 00-.242-.577 1.517 1.517 0 00-.423-.429 1.368 1.368 0 00-.538-.214 1.308 1.308 0 00-.57.034c-1.105.423-1.686 2.697-1.672 3.867 0 0 .102.959.16 1.397-.131-.341-.247-.682-.378-1.056-.131-.373-.349-1.088-.523-1.624-.175-.536-.16-.585-.247-.861-.088-.277-.131-.585-.204-.878-.073-.292-.174-.893-.262-1.348a8.697 8.697 0 002.486-1.267 3.2 3.2 0 00.806-1.071 3.54 3.54 0 00.328-1.35 1.775 1.775 0 00-.16-.616 1.609 1.609 0 00-.362-.499 1.43 1.43 0 00-.506-.303 1.32 1.32 0 00-.571-.061c-1.148.228-2.035 2.389-2.181 3.542v.585c-.072-.455-.145-.894-.203-1.349a297.866 297.866 0 01-.407-3.915l-.087-.829a8.48 8.48 0 002.558-1.283 3.19 3.19 0 00.806-1.071 3.54 3.54 0 00.328-1.35 1.752 1.752 0 00-.159-.612 1.596 1.596 0 00-.358-.496 1.426 1.426 0 00-.5-.305 1.304 1.304 0 00-.567-.065c-1.163.227-2.05 2.372-2.196 3.541v.667a90.73 90.73 0 00-.276-2.129 33.118 33.118 0 00-.741-3.574 9.069 9.069 0 002.631-1.316 3.19 3.19 0 00.806-1.071 3.54 3.54 0 00.328-1.35 1.774 1.774 0 00-.159-.612 1.596 1.596 0 00-.358-.496 1.42 1.42 0 00-.501-.305 1.318 1.318 0 00-.567-.065c-1.163.227-2.049 2.388-2.195 3.541v1.544a22.344 22.344 0 00-1.293-3.249 27.157 27.157 0 00-1.454-2.73c-.494-.829-1.003-1.543-1.454-2.177l-.698-.926s-.407-1.527-.436-1.625c-.421-1.072-1.788-2.859-2.907-2.729-.193.023-.38.093-.547.204a1.418 1.418 0 00-.421.44c-.11.179-.185.382-.219.596-.033.214-.025.434.024.644.132.449.35.861.639 1.206.288.345.641.615 1.033.793a8.464 8.464 0 002.791.471c.218.292.465.617.712.975.436.65.931 1.364 1.454 2.209.131.211.261.455.392.699a26.54 26.54 0 00-.741-.861c-.814-.731-2.777-1.625-3.765-.91a1.56 1.56 0 00-.376.48 1.766 1.766 0 00-.142 1.241c.051.207.138.401.256.57.303.33.667.583 1.066.74.399.157.824.215 1.246.17a8.935 8.935 0 002.689-1.024c.276.52.567 1.056.829 1.625a20.948 20.948 0 011.192 3.249v.195a54.213 54.213 0 00-.902-1.283c-.741-.845-2.602-1.966-3.649-1.381a1.52 1.52 0 00-.423.433 1.734 1.734 0 00-.241.583c-.045.21-.051.429-.02.642.032.213.102.417.205.6.268.36.604.652.983.854.379.202.792.309 1.212.316a8.798 8.798 0 002.907-.715c.289 1.141.508 2.302.654 3.477.117.861.204 1.738.277 2.632-.16-.26-.829-1.219-.887-1.268-.742-.844-2.602-1.965-3.649-1.381-.166.112-.31.259-.424.434a1.798 1.798 0 00-.056 1.825c.271.362.608.655.99.857.381.202.798.309 1.22.313a8.71 8.71 0 002.82-.715c0 .406 0 .812.102 1.218.102 1.316.203 2.632.334 3.948 0 .439.102.878.175 1.332l-.771-1.088c-.741-.829-2.602-1.966-3.649-1.365a1.534 1.534 0 00-.418.431 1.73 1.73 0 00-.239.579 1.812 1.812 0 00-.021.636c.03.211.098.414.199.596.267.364.602.658.981.863.379.205.793.315 1.214.323a8.55 8.55 0 002.733-.682c.101.731.218 1.462.363 2.177.073.309.131.617.204.91l.232.877c.175.585.335 1.137.509 1.625.073.276.16.536.247.796a37.782 37.782 0 00-.567-1.121c-.61-.959-2.311-2.388-3.416-1.982a1.428 1.428 0 00-.477.355 1.64 1.64 0 00-.318.533 1.813 1.813 0 00.01 1.256c.216.406.509.755.858 1.021.349.267.746.445 1.163.523.974.087 1.954.01 2.907-.228l.64 1.869a83.778 83.778 0 002.442 6.044.436.436 0 00.245.211.38.38 0 00.307-.033.48.48 0 00.199-.278.54.54 0 00-.024-.355s-.524-.536-.974-1.56z" fill="#FF8562"/><path d="M211.108 391.818a10.845 10.845 0 002.267-2.079c.253-.377.429-.81.517-1.27.087-.46.085-.936-.008-1.395a1.646 1.646 0 00-.298-.542 1.47 1.47 0 00-.461-.373 1.324 1.324 0 00-1.116-.043c-1.061.568-1.454 2.892-1.279 4.061.014.098.363 1.641.378 1.641zm-106.134 34.85s-9.58-3.493-6.847-.764c.48.455.858.797 1.163 1.04h28.333l.857-1.901.204-.471.349-.78-3.402-2.583 3.591 2.145.944-2.372-.726-7.978 1.163 7.279.697-1.95 3.169-6.726-5.16 12.64 7.384-3.249-7.69 3.948-.901 1.998h30.644c1.672-.195 4.012-.731 4.448-2.209.683-2.34-6.498-2.34-6.498-2.34s7.53-3.493 4.783-4.273c-2.748-.78-7.53 2.34-7.53 2.34s2.747-7.003-.684-5.443a6.967 6.967 0 00-2.388 1.764 7.927 7.927 0 00-1.551 2.688c.363-1.365 1.047-4.598-.858-3.672-1.188.669-2.193 1.685-2.907 2.941.916-2.08 1.73-5.167-2.239-4.111.206-2.705-.538-5.394-2.073-7.498s-3.742-3.458-6.155-3.777c-9.041-1.739-8.562 12.055-11.629 14.768-3.067 2.713-6.847-.39-8.213 2.73a8.48 8.48 0 00-1.032 4.663s-5.132-15.159-5.815-10.886c-.294 2.849.312 5.723 1.715 8.124 0 0-8.228-12.039-6.512-7.377a56.326 56.326 0 003.765 8.124s-11.295-3.103-9.58-1.17c1.715 1.934 7.181 4.338 7.181 4.338z" fill="#FF8562"/><path d="M152.146 424.491a71.83 71.83 0 00-.392-2.892c0-.341-.131-.715-.204-1.089a5.077 5.077 0 01-1.773 0 1.697 1.697 0 01-.697-.365 1.946 1.946 0 01-.495-.658 1.013 1.013 0 01.014-.776.922.922 0 01.221-.312.791.791 0 01.317-.179c.698-.212 1.686.731 2.035 1.332.129.253.245.513.349.78l-.131-.683c0-.341-.145-.682-.232-1.023l-.131-.536c0-.179-.102-.358-.16-.537-.058-.178-.175-.52-.276-.779a5.151 5.151 0 01-1.672.292 1.643 1.643 0 01-.743-.241 1.868 1.868 0 01-.58-.571 1.032 1.032 0 01.092-1.115.856.856 0 01.286-.234c.669-.325 1.774.439 2.21.975l.189.292c-.102-.243-.204-.503-.32-.747a70.842 70.842 0 00-.974-2.161l-.218-.455c-.555.196-1.133.3-1.716.309a1.686 1.686 0 01-.74-.245 1.905 1.905 0 01-.582-.567 1.031 1.031 0 01-.111-.375 1.023 1.023 0 01.207-.737c.078-.1.174-.18.282-.237.668-.325 1.773.439 2.209.975 0 0 .102.179.218.341-.189-.39-.349-.796-.509-1.186a17.351 17.351 0 01-.712-2.112 5.366 5.366 0 01-1.759.325 1.603 1.603 0 01-.744-.238 1.833 1.833 0 01-.579-.574 1.046 1.046 0 01-.089-.766.988.988 0 01.171-.345.855.855 0 01.282-.238c.668-.325 1.788.439 2.209.975l.48.78a13.381 13.381 0 01-.349-2.177v-1.966c0-.618 0-1.17.087-1.625.088-.455 0-.504.088-.731 0 0-.262-.926-.277-.991-.101-.699 0-2.128.698-2.502a.771.771 0 01.694-.038c.112.05.212.125.296.221a.977.977 0 01.188.337c.066.274.078.562.036.843-.043.28-.14.547-.283.782a6.082 6.082 0 01-1.309 1.299v2.892c0-.276.131-.682.131-.715.204-.682.945-1.868 1.657-1.884.121.001.24.031.349.087.11.056.207.137.287.238a1.047 1.047 0 01.207.747 2.11 2.11 0 01-.327.778c-.158.23-.359.419-.588.554a5.344 5.344 0 01-1.701.488c0 .373 0 .763.072 1.153.072.727.204 1.445.393 2.145a.435.435 0 000 .114c0-.147 0-.943.073-1.008.13-.698.741-1.966 1.453-2.063a.78.78 0 01.351.048.836.836 0 01.303.202c.088.09.158.2.205.322.048.122.072.253.072.386a2.116 2.116 0 01-.242.812 1.878 1.878 0 01-.529.618 5.81 5.81 0 01-1.686.715c.172.71.391 1.405.654 2.08.204.487.422.958.654 1.446v-.991c.131-.699.742-1.966 1.454-2.064a.78.78 0 01.351.048.856.856 0 01.303.203c.087.09.157.199.205.321.047.122.072.254.071.387a2.098 2.098 0 01-.241.811 1.858 1.858 0 01-.529.618 5.359 5.359 0 01-1.686.699l.319.666c.349.715.698 1.43 1.033 2.145.116.244.218.487.319.731v-.829c.131-.715.756-1.982 1.454-2.079a.748.748 0 01.353.043.82.82 0 01.306.201.934.934 0 01.204.325c.047.123.07.256.067.389a2.097 2.097 0 01-.241.812 1.878 1.878 0 01-.529.618 5.202 5.202 0 01-1.614.699c.175.406.335.828.48 1.234l.174.553.146.52c.087.373.174.715.247 1.056.073.341 0 .341.116.503v-.796c0-.715.465-2.079 1.163-2.291a.774.774 0 01.358-.015.808.808 0 01.332.148c.1.076.185.174.249.288.064.114.106.242.122.376.024.301-.015.604-.113.886a1.983 1.983 0 01-.454.738 6.14 6.14 0 01-1.555.975c.087.406.174.812.247 1.186.218 1.202.364 2.21.451 2.908.087.699.145 1.121.145 1.121a.33.33 0 01-.065.203.269.269 0 01-.167.106.236.236 0 01-.189-.063.265.265 0 01-.062-.088.31.31 0 01-.026-.109s0-.504-.087-1.202z" fill="#FF8562"/><path d="M146.927 405.466a5.79 5.79 0 01-1.802-.212 1.764 1.764 0 01-.653-.452 2.036 2.036 0 01-.423-.717 1.05 1.05 0 01.103-.765.9.9 0 01.25-.28.78.78 0 01.33-.141c.713-.114 1.599.942 1.89 1.624.073.033.305.943.305.943zm5.961 19.009a44.83 44.83 0 001.104-2.649c.131-.324.247-.666.378-1.023a5.793 5.793 0 01-1.453-1.072 2.015 2.015 0 01-.407-.751 2.184 2.184 0 01-.073-.874c.023-.131.071-.256.14-.365a.898.898 0 01.26-.271.792.792 0 01.69-.095c.683.26 1.047 1.624 1.047 2.372 0 0 0 .585-.102.861l.218-.65c.116-.325.233-.666.334-.991l.146-.536c0-.179.087-.358.131-.536.043-.179.116-.536.16-.813a5.554 5.554 0 01-1.527-.779 2.001 2.001 0 01-.499-.654 2.198 2.198 0 01-.213-.825c.007-.134.038-.265.093-.385a.947.947 0 01.223-.311.796.796 0 01.672-.214c.713.146 1.265 1.462 1.352 2.161v.357c0-.259.088-.536.117-.812.101-.796.174-1.625.261-2.404v-.504a5.513 5.513 0 01-1.584-.78 1.983 1.983 0 01-.494-.663 2.205 2.205 0 01-.204-.832c.007-.133.038-.264.093-.383a.952.952 0 01.224-.308.82.82 0 01.317-.181.761.761 0 01.355-.021c.712.146 1.264 1.446 1.351 2.161v.406c0-.439.102-.861.175-1.3.104-.737.254-1.464.451-2.177a5.623 5.623 0 01-1.629-.812 1.906 1.906 0 01-.497-.652 2.126 2.126 0 01-.2-.827 1.05 1.05 0 01.087-.384.953.953 0 01.22-.312.82.82 0 01.313-.185.773.773 0 01.354-.029c.726.147 1.264 1.463 1.352 2.177v.943c.21-.698.478-1.372.799-2.015.283-.56.594-1.103.93-1.625.306-.503.625-.942.902-1.332l.436-.569s.247-.926.261-.991c.262-.649 1.105-1.754 1.832-1.624a.786.786 0 01.336.125c.102.068.191.16.26.269a1.05 1.05 0 01.131.759c-.08.276-.214.529-.393.74a1.748 1.748 0 01-.639.479 5.366 5.366 0 01-1.73.292 6.481 6.481 0 00-.436.601c-.314.431-.605.881-.872 1.349a3.855 3.855 0 00-.248.422l.466-.52c.494-.455 1.715-.991 2.326-.552a.912.912 0 01.243.286c.062.114.102.241.117.372.015.132.005.267-.029.394a.973.973 0 01-.172.345c-.191.205-.42.361-.672.456a1.63 1.63 0 01-.781.097 5.34 5.34 0 01-1.672-.634c-.174.325-.349.65-.509 1.007-.299.646-.547 1.32-.741 2.015v.13l.552-.796c.451-.504 1.614-1.186 2.253-.829a.882.882 0 01.272.252 1.044 1.044 0 01.034 1.113 1.859 1.859 0 01-.612.532 1.667 1.667 0 01-.755.199 5.676 5.676 0 01-1.759-.439 16.345 16.345 0 00-.392 2.113 29.118 29.118 0 00-.175 1.624c.102-.162.509-.747.553-.78.45-.52 1.599-1.202 2.253-.844.106.062.199.15.273.256a1.013 1.013 0 01.159.759.989.989 0 01-.141.365 1.814 1.814 0 01-.605.525 1.63 1.63 0 01-.747.19 5.04 5.04 0 01-1.745-.438c0 .26 0 .503-.072.747 0 .812-.131 1.625-.204 2.405 0 .276-.072.552-.102.828.146-.227.437-.633.466-.666.465-.504 1.613-1.202 2.253-.845a.867.867 0 01.276.254.993.993 0 01.158.359c.029.131.032.267.01.4a.989.989 0 01-.139.368 1.829 1.829 0 01-.613.525 1.642 1.642 0 01-.753.19 5.2 5.2 0 01-1.687-.406 13.29 13.29 0 01-.232 1.332c0 .179-.073.374-.116.553l-.146.536-.305 1.023c0 .179-.116.325-.16.488.116-.26.334-.65.349-.683.378-.585 1.454-1.462 2.122-1.202a.837.837 0 01.301.205.946.946 0 01.199.325 1.039 1.039 0 01-.02.77c-.136.248-.318.46-.534.623-.215.162-.46.271-.716.319a5.915 5.915 0 01-1.774-.13c-.131.39-.261.78-.392 1.137a63.294 63.294 0 01-1.076 2.714l-.436 1.007a.27.27 0 01-.058.088.229.229 0 01-.086.053.204.204 0 01-.098.009.209.209 0 01-.092-.036.255.255 0 01-.08-.07.308.308 0 01-.056-.213.298.298 0 01.034-.107s.203-.423.48-1.056z" fill="#FF8562"/><path d="M158.063 405.449a6.261 6.261 0 01-1.454-1.267 2.069 2.069 0 01-.323-.772 2.187 2.187 0 01.003-.853c.037-.128.097-.245.177-.346.08-.1.178-.18.288-.235a.781.781 0 01.698-.003c.654.341.872 1.771.785 2.485.044.098-.16 1.008-.174.991zm-38.915 19.383c0-.536-.146-1.283-.306-2.177 0-.26-.087-.536-.131-.812a4.037 4.037 0 01-1.352 0 1.245 1.245 0 01-.521-.269 1.437 1.437 0 01-.365-.495.766.766 0 01.006-.584.681.681 0 01.164-.236.594.594 0 01.237-.138c.523-.147 1.279.552 1.541 1.007l.261.585c0-.163 0-.341-.101-.504-.102-.162-.117-.52-.175-.78l-.102-.406a4.06 4.06 0 00-.116-.39c0-.195-.131-.39-.203-.601a3.718 3.718 0 01-1.265.227 1.222 1.222 0 01-.554-.178 1.402 1.402 0 01-.435-.423.793.793 0 01-.067-.581.738.738 0 01.129-.262.65.65 0 01.215-.18c.508-.244 1.337.325 1.657.731l.145.227a6.56 6.56 0 00-.232-.568 40.327 40.327 0 00-.742-1.625l-.145-.341a3.71 3.71 0 01-1.294.227 1.23 1.23 0 01-.562-.175 1.388 1.388 0 01-.441-.426.802.802 0 01.066-.84.665.665 0 01.21-.183c.509-.244 1.352.341 1.672.747l.16.244a23.392 23.392 0 01-.378-.894 13.328 13.328 0 01-.538-1.625 4.69 4.69 0 01-1.323.244 1.336 1.336 0 01-.558-.194 1.517 1.517 0 01-.445-.423.792.792 0 01-.06-.572.736.736 0 01.127-.257.66.66 0 01.209-.179c.509-.243 1.338.325 1.672.731l.363.585a13.833 13.833 0 01-.261-1.624 12.582 12.582 0 010-1.479v-1.803a7.304 7.304 0 01-.204-.748c-.087-.536 0-1.624.509-1.884a.587.587 0 01.528-.027.643.643 0 01.226.164.751.751 0 01.147.253 1.62 1.62 0 01-.203 1.235 4.15 4.15 0 01-.974.974v.585c-.023.411-.023.824 0 1.235v.39c0-.228.087-.52.102-.536.145-.52.697-1.414 1.25-1.43.09.004.178.028.259.072a.681.681 0 01.212.182.778.778 0 01.154.558 1.698 1.698 0 01-.251.581 1.527 1.527 0 01-.432.427c-.409.188-.84.308-1.28.357-.02.292-.02.585 0 .877.044.551.137 1.095.277 1.625a.269.269 0 010 .098v-.748c.101-.536.552-1.494 1.104-1.624a.562.562 0 01.263.034.633.633 0 01.228.15.747.747 0 01.207.53c-.017.219-.079.43-.18.619-.1.188-.238.349-.401.47a4.308 4.308 0 01-1.265.52c.154.52.334 1.029.538 1.527l.509 1.089v-.748c.101-.52.567-1.494 1.104-1.624.09-.01.181.003.267.035a.637.637 0 01.229.155.725.725 0 01.153.246.776.776 0 01.049.295 1.535 1.535 0 01-.18.611c-.1.186-.238.343-.401.461a4.099 4.099 0 01-1.25.52c.068.173.146.341.232.504.262.536.523 1.072.771 1.624.087.179.16.374.247.553v-.634c.101-.52.552-1.478 1.105-1.625.09-.009.18.003.266.036a.637.637 0 01.229.155.77.77 0 01.202.54c-.02.216-.083.424-.184.609a1.42 1.42 0 01-.397.464 3.694 3.694 0 01-1.221.52c.131.308.261.633.363.942.05.133.094.268.131.406l.116.39c0 .276.131.536.189.796.031.123.056.248.073.374v-.585c0-.552.349-1.625.872-1.738a.583.583 0 01.269-.009.611.611 0 01.249.113.71.71 0 01.188.215.81.81 0 01.094.282c.006.218-.029.436-.105.637a1.533 1.533 0 01-.331.532 4.404 4.404 0 01-1.163.732c0 .308.13.601.174.893.175.894.276 1.625.349 2.177.073.553.102.845.102.845a.252.252 0 01-.044.161.201.201 0 01-.131.083c.02.002.04.007.058.016 0 0-.101-.325-.159-.845z" fill="#FF8562"/><path d="M115.252 410.519a4.35 4.35 0 01-1.352-.147 1.435 1.435 0 01-.487-.346 1.631 1.631 0 01-.327-.531.791.791 0 01.082-.578.673.673 0 01.19-.21.598.598 0 01.251-.106c.538-.097 1.207.699 1.454 1.186-.015.049.203.732.189.732zm4.462 14.297c.204-.471.509-1.154.829-1.982.087-.244.189-.504.276-.78a4.516 4.516 0 01-1.119-.796 1.496 1.496 0 01-.301-.548 1.636 1.636 0 01-.063-.638.767.767 0 01.103-.275.668.668 0 01.194-.205.587.587 0 01.518-.073c.523.195.799 1.251.785 1.787 0 0 0 .439-.073.65l.174-.487c.088-.244.16-.504.247-.764l.102-.39a3.95 3.95 0 00.102-.406l.131-.617a3.856 3.856 0 01-1.163-.585 1.408 1.408 0 01-.374-.486 1.578 1.578 0 01-.15-.619.787.787 0 01.066-.292.702.702 0 01.167-.236.583.583 0 01.509-.154c.538.097.945 1.088 1.017 1.624v.277c0-.212.073-.423.088-.618.087-.601.145-1.202.203-1.803.007-.13.007-.26 0-.39a4.219 4.219 0 01-1.177-.585 1.49 1.49 0 01-.379-.495 1.672 1.672 0 01-.159-.626.8.8 0 01.241-.517.648.648 0 01.235-.139.583.583 0 01.265-.026c.538.113.96 1.104 1.018 1.624v.309c.028-.333.072-.663.131-.991.082-.549.194-1.091.334-1.625a4.325 4.325 0 01-1.221-.601 1.486 1.486 0 01-.372-.496 1.65 1.65 0 01-.151-.625.78.78 0 01.069-.287.724.724 0 01.168-.231.584.584 0 01.504-.148c.538.097.945 1.088 1.017 1.625v.698a9.83 9.83 0 01.597-1.511c.207-.439.44-.862.697-1.267.233-.374.48-.699.684-.991l.319-.439s.189-.698.204-.731c.203-.503.843-1.332 1.454-1.267a.597.597 0 01.252.1.68.68 0 01.195.204.812.812 0 01.105.573c-.07.203-.175.388-.31.544a1.458 1.458 0 01-.475.366 3.72 3.72 0 01-1.294.211l-.334.455c-.204.293-.436.634-.654 1.008l-.189.324.349-.389c.378-.342 1.293-.748 1.744-.423a.68.68 0 01.186.215.795.795 0 01.071.578.745.745 0 01-.126.263c-.141.155-.31.273-.496.346a1.213 1.213 0 01-.58.077 4.135 4.135 0 01-1.25-.472c-.131.244-.262.488-.393.764-.224.484-.408.99-.552 1.511v.081l.422-.585c.348-.39 1.206-.909 1.7-.633.08.048.149.114.204.194a.771.771 0 01.014.846c-.124.166-.28.3-.455.393a1.228 1.228 0 01-.562.143 4.243 4.243 0 01-1.323-.325 13.277 13.277 0 00-.305 1.624l-.131 1.219a5.46 5.46 0 01.421-.585c.335-.39 1.207-.91 1.687-.634.08.047.151.112.207.192a.748.748 0 01.119.27.796.796 0 01-.094.578 1.383 1.383 0 01-.463.394 1.239 1.239 0 01-.569.142 4.597 4.597 0 01-1.308-.325v.553c0 .601-.102 1.218-.16 1.82 0 .194 0 .406-.073.601l.349-.488c.349-.39 1.207-.91 1.701-.633a.658.658 0 01.203.194.76.76 0 01.12.57.752.752 0 01-.105.275c-.125.167-.28.301-.456.394a1.236 1.236 0 01-.561.143 3.997 3.997 0 01-1.28-.309c0 .341-.102.666-.16 1.007a4.224 4.224 0 01-.101.406l-.102.406-.233.764c0 .13-.087.26-.116.374.087-.195.247-.488.262-.52.29-.439 1.075-1.089 1.584-.91a.635.635 0 01.23.156.747.747 0 01.199.544.781.781 0 01-.065.291 1.375 1.375 0 01-.394.469 1.2 1.2 0 01-.537.23c-.447.053-.9.02-1.337-.098l-.305.861a43.054 43.054 0 01-.8 2.031c-.204.488-.334.764-.334.764a.214.214 0 01-.114.106.182.182 0 01-.148-.009.198.198 0 01-.058-.054.233.233 0 01-.015-.238s.029-.309.247-.796z" fill="#FF8562"/><path d="M123.668 410.519a4.94 4.94 0 01-1.046-.959 1.533 1.533 0 01-.248-.578 1.627 1.627 0 01.001-.641.735.735 0 01.132-.26.647.647 0 01.216-.178.585.585 0 01.524 0c.494.26.669 1.332.596 1.868-.073.033-.175.748-.175.748z" fill="#FF8562"/><path d="M254.485 426.018H.76v11.064h253.725v-11.064z" fill="#263238" stroke="#263238" stroke-linecap="round" stroke-linejoin="round"/><path d="M254.485 426.018H105.846v11.064h148.639v-11.064z" fill="#fff" stroke="#263238" stroke-linecap="round" stroke-linejoin="round"/><path d="M119.729 432.874v-6.466m3.78 0v3.493m3.779-3.493v3.493m3.78-3.493v8.968m4.535-8.968v4.192m89.998-4.192v6.466m3.779-6.466v3.493m3.78-3.493v3.493m3.794-3.493v8.968m4.535-8.968v4.192" stroke="#263238" stroke-width=".75" stroke-linecap="round" stroke-linejoin="round"/></svg>