<svg width="42" height="51" fill="none" xmlns="http://www.w3.org/2000/svg"><path d="M11.428 31.408a.446.446 0 01-.34-.159l-1.184-1.405a.447.447 0 11.683-.577l.826.982 2.177-2.817a.446.446 0 11.707.547l-2.515 3.256a.448.448 0 01-.344.173h-.01zm0-4.478a.446.446 0 01-.34-.16l-1.184-1.405a.447.447 0 11.683-.576l.826.98 2.177-2.816a.446.446 0 11.707.548l-2.515 3.255a.452.452 0 01-.344.174h-.01zm0-4.478a.445.445 0 01-.34-.16l-1.184-1.405a.447.447 0 11.683-.577l.826.982 2.177-2.817a.446.446 0 11.707.547l-2.515 3.256a.448.448 0 01-.344.173h-.01zm12.124-6.106h-7.334a.447.447 0 010-.894h7.334a.447.447 0 110 .894zm0 4.478h-7.334a.447.447 0 010-.895h7.334a.447.447 0 110 .895zm0 4.478h-7.334a.447.447 0 010-.895h7.334a.448.448 0 010 .895zm0 4.478h-7.334a.447.447 0 010-.894h7.334a.447.447 0 110 .894zM11.428 17.974a.445.445 0 01-.34-.16L9.903 16.41a.447.447 0 11.683-.576l.826.981 2.177-2.817a.446.446 0 11.707.548L11.782 17.8a.45.45 0 01-.344.174h-.01zm0 17.912a.445.445 0 01-.34-.16l-1.184-1.405a.447.447 0 11.683-.576l.826.981 2.177-2.816a.446.446 0 11.707.547l-2.515 3.255a.45.45 0 01-.344.174h-.01zm10.735-1.628h-5.945a.447.447 0 010-.894h5.945a.447.447 0 110 .894z" fill="#333"/><path d="M29.166 50.105h2.219v-2.019c0-.215.154-.4.367-.439a8.084 8.084 0 003.171-1.315.447.447 0 01.571.052l1.427 1.428 1.569-1.57-1.428-1.427a.446.446 0 01-.05-.57 8.091 8.091 0 001.313-3.171.45.45 0 01.44-.368h2.019v-2.219h-2.018a.449.449 0 01-.44-.367 8.06 8.06 0 00-1.315-3.17.447.447 0 01.05-.571l1.429-1.428-1.57-1.569-1.426 1.428a.447.447 0 01-.57.052 8.102 8.102 0 00-3.171-1.315.448.448 0 01-.368-.44V29.09h-2.219v2.018a.448.448 0 01-.367.44 8.08 8.08 0 00-3.17 1.315.447.447 0 01-.572-.052l-1.428-1.428-1.569 1.57 1.428 1.427a.447.447 0 01.051.57 8.084 8.084 0 00-1.314 3.171.449.449 0 01-.44.367h-2.018v2.22h2.018c.216 0 .401.154.44.367a8.103 8.103 0 001.314 3.17.447.447 0 01-.05.571l-1.429 1.428 1.57 1.569 1.427-1.428a.448.448 0 01.571-.052 8.067 8.067 0 003.171 1.314.45.45 0 01.367.44v2.02zm2.665.895H28.72a.448.448 0 01-.448-.447v-2.1a8.955 8.955 0 01-2.84-1.178l-1.485 1.486a.45.45 0 01-.633 0l-2.201-2.202a.447.447 0 010-.632l1.485-1.486a8.938 8.938 0 01-1.177-2.84h-2.1a.447.447 0 01-.447-.447V38.04c0-.247.2-.448.448-.448h2.099a8.958 8.958 0 011.177-2.84l-1.485-1.486a.447.447 0 010-.632l2.201-2.201a.446.446 0 01.633 0l1.485 1.485a8.94 8.94 0 012.84-1.177v-2.1c0-.247.2-.448.448-.448h3.112c.247 0 .447.2.447.448v2.1a8.943 8.943 0 012.84 1.177l1.487-1.485a.447.447 0 01.633 0l2.2 2.201a.447.447 0 010 .632l-1.485 1.485a8.96 8.96 0 011.177 2.84h2.1a.45.45 0 01.449.449v3.113a.448.448 0 01-.448.447h-2.1a8.969 8.969 0 01-1.178 2.84l1.485 1.486a.45.45 0 01.132.316.448.448 0 01-.132.316l-2.2 2.202a.449.449 0 01-.633 0l-1.486-1.486a8.944 8.944 0 01-2.84 1.177v2.1c0 .248-.2.448-.448.448z" fill="#333"/><path d="M30.274 34.837a4.765 4.765 0 00-4.76 4.76 4.765 4.765 0 004.76 4.76 4.765 4.765 0 004.76-4.76 4.765 4.765 0 00-4.76-4.76zm0 10.414a5.661 5.661 0 01-5.654-5.654 5.661 5.661 0 015.654-5.655 5.66 5.66 0 015.655 5.655 5.661 5.661 0 01-5.655 5.654z" fill="#333"/><path d="M27.107 49.71H7.18C3.221 49.71 0 46.489 0 42.53V12.49c0-3.958 3.221-7.178 7.18-7.178h2.191c.247 0 .447.2.447.446v4.57h14.16v-4.57c0-.247.2-.446.447-.446h2.192c3.959 0 7.18 3.22 7.18 7.179v19.04a.448.448 0 01-.895 0V12.49a6.292 6.292 0 00-6.285-6.285h-1.744v4.57c0 .246-.2.447-.447.447H9.372a.448.448 0 01-.448-.448V6.206H7.181a6.292 6.292 0 00-6.285 6.285v30.04a6.292 6.292 0 006.285 6.284h19.436l.265.001c.585.002 1.09.004 1.256-.16.11-.11.134-.37.134-.57a.447.447 0 01.895 0c0 .552-.126.935-.398 1.205-.387.386-.952.42-1.66.42h-.002z" fill="#333"/><path d="M30.87 29.09a.448.448 0 01-.448-.449V12.49a3.81 3.81 0 00-3.806-3.806h-2.191a.447.447 0 010-.895h2.191c2.592 0 4.7 2.108 4.7 4.7v16.152c0 .247-.2.448-.446.448zm-8.902 18.14H7.18a4.706 4.706 0 01-4.7-4.7V12.49c0-2.591 2.108-4.7 4.7-4.7h2.192a.447.447 0 010 .895H7.179a3.81 3.81 0 00-3.805 3.806v30.04a3.81 3.81 0 003.805 3.805h14.79a.448.448 0 110 .895z" fill="#333"/><path d="M24.425 11.222a.447.447 0 01-.447-.448V4.816h-3.036a.448.448 0 01-.447-.448V2.265c0-.756-.615-1.37-1.37-1.37H14.67c-.755 0-1.37.614-1.37 1.37v2.103c0 .247-.2.448-.448.448H9.817v5.958a.448.448 0 11-.894 0V4.368c0-.247.2-.448.448-.448h3.035V2.265A2.267 2.267 0 0114.671 0h4.454a2.267 2.267 0 012.265 2.265V3.92h3.035c.248 0 .448.201.448.448v6.406c0 .247-.2.448-.448.448z" fill="#333"/><path d="M16.898 3.89c-.95 0-1.722.773-1.722 1.721a1.724 1.724 0 003.445 0c0-.949-.774-1.721-1.723-1.721zm0 4.338a2.62 2.62 0 01-2.617-2.616 2.62 2.62 0 012.617-2.616 2.62 2.62 0 012.617 2.616 2.62 2.62 0 01-2.617 2.616z" fill="#333"/></svg>