<svg width="42" height="49" fill="none" xmlns="http://www.w3.org/2000/svg"><path d="M29.322 12.456a.61.61 0 00-.853.155L18.008 27.73l-7.433-5.144a.61.61 0 00-.853.155L6.65 27.18a.613.613 0 00.155.852l12.377 8.565a.613.613 0 00.852-.156L33.918 16.38a.613.613 0 00-.155-.853l-4.44-3.072zM19.374 35.24L8.006 27.374l2.374-3.432 7.434 5.143c.278.192.66.124.852-.155L29.13 13.812l3.431 2.374-13.186 19.055z" fill="#333"/><path d="M40.997 7.353a.613.613 0 00-.12-.824l-4.42-3.557a.61.61 0 00-.605-.093C26.445 6.54 21.415.483 21.202.217c-.232-.29-.724-.29-.957 0-.05.065-5.208 6.335-14.65 2.662a.61.61 0 00-.605.093L.57 6.528a.614.614 0 00-.12.826c.042.06 4.201 6.195 2.144 10.944-1.64 3.786-5.48 12.65 1.187 21.25 3.555 4.588 7.747 5.636 11.116 6.478 2.426.607 4.342 1.086 5.3 2.677a.612.612 0 001.05 0c.96-1.591 2.876-2.07 5.302-2.677 3.368-.842 7.56-1.89 11.116-6.478 6.665-8.6 2.825-17.464 1.186-21.25-2.053-4.739 2.103-10.883 2.145-10.944zm-4.3 31.445c-3.296 4.252-7.094 5.201-10.444 6.039-2.257.565-4.246 1.062-5.53 2.516-1.282-1.454-3.271-1.952-5.529-2.516-3.35-.838-7.148-1.787-10.444-6.04-5.482-7.073-3.597-14.086-1.029-20.013C5.711 14.19 2.771 8.77 1.77 7.14l3.716-2.992C13.87 7.247 19.159 3.03 20.72 1.5a12.963 12.963 0 003.684 2.537c2.42 1.118 6.372 2.028 11.559.11l3.716 2.992c-1.002 1.632-3.942 7.05-1.953 11.645 2.568 5.927 4.454 12.94-1.029 20.014z" fill="#333"/></svg>