<svg width="375" height="733" fill="none" xmlns="http://www.w3.org/2000/svg"><path opacity=".2" fill-rule="evenodd" clip-rule="evenodd" d="M364.976 732.041c-35.723-10.98-115.67-52.64-149.696-131.499-5.324-12.34-7.169-22.8-6.489-31.856.68-9.06 3.885-16.693 8.624-23.378 8.146-11.492 20.849-20.204 33.051-28.573 1.968-1.35 3.923-2.69 5.844-4.032 6.928-4.841 13.415-9.7 18.507-15.063 5.09-5.36 8.772-11.209 10.111-18.027 2.676-13.629-3.98-31.308-27.999-56.93-36.14-38.551-72.117-53.453-102.611-66.083-10.017-4.148-19.441-8.052-28.085-12.468-17.479-8.929-31.748-19.956-41.16-39.353-9.405-19.383-13.941-47.084-12.053-89.325 1.884-42.164-8.228-65.339-24.964-78.078-16.765-12.761-40.259-15.124-65.325-15.439-6.05-.075-12.194-.032-18.351.012-19.307.137-38.763.274-56.02-3.266-22.796-4.677-41.825-15.784-51.712-41.793l.612-.24c9.785 25.74 28.585 36.735 51.23 41.381 17.184 3.526 36.541 3.389 55.83 3.253h.001c6.171-.044 12.335-.088 18.418-.011 25.058.314 48.757 2.667 65.711 15.572 16.983 12.927 27.115 36.369 25.225 78.64-1.886 42.193 2.653 69.764 11.987 89.001 9.327 19.222 23.462 30.161 40.866 39.053 8.584 4.385 17.969 8.272 27.959 12.409h.001c30.512 12.637 66.67 27.612 102.916 66.277 24.043 25.648 30.911 43.546 28.167 57.518-1.371 6.983-5.137 12.941-10.281 18.358-5.142 5.415-11.676 10.305-18.608 15.149-1.93 1.349-3.891 2.694-5.862 4.046-12.21 8.376-24.8 17.012-32.872 28.4-4.679 6.601-7.833 14.119-8.503 23.04-.669 8.924 1.144 19.274 6.437 31.54 33.918 78.61 113.657 120.178 149.284 131.129l-.19.636zm-128.23-138.546c34.025 78.86 113.972 120.52 149.695 131.499l.191-.636c-35.627-10.95-115.367-52.518-149.285-131.129-5.292-12.265-7.106-22.615-6.436-31.539.669-8.921 3.823-16.439 8.502-23.04 8.072-11.388 20.663-20.025 32.873-28.401a834.722 834.722 0 005.861-4.045c6.932-4.844 13.467-9.734 18.608-15.149 5.144-5.417 8.91-11.376 10.281-18.358 2.744-13.972-4.124-31.871-28.166-57.518-36.247-38.665-72.405-53.64-102.917-66.277h-.001c-9.99-4.137-19.374-8.024-27.959-12.41-17.404-8.891-31.539-19.83-40.866-39.052-9.334-19.237-13.873-46.808-11.986-89.002 1.889-42.27-8.243-65.712-25.226-78.639-16.954-12.906-40.652-15.258-65.71-15.572-6.084-.077-12.248-.033-18.418.01h-.001c-19.29.137-38.647.274-55.83-3.252-22.645-4.646-41.446-15.642-51.231-41.38l-.612.238c9.888 26.01 28.916 37.116 51.713 41.794 17.256 3.54 36.712 3.402 56.019 3.265 6.158-.043 12.3-.087 18.352-.011 25.065.315 48.56 2.678 65.324 15.439 16.736 12.739 26.849 35.914 24.964 78.078-1.888 42.241 2.648 69.942 12.053 89.325 9.412 19.397 23.681 30.424 41.16 39.353 8.644 4.416 18.069 8.319 28.085 12.468 30.494 12.63 66.472 27.532 102.611 66.083 24.019 25.622 30.676 43.3 27.999 56.93-1.339 6.818-5.02 12.667-10.111 18.027-5.092 5.363-11.579 10.222-18.507 15.062a835.3 835.3 0 01-5.843 4.033c-12.203 8.369-24.905 17.081-33.052 28.573-4.739 6.685-7.943 14.318-8.623 23.377-.68 9.057 1.165 19.517 6.489 31.856zm171.16 124.452c-35.723-10.979-115.67-52.639-149.696-131.499-5.324-12.339-7.169-22.799-6.489-31.856.68-9.059 3.885-16.692 8.624-23.377 8.146-11.492 20.849-20.205 33.051-28.573 1.968-1.35 3.923-2.691 5.844-4.033 6.928-4.841 13.415-9.699 18.507-15.062 5.09-5.361 8.772-11.209 10.111-18.027 2.676-13.63-3.98-31.308-27.999-56.93-36.14-38.551-72.117-53.453-102.611-66.083-10.017-4.149-19.441-8.052-28.085-12.468-17.479-8.929-31.748-19.956-41.16-39.353-9.405-19.383-13.941-47.084-12.053-89.325 1.885-42.173-6.506-67.115-20.692-82.465-14.191-15.358-34.241-21.18-55.841-24.972-5.923-1.04-11.965-1.927-18.03-2.817-16.022-2.352-32.214-4.73-46.842-10.013-20.204-7.296-37.476-20.147-47.353-46.129l.612-.239c9.795 25.767 26.9 38.497 46.96 45.742 14.563 5.26 30.655 7.622 46.653 9.97 6.08.893 12.147 1.784 18.111 2.83 21.62 3.796 41.86 9.646 56.21 25.173 14.355 15.535 22.756 40.689 20.867 82.95-1.886 42.194 2.653 69.765 11.987 89.002 9.327 19.222 23.462 30.161 40.866 39.052 8.584 4.386 17.969 8.273 27.959 12.41h.001c30.512 12.637 66.67 27.612 102.916 66.277 24.043 25.647 30.911 43.546 28.167 57.518-1.371 6.982-5.137 12.941-10.281 18.358-5.142 5.415-11.676 10.305-18.608 15.149-1.93 1.348-3.891 2.693-5.862 4.045-12.21 8.376-24.8 17.013-32.872 28.401-4.679 6.601-7.833 14.119-8.503 23.04-.669 8.923 1.144 19.274 6.437 31.539 33.918 78.611 113.657 120.179 149.284 131.129l-.19.636zm21.465-7.046c-35.723-10.98-115.67-52.64-149.696-131.499-5.324-12.34-7.169-22.8-6.489-31.857.68-9.059 3.885-16.692 8.624-23.377 8.146-11.492 20.849-20.204 33.051-28.573h.001c1.967-1.35 3.922-2.69 5.843-4.032 6.928-4.841 13.415-9.7 18.507-15.063 5.09-5.36 8.772-11.209 10.111-18.027 2.676-13.63-3.98-31.308-27.999-56.93-36.857-39.316-74.326-53.275-106.161-65.134-9.628-3.587-18.74-6.981-27.165-10.827-18.136-8.281-33.071-18.658-42.984-37.574-9.905-18.902-14.771-46.285-12.883-88.527 1.885-42.181-4.51-69.18-15.734-87.584-11.221-18.399-27.297-28.254-44.884-36.09-5.828-2.596-11.825-4.97-17.864-7.362C23.269 56.415-8.181 43.963-24.644.66l.612-.239c16.35 43.009 47.5 55.35 77.863 67.38h.002c6.053 2.399 12.076 4.785 17.944 7.4 17.637 7.857 33.855 17.782 45.178 36.348 11.32 18.56 17.72 45.711 15.831 87.963-1.886 42.193 2.983 69.436 12.808 88.185 9.817 18.735 24.607 29.031 42.674 37.28 8.37 3.821 17.445 7.201 27.049 10.778v.001c31.851 11.863 69.509 25.89 106.482 65.33 24.043 25.647 30.911 43.546 28.167 57.518-1.371 6.983-5.137 12.941-10.281 18.358-5.142 5.415-11.676 10.305-18.608 15.149a831.88 831.88 0 01-5.851 4.038l-.011.008c-12.21 8.376-24.8 17.012-32.872 28.4-4.679 6.601-7.833 14.119-8.503 23.04-.669 8.924 1.144 19.274 6.437 31.539 33.918 78.611 113.657 120.179 149.284 131.13l-.19.636z" fill="url(#paint0_linear_330_3473)"/><defs><linearGradient id="paint0_linear_330_3473" x1="-13.027" y1="83.628" x2="522.265" y2="605.086" gradientUnits="userSpaceOnUse"><stop offset=".31" stop-color="#949494"/><stop offset=".594" stop-color="#141414" stop-opacity=".9"/><stop offset=".852" stop-opacity=".8"/></linearGradient></defs></svg>