<svg width="603" height="599" fill="none" xmlns="http://www.w3.org/2000/svg"><path d="M566.058 578.274l-166.057.255s0-10.612 22.858-12.725c0 0 20.818-46.464 52.714-40.229 19.874 3.852 30.066 31.101 30.066 31.101s14.989-21.479 26.979-17.342c11.991 4.137 19.171 26.979 19.171 26.979s12.38 5.966 14.269 11.961z" fill="#fff"/><g filter="url(#filter0_b_622_8)"><path d="M308.499 598.301c162.262 0 293.802-131.54 293.802-293.802 0-162.263-131.54-293.802-293.802-293.802-162.263 0-293.802 131.539-293.802 293.802 0 162.262 131.539 293.802 293.802 293.802z" fill="url(#paint0_radial_622_8)" fill-opacity=".18"/><path d="M600.801 304.499c0 161.434-130.868 292.302-292.302 292.302-161.434 0-292.302-130.868-292.302-292.302 0-161.434 130.868-292.302 292.302-292.302 161.434 0 292.302 130.868 292.302 292.302z" stroke="url(#paint1_radial_622_8)" stroke-width="3"/></g><path d="M595.494 367.644l-4.569-10.111-16.761-1.827-13.436-8.4-14.039-7.564-11.666-16.469-16.159-13.786-8.05 23.08 8.517 13.319 14.33 7.953 7.234 14.972 11.977 9.216 12.833 5.503-4.374 15.439-4.492 16.683-3.247 18.472-17.869-1.128-13.261 10.364-14.661 5.289-14.875-4.57-12.833-11.472-15.75-10.811-17.325-9.177-9.722-16.372-6.319-13.728-7.992-14.408-.292-16.333-.408-16.314-7.155-14.116-5.523 23.624-5.619 14.331.331 15.788-6.009 14.739-7.388 17.5-3.889 17.5 10.266 6.319 16.411 1.244-12.794 15.673-11.667 14.505-12.386 14.019-15.555 11.939-17.811 7.486-17.189 8.672-19.872 3.539-14.252 14.505-19.892 3.325-17.869 9.1-18.413 7.194-19.775.195-13.806-6.942-19.638-.252 8.536-15.206 4.666-13.455 5.834-19.172 3.072-20.417 3.889-19.658 5.405-16.372 6.319-16.722-5.833-18.161 8.4-17.383-9.528-14.836-10.597-12.794-13.611-10.5-8.516-14.311-6.475-14.563-4.744-15.439-2.412-16.722-5.697-17.753 15.381-14.525 9.177-17.674 16.12-10.111 15.438 1.497 17.5 2.061 17.267 3.422 18.88-3.072 14.661 15.341 18.919 6.028 16.858 9.839 16.742 10.091 16.936 10.053 11.977 16.839 18.278 8.264 17.072-1.945 16.586 1.536 16.333 3.539 19.599 6.242-6.183-23.994-6.144-20.106-12.444-6.222-10.189-13.864-14.661-5.502-13.611-6.184-1.731-14.758-4.53-14.661-3.539-15.555-18.744-8.867-19.989-4.336-17.888-3.422-13.067 9.722-17.15 1.206-18.88 2.878-21.389-18.55 12.95-12.483-.447-17.053 8.73-12.93 20.553-9.236 14.194-15.867 16.606 3.52 15.691 9.916h19.016l18.025-7.116 18.822 2.663 14.856-8.341 10.363-12.561 11.375-11.239 17.325-2.47 16.333 8.05h17.15l15.964 3.228 4.725 2.917a294.115 294.115 0 0188.179 279.549z" fill="url(#paint2_radial_622_8)"/><path opacity=".2" d="M330.489 523.062l-8.595 12.288-18.822 4.084-14.758 5.327 21.097 6.961h18.219l15.148-11.452 2.041-9.022-14.33-8.186zm-220.108-2.1l-.35.175a294.266 294.266 0 01-79.722-122.149l-1.458-7.641-2.43-4.744a292.091 292.091 0 01-2.84-153.901l3.559 12.911 4.278 18.122 10.83 16.955-.68 19.814 9.236 17.324 1.944 18.9 1.206 15.556-2.236 15.399-8.964 14.37 5.639 18.647 9.158 16.08 5.639 13.922 2.352 19.172 9.722 13.378 3.89 16.411 10.966 12.774 7.583 14.525 12.678 14zM351.061 24.26l-11.511 4.763-14.7 8.439-14.952 7.933-15.225 7.097-16.878 2.78-15.847 5.115-15.905-5.29-16.489-3.44-15.847-6.028-16.216 1.691-16.742 7.37-13.611 12.891L156.6 83.934l-18.939 6.902-9.975 16.645-10.811 13.708-2.722 18.122-12.872 13.066-5.464 16.645-11.336 13.824-4.51 15.556-14.642-2.139-16.1-3.053-11.044-3.733a293.897 293.897 0 01308.793-176.32l4.083 11.102z" fill="#1053FF"/><path d="M503.909 41.754l-112.908.165s10.642-9.938 15.378-9.938c4.737 0 18.496-33.319 36.167-31.94C460.218 1.42 469.6 26.21 469.6 26.21s21.464-6.76 34.309 15.543zM124.465 94.863l-96.555.15s4.796-6.265 10.087-7.06c0 0 10.237-30.65 27.474-30.906 16.023-.224 22.483 18.81 22.483 18.81s7.404-8.543 14.508-4.645c7.105 3.897 11.122 14.988 11.122 14.988s7.989 4.361 10.881 8.663zm28.642 199.487A579.934 579.934 0 01.001 236.495c0-.105-.09-7.569 20.294 1.304 0-.105 18.526-24.401 47.963-8.274 18.3 9.968 27.848 32.975 27.833 32.975-.015 0 14.029-11.136 25.376-4.916 11.346 6.22 18.121 24.671 18.121 24.686 0 .015 11.721 7.299 13.519 12.08z" fill="#fff"/><path d="M204.772 562.608a581.642 581.642 0 01-108.771-16.487s10.132-4.812 14.674-3.837c4.541.974 17.716-20.594 34.743-16.847 17.026 3.747 26.109 22.812 26.109 22.857 0 .045 20.789-2.698 33.245 14.314z" fill="#EBEBEB"/><path d="M307.951 288.481l-107.768 62.222 107.768 62.223 107.767-62.223-107.767-62.222z" fill="#252561"/><path d="M350.136 388.572l-107.768-62.223 21.559-12.459 107.767 62.222-21.558 12.46z" fill="#37474F"/><path d="M200.183 350.704v99.551l107.768 62.222v-99.551l-107.768-62.222z" fill="#282F73"/><path d="M308.001 412.222v99.551l107.767-62.124V350l-107.767 62.222z" fill="#434993"/><path d="M371.694 376.112v19.45l-2.281-.442-2.036 2.968-2.305-.466-1.987 2.943-2.305-.466-2.012 2.967-2.305-.466-2.011 2.968-2.33-.466-1.987 2.943v-19.473l21.559-12.46z" fill="#263238"/><path d="M307.951 412.926l2.134 95.652 78.924-42.896-81.058 46.795v-99.551z" fill="#535BB6"/><g opacity=".8" fill="#fff"><path opacity=".8" d="M337.112 485.572a.56.56 0 01-.528-.365.565.565 0 01-.036-.223v-12.999a.573.573 0 01.156-.415.575.575 0 01.824-.001c.111.11.173.26.173.416v13.121a.593.593 0 01-.589.466z"/><path opacity=".8" d="M335.42 476.498h-.221a.592.592 0 01-.319-.761l2.085-4.782 2.281 2.673a.558.558 0 01.171.405.55.55 0 01-.045.219.548.548 0 01-.126.185.611.611 0 01-.81 0l-1.103-1.275-1.325 3.066a.616.616 0 01-.588.27zm7.063 6.008a.597.597 0 01-.416-.172.597.597 0 01-.172-.416v-12.999a.589.589 0 111.177 0v12.999a.586.586 0 01-.589.588z"/><path opacity=".8" d="M340.791 473.432h-.245a.573.573 0 01-.31-.317.573.573 0 01.015-.443l2.061-4.758 2.305 2.648a.587.587 0 01.127.185.576.576 0 010 .44.587.587 0 01-.318.313.584.584 0 01-.643-.128l-1.079-1.276-1.349 3.091a.536.536 0 01-.564.245z"/></g><g opacity=".8" fill="#fff"><path opacity=".8" d="M321.661 494.377a1.422 1.422 0 01-.638-.147 1.558 1.558 0 01-.533-.606 1.559 1.559 0 01-.154-.792v-1.594a.567.567 0 01.564-.589.589.589 0 01.589.589v1.594a.593.593 0 000 .368h.392a3.39 3.39 0 001.079-2.625v-6.646a.566.566 0 01.589-.564.563.563 0 01.564.564v6.646a4.41 4.41 0 01-1.643 3.63c-.254.116-.53.174-.809.172z"/><path opacity=".8" d="M315.554 489.03v-1.005a16.385 16.385 0 017.358-12.852 4.9 4.9 0 015.617-.503 4.905 4.905 0 012.378 5.114v.417l-15.353 8.829zm10.865-13.734a5.983 5.983 0 00-2.894.907 15.351 15.351 0 00-6.794 10.816l13.048-7.529a4.39 4.39 0 00-1.79-3.802 3.384 3.384 0 00-1.57-.392z"/></g><path d="M351.068 388.032L243.276 325.81l21.558-12.435 107.792 62.223-21.558 12.434z" fill="#FF10BC"/><path d="M372.626 375.597l-.025 18.861-2.281-.441-2.011 2.943-2.305-.442-1.987 2.943-2.305-.466-2.036 2.968-2.305-.466-2.012 2.968-2.305-.466-1.987 2.943v-18.91l21.559-12.435z" fill="#FF10BC"/><path opacity=".5" d="M243.276 325.81l21.558-11.012 107.792 60.8-107.792-62.223-21.558 12.435z" fill="#fff"/><path d="M317.835 199.574h-20.357v14.814h20.357v-14.814z" fill="#090E3E"/><path d="M317.835 214.363l12.778-13.244v-8.829l-12.778 7.382v14.691zm-20.357 0l-12.753-13.244v-8.829l12.753 7.382v14.691z" fill="#37474F"/><path d="M307.951 413.981a1.156 1.156 0 01-1.128-1.129l-.27-206.018a1.098 1.098 0 011.103-1.129 1.107 1.107 0 011.129 1.104l.294 206.019a1.155 1.155 0 01-1.128 1.128v.025zm107.767-62.15a1.151 1.151 0 01-.956-.539l-90.33-147.377a1.144 1.144 0 01-.198-.422 1.111 1.111 0 01.17-.897 1.129 1.129 0 011.654-.225c.12.101.218.226.287.367l90.33 147.475a1.105 1.105 0 01-.368 1.545 1.257 1.257 0 01-.589.073zm-215.927 0a1.179 1.179 0 01-.589-.171 1.106 1.106 0 01-.318-1.447l90.329-147.377a1.118 1.118 0 01.699-.586 1.129 1.129 0 011.243.444 1.125 1.125 0 01-.029 1.319L200.797 351.39a1.163 1.163 0 01-1.006.441z" fill="#EBEBEB"/><path d="M417.165 149.418c-7.677 0-10.105-49.763-10.105-49.763h20.21s-2.453 49.763-10.105 49.763z" fill="#0C1045"/><path d="M410.077 95.534a15.748 15.748 0 0114.274 0c3.949 2.257 3.949 5.96 0 8.241a15.736 15.736 0 01-14.274 0c-3.948-2.281-3.948-5.984 0-8.24z" fill="#090E3E"/><path d="M198.687 149.418c7.653 0 10.081-49.763 10.081-49.763h-20.185s2.452 49.763 10.104 49.763" fill="#0C1045"/><path d="M205.824 95.534a15.744 15.744 0 00-14.274 0c-3.948 2.281-3.948 5.96 0 8.241a15.74 15.74 0 0014.274 0c3.925-2.281 3.925-5.96 0-8.24z" fill="#090E3E"/><path d="M200.576 121.63l76.496 61.83-76.496 61.83 7.652 4.415 99.428-48.586 99.453 48.586 7.652-4.415-76.496-61.83 76.496-61.83-7.652-4.439-99.453 48.586-99.453-48.586-7.627 4.439z" fill="#E0E0E0"/><path d="M208.228 240.876l99.428-57.416 99.453 57.416 7.652-4.415-76.496-70.684 76.496-53.001-7.652-4.414-99.453 39.756-99.453-39.756-7.627 4.414 76.496 53.001-76.496 70.684 7.652 4.415z" fill="#F5F5F5"/><path d="M407.109 240.876v8.829l7.652-4.414v-8.83l-7.652 4.415z" fill="#E0E0E0"/><path d="M307.656 183.461v17.658l99.453 48.586v-8.829l-99.453-57.415zm-107.08-70.685l76.496 53.001-12.018 9.467-64.478-53.614v-8.854z" fill="#EBEBEB"/><path d="M338.265 165.777l12.018 9.467 64.478-53.614v-8.854l-76.496 53.001z" fill="#E0E0E0"/><path d="M321.514 157.708h-27.69c-.799 0-1.447.648-1.447 1.447v13.269c0 .799.648 1.447 1.447 1.447h27.69c.799 0 1.447-.648 1.447-1.447v-13.269c0-.799-.648-1.447-1.447-1.447z" fill="#FF10BC"/><path d="M208.228 240.876v8.829l-7.652-4.414v-8.83l7.652 4.415z" fill="#EBEBEB"/><path d="M415.89 284.213c-7.677 0-10.105-49.788-10.105-49.788h20.185s-2.452 49.788-10.08 49.788z" fill="#0C1045"/><path d="M408.753 230.305a15.751 15.751 0 0114.274 0c3.949 2.281 3.949 5.985 0 8.241a15.748 15.748 0 01-14.274 0c-3.851-2.256-3.851-6.058 0-8.241z" fill="#090E3E"/><path d="M199.448 284.213c7.676 0 10.105-49.788 10.105-49.788h-20.21s2.453 49.788 10.105 49.788z" fill="#0C1045"/><path d="M206.585 230.305a15.751 15.751 0 00-14.274 0c-3.949 2.281-3.949 5.985 0 8.241a15.748 15.748 0 0014.274 0c3.949-2.256 3.949-6.058 0-8.241z" fill="#090E3E"/><path opacity=".3" d="M455.279 209.311l-39.389 22.736-39.389-22.736c21.73-12.557 56.999-12.557 78.778 0z" fill="#FF10BC"/><path opacity=".1" d="M455.279 254.782l-39.389-22.735 39.389-22.736c21.73 12.557 21.73 32.987 0 45.471z" fill="#FF10BC"/><path opacity=".3" d="M455.279 254.782c-21.779 12.557-57.048 12.557-78.778 0l39.389-22.736 39.389 22.736z" fill="#FF10BC"/><path opacity=".1" d="M415.89 232.047l-39.389 22.735c-21.73-12.557-21.73-32.914 0-45.471l39.389 22.736z" fill="#FF10BC"/><path d="M421.703 234.94v-2.452h-1.913a9.218 9.218 0 00-7.799 0h-1.913v2.452a2.893 2.893 0 001.692 2.453 9.14 9.14 0 008.216 0 2.886 2.886 0 001.2-.987c.303-.432.482-.939.517-1.466z" fill="#FF10BC"/><path opacity=".3" d="M421.703 234.94v-2.452h-1.913a9.218 9.218 0 00-7.799 0h-1.913v2.452a2.893 2.893 0 001.692 2.453 9.14 9.14 0 008.216 0 2.886 2.886 0 001.2-.987c.303-.432.482-.939.517-1.466z" fill="#000"/><path d="M419.986 230.035a9.159 9.159 0 00-8.216 0 2.454 2.454 0 00-1.338 3.888c.337.431.807.737 1.338.87a9.14 9.14 0 008.216 0 2.452 2.452 0 000-4.758z" fill="#FF10BC"/><path d="M417.926 231.286a4.57 4.57 0 00-4.072 0c-1.128.662-1.128 1.717 0 2.453a4.425 4.425 0 004.072 0c1.128-.736 1.128-1.791 0-2.453z" fill="#090E3E"/><path opacity=".3" d="M238.836 209.311l-39.388 22.736-39.389-22.736c21.656-12.557 56.998-12.557 78.777 0z" fill="#FF10BC"/><path opacity=".1" d="M238.837 254.782l-39.389-22.735 39.389-22.736c21.73 12.557 21.73 32.987 0 45.471z" fill="#FF10BC"/><path opacity=".3" d="M238.836 254.782c-21.779 12.557-57.023 12.557-78.777 0l39.389-22.736 39.388 22.736z" fill="#FF10BC"/><path opacity=".1" d="M199.447 232.047l-39.388 22.735c-21.73-12.557-21.73-32.914 0-45.471l39.388 22.736z" fill="#FF10BC"/><path d="M205.26 234.94v-2.452h-1.913a9.218 9.218 0 00-7.799 0h-1.913v2.452a2.894 2.894 0 001.717 2.453 9.14 9.14 0 008.216 0 2.895 2.895 0 001.692-2.453z" fill="#FF10BC"/><path opacity=".3" d="M205.26 234.94v-2.452h-1.913a9.218 9.218 0 00-7.799 0h-1.913v2.452a2.894 2.894 0 001.717 2.453 9.14 9.14 0 008.216 0 2.895 2.895 0 001.692-2.453z" fill="#000"/><path d="M203.568 230.035a9.156 9.156 0 00-8.216 0 2.452 2.452 0 000 4.758 9.143 9.143 0 008.216 0 2.452 2.452 0 000-4.758z" fill="#FF10BC"/><path d="M201.483 231.286a4.563 4.563 0 00-4.071 0c-1.128.662-1.128 1.717 0 2.453a4.425 4.425 0 004.071 0c1.128-.736 1.128-1.791 0-2.453z" fill="#090E3E"/><path opacity=".3" d="M456.603 74.418l-39.438 22.735-39.241-22.735c21.656-12.558 56.9-12.558 78.679 0z" fill="#FF10BC"/><path opacity=".1" d="M456.603 119.889l-39.438-22.736 39.389-22.735c21.779 12.557 21.779 32.987.049 45.471z" fill="#FF10BC"/><path opacity=".3" d="M456.603 119.889c-21.779 12.557-57.023 12.557-78.778 0l39.34-22.736 39.438 22.736z" fill="#FF10BC"/><path opacity=".1" d="M417.165 97.153l-39.241 22.736c-21.73-12.557-21.73-32.914 0-45.471l39.241 22.735z" fill="#FF10BC"/><path d="M423.027 100.048v-2.453h-1.913a9.222 9.222 0 00-7.799 0h-1.913v2.453a2.894 2.894 0 001.717 2.452 9.14 9.14 0 008.216 0 2.895 2.895 0 001.692-2.452z" fill="#FF10BC"/><path opacity=".3" d="M423.027 100.048v-2.453h-1.913a9.222 9.222 0 00-7.799 0h-1.913v2.453a2.894 2.894 0 001.717 2.452 9.14 9.14 0 008.216 0 2.895 2.895 0 001.692-2.452z" fill="#000"/><path d="M421.335 95.142a9.002 9.002 0 00-8.216 0 2.453 2.453 0 000 4.734 8.996 8.996 0 008.216 0 2.454 2.454 0 000-4.734z" fill="#FF10BC"/><path d="M419.25 96.393a4.568 4.568 0 00-4.072 0c-1.128.662-1.128 1.717 0 2.452a4.415 4.415 0 004.072 0c1.128-.735 1.128-1.79 0-2.452z" fill="#090E3E"/><path opacity=".3" d="M238.125 74.418l-39.364 22.735-39.389-22.735c21.656-12.558 56.925-12.558 78.753 0z" fill="#FF10BC"/><path opacity=".1" d="M238.125 119.889l-39.364-22.736 39.364-22.735c21.681 12.557 21.681 32.987 0 45.471z" fill="#FF10BC"/><path opacity=".3" d="M238.125 119.889c-21.755 12.557-57.023 12.557-78.753 0l39.389-22.736 39.364 22.736z" fill="#FF10BC"/><path opacity=".1" d="M198.687 97.153l-39.389 22.736c-21.73-12.484-21.73-32.914 0-45.471l39.389 22.735z" fill="#FF10BC"/><path d="M204.5 100.048v-2.453h-1.913a9.222 9.222 0 00-7.799 0h-1.913v2.453a2.893 2.893 0 001.692 2.452 9.142 9.142 0 008.216 0 2.886 2.886 0 001.2-.987c.303-.432.482-.939.517-1.465z" fill="#FF10BC"/><path opacity=".3" d="M204.5 100.048v-2.453h-1.913a9.222 9.222 0 00-7.799 0h-1.913v2.453a2.893 2.893 0 001.692 2.452 9.142 9.142 0 008.216 0 2.886 2.886 0 001.2-.987c.303-.432.482-.939.517-1.465z" fill="#000"/><path d="M202.783 95.142a8.999 8.999 0 00-8.216 0 2.45 2.45 0 00-1.81 2.367 2.453 2.453 0 001.81 2.367 8.996 8.996 0 008.216 0 2.45 2.45 0 001.81-2.367 2.453 2.453 0 00-1.81-2.367z" fill="#FF10BC"/><path d="M200.723 96.393a4.637 4.637 0 00-4.096 0 1.251 1.251 0 000 2.452 4.466 4.466 0 004.096 0c1.128-.735 1.128-1.79 0-2.452z" fill="#090E3E"/><path d="M310.943 163.815a7.351 7.351 0 00-6.597 0 2.012 2.012 0 000 3.777 7.156 7.156 0 006.548 0 2.014 2.014 0 001.345-1.871 2.016 2.016 0 00-1.296-1.906z" fill="#FAFAFA"/><path d="M498.557 366.734c-.389-3.882-2.997-7.734-7.749-7.734-4.751 0-7.359 3.852-7.749 7.734-.599 5.995 3.448 11.406 7.749 16.352 4.302-4.916 8.349-10.372 7.749-16.352zm-7.749 4.301a4.24 4.24 0 01-3.919-2.618 4.24 4.24 0 01.92-4.623 4.245 4.245 0 014.623-.919 4.236 4.236 0 011.371 6.914 4.257 4.257 0 01-2.995 1.246z" fill="#1053FF"/><path d="M69.838 410.372C69.328 405.171 65.746 400 59.45 400c-6.295 0-9.863 5.171-10.372 10.372-.795 8.018 4.616 15.273 10.372 21.898 5.785-6.655 11.181-13.91 10.387-21.898zm-10.387 5.755a5.681 5.681 0 115.695-5.681 5.68 5.68 0 01-5.695 5.651v.03z" fill="#FFE710"/><path d="M503.837 162.357c-.51-5.186-4.092-10.357-10.387-10.357-6.295 0-9.862 5.171-10.372 10.357-.794 8.018 4.616 15.288 10.372 21.913 5.785-6.565 11.211-13.895 10.387-21.913zm-10.387 5.77a5.693 5.693 0 01-5.264-3.519 5.702 5.702 0 011.242-6.209 5.693 5.693 0 016.212-1.225 5.692 5.692 0 013.505 5.272 5.687 5.687 0 01-1.669 4.023 5.695 5.695 0 01-4.026 1.658z" fill="#10FFD4"/><path d="M78.558 147.734c-.39-3.882-2.998-7.734-7.749-7.734-4.751 0-7.36 3.852-7.749 7.734-.6 5.995 3.447 11.406 7.75 16.352 4.3-4.946 8.348-10.372 7.748-16.352zm-7.749 4.286a4.24 4.24 0 01-.828-8.402 4.248 4.248 0 014.355 1.804 4.245 4.245 0 01-.528 5.356 4.234 4.234 0 01-2.999 1.242z" fill="#1053FF"/><path d="M274.838 21.357C274.328 16.17 270.746 11 264.451 11c-6.295 0-9.862 5.17-10.372 10.357-.794 8.018 4.617 15.273 10.372 21.898 5.771-6.625 11.181-13.88 10.387-21.899zm-10.387 5.77a5.694 5.694 0 01-5.586-6.807 5.694 5.694 0 115.586 6.807z" fill="#FF10BC"/><defs><radialGradient id="paint0_radial_622_8" cx="0" cy="0" r="1" gradientUnits="userSpaceOnUse" gradientTransform="rotate(83.111 117.49 144.37) scale(633.542 679.666)"><stop stop-color="#000105" stop-opacity=".58"/><stop offset=".961" stop-color="#0C1138" stop-opacity=".1"/></radialGradient><radialGradient id="paint1_radial_622_8" cx="0" cy="0" r="1" gradientUnits="userSpaceOnUse" gradientTransform="rotate(127.341 177.809 73.336) scale(887.249 887.256)"><stop offset=".201" stop-color="#0303FF" stop-opacity="0"/><stop offset=".323" stop-color="#fff"/><stop offset=".417" stop-color="#000BFF" stop-opacity="0"/><stop offset=".536" stop-color="#fff" stop-opacity="0"/><stop offset="1" stop-color="#fff" stop-opacity="0"/></radialGradient><radialGradient id="paint2_radial_622_8" cx="0" cy="0" r="1" gradientUnits="userSpaceOnUse" gradientTransform="matrix(-184.84836 390.87315 -367.67992 -173.88002 566.764 151.671)"><stop offset=".025" stop-color="#fff"/><stop offset=".399" stop-color="#1053FF"/><stop offset=".679" stop-color="#1053FF" stop-opacity="0"/></radialGradient><filter id="filter0_b_622_8" x="-34.303" y="-38.303" width="685.604" height="685.604" filterUnits="userSpaceOnUse" color-interpolation-filters="sRGB"><feFlood flood-opacity="0" result="BackgroundImageFix"/><feGaussianBlur in="BackgroundImage" stdDeviation="24.5"/><feComposite in2="SourceAlpha" operator="in" result="effect1_backgroundBlur_622_8"/><feBlend in="SourceGraphic" in2="effect1_backgroundBlur_622_8" result="shape"/></filter></defs></svg>