<svg width="693" height="596" fill="none" xmlns="http://www.w3.org/2000/svg"><path d="M560.941 156.76l131.314-.21s-6.55-8.483-13.745-9.547c0 0-14.059-41.653-37.471-41.968-21.793-.239-30.486 25.675-30.486 25.675s-10.117-11.601-19.755-6.28c-9.637 5.321-14.988 20.549-14.988 20.549s-10.942 5.786-14.869 11.781z" fill="url(#paint0_radial_1_1948)" fill-opacity=".06"/><path d="M206.478 302.634l-166.057.255s0-10.612 22.858-12.725c0 0 20.818-46.464 52.714-40.214 19.874 3.852 30.067 31.101 30.067 31.101s14.988-21.478 26.979-17.342c11.99 4.137 19.17 26.98 19.17 26.98s12.38 5.95 14.269 11.945z" fill="url(#paint1_radial_1_1948)" fill-opacity=".06"/><path d="M577.863 595.53l-166.056.255s0-10.612 22.857-12.725c0 0 20.819-46.464 52.715-40.229 19.874 3.852 30.066 31.101 30.066 31.101s14.989-21.478 26.979-17.342c11.991 4.137 19.17 26.98 19.17 26.98s12.381 5.965 14.269 11.96zm-2.398-553.776l-112.907.165s10.642-9.937 15.378-9.937c4.736 0 18.496-33.32 36.167-31.94 17.671 1.379 27.054 26.17 27.054 26.17s21.463-6.76 34.308 15.542z" fill="#EBEBEB"/><path d="M112.922 540.193L0 540.388s10.641-9.922 15.378-9.937c4.736-.015 18.51-33.319 36.167-31.926 17.656 1.394 27.084 26.17 27.084 26.17s21.448-6.79 34.293 15.498z" fill="url(#paint2_radial_1_1948)" fill-opacity=".06"/><path d="M203.154 74.864l-96.555.15s4.796-6.266 10.087-7.06c0 0 10.237-30.651 27.474-30.906 16.022-.225 22.482 18.81 22.482 18.81s7.404-8.543 14.509-4.646c7.104 3.897 11.121 14.988 11.121 14.988s7.989 4.362 10.882 8.664z" fill="#EBEBEB"/><g filter="url(#filter0_b_1_1948)"><path d="M644.918 300.604a267.108 267.108 0 01-51.26 157.768 268.403 268.403 0 01-238.2 109.817 268.4 268.4 0 01-247.133-278.117A268.405 268.405 0 01245.386 66.435a268.396 268.396 0 01131.15-34.213c7.364 0 14.654.295 21.868.884a266.491 266.491 0 01117.419 38.056 268.281 268.281 0 0194.625 97.798 268.283 268.283 0 0134.47 131.644z" fill="url(#paint3_radial_1_1948)" fill-opacity=".18"/><path d="M643.418 300.603v.003a265.607 265.607 0 01-50.972 156.882l1.212.884-1.214-.882a266.888 266.888 0 01-236.868 109.203 266.896 266.896 0 0120.96-532.971c7.324 0 14.573.293 21.746.88h.003a264.997 264.997 0 01116.758 37.84l.002.002a266.789 266.789 0 01128.373 228.159z" stroke="url(#paint4_radial_1_1948)" stroke-width="3"/></g><g opacity=".2"><path opacity=".2" d="M434.496 427.271c-3.387 8.993 2.249 9.398 2.623 13.16.375 3.762 0 10.896-10.896 21.808-10.897 10.911-28.943 8.633-32.705 13.145-3.762 4.511-10.147 23.681-19.17 30.081-9.023 6.4-10.492 2.623-23.307 5.261-12.815 2.638-22.468 19.2-26.305 27.054-3.837 7.854.75 21.059-8.273 21.434-9.023.374-13.16-19.17-21.419-29.692-8.258-10.522-10.911-19.935-13.489-32.33-2.578-12.396 1.499-38.341 0-48.488-1.499-10.147-28.613-28.193-38.415-40.603-9.803-12.411-23.277-37.201-22.483-45.475a33.576 33.576 0 0111.271-20.669c4.497-3.387 2.638-5.261 3.388-8.274.749-3.012 4.496-3.762 5.261-7.494.764-3.732-2.249-14.988-5.996-16.907-3.747-1.918-6.385 4.497-8.648 3.373-2.263-1.124-8.993-8.993-11.646-9.773-2.653-.779-1.889 4.886-5.636-2.248s-5.65-25.18-8.648-28.193c-2.998-3.013-5.261 5.261-12.41 0-7.15-5.261-10.147-15.408-13.16-16.907-3.013-1.499-7.135.375-10.222-5.651-3.088-6.025 2.713-16.907 0-15.782-2.713 1.124-8.559 9.772-10.072 1.498-1.514-8.273 7.494-36.077 5.995-51.11-1.499-15.033 3.747-30.831 14.269-43.601 0 0 1.499-8.274 2.998-13.49 1.498-5.216 33.828-26.304 37.59-32.33 1.499-2.503 2.084-6.445 2.653-10.686a267.183 267.183 0 01158.892-52.16c7.365 0 14.654.295 21.868.884l.75 1.005c3.252 4.121 6.774 6.76 16.292 10.267 9.518 3.507 11.781 8.018 9.773 11.78-2.009 3.762-5.261 4.497-8.993 4.767-3.733.27-7.27-1.769-11.272.75-4.002 2.517-8.019 16.037-13.279 16.786-5.261.75-14.539-11.99-16.488-15.783-1.948-3.792 4.497-11.78 1.499-15.543-2.998-3.762-8.453-2.997-16.982-3.762-8.528-.764-28.298 2.518-27.548 5.77.749 3.253 29.062-.509 29.812 5.996.749 6.505-20.789 17.537-24.551 16.487-3.763-1.049-8.769-7.494-14.284-8.258-5.516-.765-10.028 3.747-13.49 4.256-3.462.51-7.494-3.762-12.83-2.757-5.336 1.004-6.505 5.515-9.278 7.269-2.773 1.754-9.263 1.754-10.012 5.756-.749 4.002 8.274 6.28 10.492 8.783 2.218 2.503-2.758 11.016-.51 12.77 2.248 1.754 16.293-10.492 19.815-13.49 3.522-2.997 6.505-16.022 14.029-15.782 7.524.24 10.027 13.025 12.53 14.284 2.503 1.259 8.019-2.998 16.278-1.26 8.258 1.74 14.029 19.8 15.543 25.316 1.513 5.516 5.006 11.031 2.008 13.28-2.998 2.248-16.487-1.499-18.301-5.007-1.813-3.507 8.993-8.783 8.274-10.027-.72-1.244-7.015-2.997-10.282-1.049-3.268 1.949-4.751 5.995-8.259 7.06-3.507 1.064-12.785-9.518-15.288-6.505-2.503 3.012 2.503 12.53 5.006 14.778 2.503 2.248 11.781 3.507 12.53 5.995.75 2.489-6.265 8.019-14.778 7.495-8.513-.525-15.543-7.015-18.796-4.257-3.252 2.758-1.498 10.012-3.762 12.53-2.263 2.518-14.538.75-20.549 7.255-6.01 6.505-8.888 16.352-14.883 21.868-5.995 5.515-8.768-1.499-16.787 6.265-8.019 7.764-9.278 25.06-9.533 31.071-.255 6.01 0 10.776-1.993 10.027-1.994-.749-4.767-5.995-5.516-9.278-.749-3.282 1.754-8.768 1.754-10.776 0-2.009-11.526-12.276-18.301-13.28-6.775-1.004-12.785 4.496-17.791 8.513-5.006 4.017-14.029 3.268-17.282 6.52-3.252 3.253-5.77 32.075-3.267 38.85 2.503 6.775 5.77 6.76 13.789 3.253 8.019-3.508 3.507-10.282 8.274-8.769 4.766 1.514 7.254 6.52 7.254 10.492 0 3.972-9.518 13.49-8.259 16.293 1.259 2.802 9.518-.51 13.49.749 3.972 1.259 5.995 3.762 4.766 14.029s-.494 18.301 5.516 21.673c6.01 3.373 9.398-4.886 11.991-3.747 2.593 1.139 6.4 7.135 10.162 6.76 3.762-.375 1.873-3.762 8.993-5.995 7.119-2.234 4.496-3.762 5.995-8.274 1.499-4.511 5.995-8.273 10.897-5.995 4.901 2.278 1.498 5.635 1.873 9.397.375 3.763 8.993 4.137 15.798 6.386 6.805 2.248 10.492 0 23.981 4.496 13.49 4.497 14.284 17.986 19.92 20.294 5.636 2.309 24.431-1.499 37.966 8.274 13.534 9.772 9.772 27.818 16.487 33.079 6.715 5.261 31.955 12.396 41.727 14.284 9.773 1.889 11.272-4.886 19.171-2.997 7.898 1.888 12.395 4.136 14.988 14.988 2.563 9.637-26.814 29.737-30.187 38.76z" fill="#747FEF"/><path opacity=".2" d="M232.513 235.075c.255 2.128 6.52 2.998 14.029 7.269 7.509 4.272 10.282 16.787 14.284 16.487 4.002-.299 2.758-5.995 4.272-7.494 1.513-1.499 4.002-4.766 0-8.019-4.002-3.252-7.914-10.282-15.244-11.286-7.329-1.004-8.573-4.002-11.825-3.747a5.67 5.67 0 00-5.465 4.312 5.677 5.677 0 00-.051 2.478zm41.353 21.043c-1.124 3.073 0 5.276 8.019 7.27 8.018 1.993 15.527-1.994 13.024-3.627-2.503-1.634-6.265-.885-4.751-3.643 1.514-2.757.989-6.759-5.531-5.995-6.52.765-9.757 3.253-10.761 5.995zm28.058.855c-2.728.404-4.257 5.171-1.499 8.168 2.758 2.998 2.758 2.503 5.995 0 3.238-2.503 8.274-3.747 7.015-6.25-1.259-2.503-8.753-2.308-11.511-1.918zm21.808 10.252c1.229-3.762 7.494 0 10.267 3.942 2.773 3.942 1.499 9.772 0 14.029s-2.503 9.263-5.995 7.269c-3.493-1.993.254-8.018-.255-11.526-.51-3.507-5.021-10.642-4.017-13.714zM431.739 58.167c-1.319 3.148 4.751 4.257 8.258 6.265 3.507 2.008 6.265 3.252 8.274 0 2.008-3.252-.75-7.03-3.508-7.779-2.757-.75-11.78-1.499-13.024 1.514zm47.348 29.317c2.323 2.428 6.265 1.994 8.993 5.516 2.728 3.522 1.753 9.517 5.261 11.271 3.507 1.754 5.995 0 6.265-2.503.27-2.503-5.006-8.768-4.497-10.027.51-1.26 7.27 1.754 8.783 5.516 1.514 3.762-1.498 8.993 1.994 10.012 3.492 1.019 2.758-3.507 4.272-4.497 1.513-.989 4.751-.509 4.496-3.522-.255-3.013-4.272-9.518-7.494-11.766-3.223-2.248-5.771-4.766-11.271-5.995-5.501-1.23-10.777-.24-13.49 2.008-2.713 2.249-4.736 2.473-3.312 3.987zm108.426 47.229a4.498 4.498 0 01-1.409 2.638c-5.276 3.747-11.541-9.278-18.796-11.781-7.254-2.503-10.491-11.781-11.99-9.773-1.499 2.009-1.005 4.767-3.253 8.019s-5.516 2.503-7.014 8.768c-1.499 6.265 7.014 17.791 5.006 21.553-2.009 3.763-4.497 2.504-8.529 2.264-4.032-.24-3.252 3.252-8.498 1.738-5.246-1.513-.764-8.018-8.993-15.782-8.229-7.764-11.032-9.263-9.263-12.785 1.769-3.523-.749-8.514 2.998-8.994 3.747-.479 6.775 5.007 9.278 6.505 2.503 1.499 5.755-2.997 5.995-7.014.24-4.017-8.768-9.518-11.991-12.635-3.222-3.118-3.627-14.45-2.368-16.667 1.259-2.219 5.021-1.5 5.995-7.015.585-3.237-4.496-8.648-8.873-12.56a269.625 269.625 0 0171.705 63.521z" fill="#000"/><path opacity=".2" d="M624.939 359.373c.749-8.018-3.268-8.528.749-23.306 4.017-14.779-4.256-30.577-7.269-33.829-3.013-3.253-9.518-2.264-14.779 1.004-5.261 3.267-1.498 5.755-5.021 7.014-3.522 1.26-7.014-.764-10.267-.509-3.252.255-6.265 8.528-13.28 8.273-7.014-.254-11.526-10.282-16.787-17.416-5.26-7.134-16.052-11.646-19.484-20.429-3.433-8.783 3.252-22.288 1.753-32.57-1.499-10.282-8.273-8.019-9.532-13.774-1.259-5.756 1.004-2.998 2.757-8.529 1.754-5.53-2.008-8.513 1.499-17.986 3.508-9.472 9.773-14.284 8.259-18.54-1.514-4.257-6.265-11.272-6.52-16.278-.255-5.006 4.766-4.766 14.284-11.796 9.518-7.029 11.991-6.505 19.305-4.002a103.733 103.733 0 0016.037 4.497c4.257.749 10.028 11.781 11.781 11.271 1.754-.509 2.009-3.747 2.758-8.513a10.66 10.66 0 013.118-5.396 268.504 268.504 0 01-10.597 299.858c25.51-39.06 30.471-91.04 31.236-99.044z" fill="#fff"/></g><path opacity=".1" d="M584.455 470.303a268.394 268.394 0 01-364.806 48.11A268.396 268.396 0 01376.536 32.222c7.364 0 14.659.295 21.883.884 1.993.15 3.987.33 5.995.555a245.935 245.935 0 00-184.92 118.944 245.92 245.92 0 00-15.892 219.296A245.933 245.933 0 00482.37 518.65a245.947 245.947 0 00102.085-48.347z" fill="#000"/><path opacity=".7" d="M432.072 238.207a579.825 579.825 0 00125.543-25.615s-6.116-4.272-12.891-2.998c0 0-13.144-26.514-35.492-21.568-20.789 4.497-29.242 24.716-29.227 24.791.015.075-9.698-6.835-19.021-1.619-9.322 5.216-14.598 16.982-14.598 16.982s-10.507 5.426-14.314 10.027z" fill="url(#paint5_radial_1_1948)"/><path d="M252.796 278.061a579.935 579.935 0 01-153.107-57.855c0-.105-.09-7.569 20.294 1.304 0-.105 18.526-24.401 47.963-8.274 18.301 9.968 27.849 32.975 27.834 32.975-.015 0 14.029-11.136 25.375-4.916 11.346 6.22 18.121 24.671 18.121 24.686 0 .015 11.721 7.299 13.52 12.08zm410.753-41.32a580.436 580.436 0 01-153.106 57.855c0-.105 0-7.494 21.763-14.643 0-.105 19.905-38.97 49.462-45.04 18.406-3.882 27.608 11.99 27.623 12.095.015.105 13.715-21.583 24.491-23.726 10.777-2.144 17.102 11.331 17.102 11.361 0 .03 11.032-1.319 12.665 2.098zM399.562 132.374a581.852 581.852 0 01-109.565-6.58s10.282-5.74 14.853-5.171c4.572.57 17.986-22.213 35.103-20.009 17.117 2.203 26.275 20.444 26.275 20.489 0 .045 20.879-4.602 33.334 11.271zm-52.279 420.08a581.641 581.641 0 01-108.771-16.488s10.132-4.811 14.673-3.837c4.542.975 17.717-20.594 34.744-16.847 17.026 3.748 26.109 22.813 26.109 22.858 0 .045 20.789-2.698 33.245 14.314z" fill="#EBEBEB"/><path opacity=".7" d="M237.058 411.098a579.029 579.029 0 01-89.931-30.771 12.423 12.423 0 019.203-1.259s9.383-18.511 25.376-12.845c14.883 5.186 20.983 20.984 20.983 20.984a13.068 13.068 0 0113.64.749c6.685 4.841 10.492 14.074 10.492 14.074s7.479 5.231 10.237 9.068z" fill="#DBDBDB"/><path d="M619.082 373.147c-.39-3.882-2.998-7.734-7.749-7.734-4.752 0-7.36 3.852-7.749 7.734-.6 5.996 3.447 11.407 7.749 16.353 4.301-4.916 8.348-10.372 7.749-16.353zm-7.749 4.302a4.245 4.245 0 01-3.919-2.618 4.24 4.24 0 01.919-4.623 4.249 4.249 0 012.172-1.161 4.248 4.248 0 014.355 1.804 4.24 4.24 0 01.715 2.356 4.258 4.258 0 01-4.242 4.242z" fill="#1053FF"/><path d="M366.483 480.509c-.51-5.201-4.092-10.372-10.387-10.372-6.295 0-9.863 5.171-10.372 10.372-.795 8.019 4.616 15.273 10.372 21.898 5.785-6.655 11.181-13.909 10.387-21.898zm-10.387 5.756a5.68 5.68 0 115.695-5.681 5.683 5.683 0 01-5.695 5.651v.03z" fill="#FFE710"/><path d="M576.14 175.885c-.51-5.186-4.092-10.357-10.387-10.357-6.295 0-9.862 5.171-10.372 10.357-.794 8.019 4.617 15.289 10.372 21.913 5.786-6.564 11.211-13.894 10.387-21.913zm-10.387 5.771a5.693 5.693 0 01-5.263-3.52 5.69 5.69 0 011.241-6.208 5.695 5.695 0 019.718 4.047 5.688 5.688 0 01-1.669 4.022 5.682 5.682 0 01-4.027 1.659z" fill="#10FFD4"/><path d="M428.474 390.444c-.39-3.882-2.997-7.749-7.749-7.749-4.751 0-7.374 3.867-7.749 7.749-.599 5.995 3.433 11.406 7.749 16.352 4.302-4.946 8.349-10.372 7.749-16.352zm-7.749 4.302a4.259 4.259 0 01-4.19-5.084 4.25 4.25 0 013.348-3.349 4.264 4.264 0 014.373 1.821 4.259 4.259 0 01-.536 5.365 4.254 4.254 0 01-2.995 1.247zm-152.641-80.473c-.39-3.882-2.998-7.734-7.749-7.734-4.752 0-7.36 3.852-7.749 7.734-.6 5.995 3.447 11.406 7.749 16.352 4.301-4.946 8.348-10.372 7.749-16.352zm-7.749 4.362a4.25 4.25 0 01-2.353-.722 4.25 4.25 0 01-1.556-1.907 4.247 4.247 0 013.102-5.774 4.237 4.237 0 015.063 4.161 4.231 4.231 0 01-2.626 3.927 4.22 4.22 0 01-1.63.315zm-80.878-139.182c-.389-3.882-2.997-7.734-7.749-7.734-4.751 0-7.359 3.852-7.749 7.734-.599 5.995 3.448 11.406 7.749 16.352 4.302-4.946 8.349-10.372 7.749-16.352zm-7.749 4.286a4.236 4.236 0 01-4.16-5.069 4.245 4.245 0 013.333-3.333 4.248 4.248 0 014.354 1.804 4.245 4.245 0 01-.527 5.356 4.243 4.243 0 01-3 1.242z" fill="#1053FF"/><path d="M284.961 109.112c-.51-5.186-4.092-10.357-10.387-10.357-6.295 0-9.863 5.171-10.372 10.357-.795 8.019 4.616 15.273 10.372 21.898 5.77-6.625 11.181-13.879 10.387-21.898zm-10.387 5.771a5.696 5.696 0 110-11.393 5.696 5.696 0 010 11.393z" fill="#FF10BC"/><g opacity=".6"><path opacity=".6" d="M367.876 438.902s-258.249 56.221-284.03 12.32c-11.99-20.474 44.546-50.886 44.546-50.886s-37.62 26.8-20.459 37.351c32 19.65 208.653-24.97 208.653-24.97l51.29 26.185z" fill="url(#paint6_radial_1_1948)"/><path opacity=".6" d="M214.245 470.332l38.61-5.65c6.43-.975 12.86-1.814 19.276-2.848 6.415-1.034 12.83-1.934 19.245-2.998 6.415-1.064 12.815-2.023 19.2-3.147 6.385-1.125 12.755-2.279 19.17-3.328a1411.676 1411.676 0 0038.205-7.734 325.213 325.213 0 01-37.471 11.166 466.877 466.877 0 01-19.14 4.077c-6.4 1.229-12.83 2.308-19.26 3.403-6.43 1.094-12.89 1.918-19.365 2.713-3.222.389-6.46.779-9.697 1.124-3.238.344-6.49.719-9.728.989-13.07 1.259-26.08 2.143-39.045 2.233z" fill="url(#paint7_radial_1_1948)"/><path opacity=".6" d="M116.716 417.678a15.979 15.979 0 00-2.218 4.736 9.917 9.917 0 00-.3 2.443 5.55 5.55 0 00.555 2.189 7.029 7.029 0 003.207 3.117 20.318 20.318 0 004.497 1.739 55.864 55.864 0 0010.192 1.409c3.462.27 6.984.315 10.492.285 3.507-.03 7.044-.09 10.582-.225 3.537-.135 7.074-.3 10.611-.45 7.105-.3 14.224-.764 21.419-.794a165.648 165.648 0 01-20.969 4.286 79.76 79.76 0 01-5.336.675c-1.784.165-3.567.405-5.366.525-3.582.284-7.194.419-10.806.479-7.225-.105-14.569-.39-21.734-2.848a21.086 21.086 0 01-5.141-2.623 9.46 9.46 0 01-3.672-4.826 8.035 8.035 0 01.66-5.815 13.604 13.604 0 013.327-4.302z" fill="url(#paint8_radial_1_1948)"/><path opacity=".6" d="M328.502 213.956s258.685-54.198 264.275-104.724c2.608-23.592-61.452-28.268-61.452-28.268s43.106 7.809 33.934 25.735c-19.77 38.67-236.757 107.257-236.757 107.257z" fill="url(#paint9_radial_1_1948)"/><path opacity=".6" d="M481.639 179.887c-11.991 5.231-24.177 9.743-36.512 13.939-3.073 1.08-6.175 2.084-9.278 3.073-3.102.989-6.205 1.978-9.323 2.998-6.235 1.918-12.515 3.642-18.78 5.425-6.265 1.784-12.62 3.313-18.975 4.767a647.455 647.455 0 01-19.126 4.092 322.087 322.087 0 01-38.79 5.111c12.771-2.683 25.481-5.516 38.041-8.544 6.28-1.663 12.605-2.997 18.855-4.796 6.251-1.799 12.546-3.282 18.811-4.961 6.265-1.679 12.53-3.403 18.765-5.171a2668.404 2668.404 0 0118.751-5.261l37.561-10.672z" fill="url(#paint10_radial_1_1948)"/><path opacity=".6" d="M549.101 92.01a9.204 9.204 0 014.497 3.298 8.025 8.025 0 011.274 2.728c.217.983.283 1.994.195 2.997a14.566 14.566 0 01-1.874 5.636 28.45 28.45 0 01-3.282 4.751 77.697 77.697 0 01-17.267 14.224 165.38 165.38 0 01-9.578 5.561 150.219 150.219 0 01-4.916 2.503c-1.649.809-3.297 1.649-4.991 2.368a170.431 170.431 0 01-20.549 7.914c6.25-3.897 12.65-7.389 18.945-11.031 3.148-1.844 6.34-3.568 9.428-5.471 3.088-1.904 6.235-3.672 9.248-5.636 3.012-1.963 5.995-3.897 8.993-5.995a74.432 74.432 0 008.168-6.775 33.366 33.366 0 003.373-3.927 12.885 12.885 0 002.203-4.496 8.722 8.722 0 00.255-2.414 7.583 7.583 0 00-.63-2.383 9.677 9.677 0 00-3.492-3.852z" fill="url(#paint11_radial_1_1948)"/></g><path d="M407.401 451.222c-1.949-2.248-29.093-21.209-31.131-22.632l4.631-.795s24.821 21.089 26.5 23.427z" fill="#1053FF"/><path opacity=".5" d="M407.401 451.222c-1.949-2.248-29.093-21.209-31.131-22.632l4.631-.795s24.821 21.089 26.5 23.427z" fill="#fff"/><path d="M407.491 451.387v.09c-.21.479-2.069.899-4.152 1.184h-.075a17.985 17.985 0 01-5.815.12c-.585-.405-20.175-10.207-32.166-16.203l-.479-.224h-.09l-1.694-.855-4.946-2.458-1.918-.959 20.159-3.447c1.154.794 10.312 7.194 18.421 13.024l.839.6c.749.54 1.499 1.079 2.218 1.589a115.934 115.934 0 019.653 7.404v.105l.045.03z" fill="#1053FF"/><path opacity=".1" d="M407.491 451.387v.09c-.21.479-2.068.899-4.152 1.184h-.075a17.985 17.985 0 01-5.815.12c-.6-.405-20.699-10.492-32.645-16.488 1.963.96 27.744 13.355 32.974 7.495a115.934 115.934 0 019.653 7.404v.105l.06.09z" fill="#000"/><path d="M673.04 473.51c0 2.698-14.853 3.567-16.877 2.997-2.023-.569-163.898-64.27-163.898-64.27l59.489-23.547 1.724 1.185.749.524a21330.232 21330.232 0 0172.319 50.271l1.694 1.184 2.248 1.499c19.83 13.939 37.021 26.035 42.552 30.157z" fill="#1053FF"/><path d="M673.04 473.51c-14.479-10.807-108.92-76.246-121.286-84.805l7.494-2.997s110.015 83.68 113.342 87.007c.247.198.408.482.45.795z" fill="#1053FF"/><path opacity=".5" d="M673.04 473.51c-14.479-10.807-108.92-76.246-121.286-84.805l7.494-2.997s110.015 83.68 113.342 87.007c.247.198.408.482.45.795z" fill="#fff"/><g opacity=".5"><path opacity=".1" d="M673.04 473.51c0 2.698-14.853 3.567-16.877 2.997-2.023-.569-163.898-64.27-163.898-64.27l59.489-23.547s-14.704 16.817 20.204 42.702c23.787 17.642 49.117 21.299 58.455 11.991 19.905 13.909 37.096 26.005 42.627 30.127z" fill="#000"/></g><path d="M538.219 433.131c-4.601 2.233-9.592 3.972-9.967-.644-.135-1.889 1.334-3.912 8.723-7.495 1.724-.839 5.996-2.698 7.21 1.139 1.214 3.837-4.242 6.146-5.966 7z" fill="#1053FF"/><path opacity=".1" d="M538.219 433.131c-4.601 2.233-9.592 3.972-9.967-.644-.135-1.889 1.334-3.912 8.723-7.495 1.724-.839 5.996-2.698 7.21 1.139 1.214 3.837-4.242 6.146-5.966 7z" fill="#000"/><path d="M575.735 448.479c-4.601 2.233-9.607 3.987-9.967-.629-.15-1.904 1.319-3.927 8.723-7.495 1.724-.839 5.996-2.683 7.21 1.154 1.214 3.838-4.242 6.131-5.966 6.97z" fill="#1053FF"/><path opacity=".1" d="M575.735 448.479c-4.601 2.233-9.607 3.987-9.967-.629-.15-1.904 1.319-3.927 8.723-7.495 1.724-.839 5.996-2.683 7.21 1.154 1.214 3.838-4.242 6.131-5.966 6.97z" fill="#000"/><path d="M613.236 463.827c-4.586 2.234-9.592 3.987-9.952-.629-.15-1.889 1.319-3.912 8.708-7.494 1.739-.825 5.996-2.683 7.225 1.154 1.229 3.837-4.242 6.13-5.981 6.969z" fill="#1053FF"/><path opacity=".1" d="M613.236 463.827c-4.586 2.234-9.592 3.987-9.952-.629-.15-1.889 1.319-3.912 8.708-7.494 1.739-.825 5.996-2.683 7.225 1.154 1.229 3.837-4.242 6.13-5.981 6.969z" fill="#000"/><path d="M600.946 423.553c-4.496 8.049-14.778 10.942-21.268 13.49-17.252 6.895-29.752 10.762-35.973-4.901a19.702 19.702 0 01-1.378-5.666c-1.02-11.811 11.226-17.716 17.431-20.984 7.494-3.957 12.8-6.505 16.757-8.168 6.445-2.728 9.323-2.998 12.276-3.163 3.492-.12 11.361.765 13.954 15.213a20.505 20.505 0 01-1.799 14.179z" fill="#1053FF"/><path d="M601.186 412.267c0 8.798-5.501 15.933-12.291 15.933s-12.29-7.135-12.29-15.933 5.5-15.933 12.29-15.933c6.79 0 12.291 7.135 12.291 15.933z" fill="#263238"/><path d="M599.747 412.267c0 7.779-4.856 14.074-10.852 14.074-5.995 0-10.866-6.295-10.866-14.074s4.871-14.089 10.866-14.089c5.996 0 10.852 6.31 10.852 14.089z" fill="#000"/><path d="M343.595 408.04l-2.848 1.05-6.415 2.323-22.182-9.578c-21.464-9.218-46.944-20.069-51.815-21.748l.614.18.57.18.749.24.42.149 1.694.54 1.738.57 4.872 1.603 1.678.555 1.499.525.854.284 2.653.885 1.754.584 22.827 7.674 2.159.735 8.498 2.862 14.659 4.962 2.068.704c2.368.794 4.497 1.499 6.385 2.158l1.634.555.749.255.39.12a305.694 305.694 0 004.796 1.633z" fill="#1053FF"/><path opacity=".5" d="M343.595 408.04l-2.848 1.05-6.415 2.323-22.182-9.578c-21.464-9.218-46.944-20.069-51.815-21.748l.614.18.57.18.749.24.42.149 1.694.54 1.738.57 4.872 1.603 1.678.555 1.499.525.854.284 2.653.885 1.754.584 22.827 7.674 2.159.735 8.498 2.862 14.659 4.962 2.068.704c2.368.794 4.497 1.499 6.385 2.158l1.634.555.749.255.39.12a305.694 305.694 0 004.796 1.633z" fill="#fff"/><path d="M334.333 411.413l-17.177 6.265s-38.37-17.806-61.258-28.973l-.239-.105-.315-.149-6.625-3.238c-5.92-2.998-9.667-4.976-9.518-5.246.63-1.274 14.869-1.589 20.564 0h.165l.36.12c4.736 1.604 28.643 11.766 49.642 20.789l.479.195 1.694.734 22.228 9.608z" fill="#1053FF"/><path opacity=".1" d="M334.333 411.413l-17.177 6.265s-38.37-17.806-61.258-28.973c3.792 1.619 42.627 18.721 52.19 16.338a5.481 5.481 0 004.062-3.208l22.183 9.578z" fill="#000"/><path d="M378.533 386.922l-41.682 20.054s.419-35.747.749-61.452v-4.706c.105-8.799.21-15.888.255-19.111.15-10.342 1.259-12.44 4.002-10.761 2.743 1.678 14.913 12.275 18.57 16.997 2.998 3.867 9.653 27.338 13.984 43.466 0 .15 0 .27.09.405.255.944.51 1.858.735 2.727a747.92 747.92 0 013.297 12.381z" fill="#1053FF"/><path opacity=".1" d="M378.533 386.922l-41.682 20.054s.419-35.747.749-61.452c6.13 13.699 18.256 32.405 37.696 29.017a1257.33 1257.33 0 013.237 12.381z" fill="#000"/><path d="M307.728 428.829c-4.287-10.731 13.924-20.474 34.608-29.752 20.684-9.277 224.556-99.193 254.113-107.212 29.557-8.018 63.971 2.998 69.786 19.83 8.724 25.33-28.043 46.554-160.106 101.307-17.311 7.179-94.711 25.765-138.238 25.9-46.553.149-58.05-4.857-60.163-10.073z" fill="#fff"/><path opacity=".5" d="M307.728 428.829c-4.287-10.731 13.924-20.474 34.608-29.752 20.684-9.277 224.556-99.193 254.113-107.212 29.557-8.018 63.971 2.998 69.786 19.83 8.724 25.33-28.043 46.554-160.106 101.307-17.311 7.179-94.711 25.765-138.238 25.9-46.553.149-58.05-4.857-60.163-10.073z" fill="#fff"/><path opacity=".1" d="M506.115 413.062c-17.312 7.179-94.712 25.75-138.238 25.899-46.539.15-58.035-4.796-60.149-10.072-2.248-5.605 1.664-10.956 8.873-16.112a7.495 7.495 0 00.555 3.177c1.933 4.797 12.365 9.278 54.588 9.143 39.494-.135 96.3-32.12 111.993-38.625 119.832-49.746 166.671-53.883 158.712-76.83-3.447-10.013-17.986-17.732-35.118-19.845 26.56-3.177 53.778 7.09 58.889 21.928 8.724 25.301-28.043 46.524-160.105 101.337z" fill="#000"/><path d="M372.358 393.457l4.677-2.039v6.895l-4.677 2.023v-6.879zm8.544-3.702l5.006-2.174v6.895l-5.006 2.158v-6.879zm8.858-3.838l5.006-2.173v6.895l-5.006 2.158v-6.88zm8.873-3.836l4.991-2.174v6.895l-4.991 2.158v-6.879zm8.858-3.838l5.006-2.173v6.895l-5.006 2.158v-6.88zm8.873-3.837l4.991-2.173v6.895l-4.991 2.173v-6.895z" fill="#081A48"/><path d="M425.222 370.569l5.006-2.173v6.895l-5.006 2.173v-6.895zm8.858-3.837l5.006-2.173v6.895l-5.006 2.173v-6.895zm8.873-3.837l4.992-2.173v6.895l-4.992 2.173v-6.895zm8.858-3.837l5.007-2.173v6.895l-5.007 2.158v-6.88zm8.874-3.837l4.991-2.173v6.895l-4.991 2.158v-6.88zm8.858-3.837l5.006-2.173v6.895l-5.006 2.158v-6.88zm8.858-3.837l5.006-2.158v6.88l-5.006 2.158v-6.88z" fill="#455A64"/><path d="M487.274 343.71l4.991-2.158v6.88l-4.991 2.158v-6.88zm8.858-3.837l5.006-2.158v6.88l-5.006 2.158v-6.88zm8.858-3.837l5.006-2.158v6.88l-5.006 2.173v-6.895zm8.873-3.837l5.006-2.158v6.879l-5.006 2.174v-6.895zm8.858-3.837l5.007-2.158v6.88l-5.007 2.173v-6.895zm8.874-3.837l4.991-2.158v6.879l-4.991 2.174v-6.895zm8.858-3.837l5.006-2.158v6.879l-5.006 2.174v-6.895zm8.858-3.837l5.006-2.158v6.879l-5.006 2.174v-6.895zm13.879-5.995v6.879l-5.006 2.174v-6.895l5.006-2.158zm8.858-3.837v6.879l-5.006 2.174v-6.895l5.006-2.158zm8.859-3.837v6.879l-4.991 2.174v-6.895l4.991-2.158zm8.873-3.837v6.879l-5.007 2.174v-6.895l5.007-2.158zm23.157-2.818a24.113 24.113 0 019.293-4.332v4.497c-2.968-.03-6.026-.105-9.293-.165zm20.189-5.426v6.325c-2.338-.21-4.661-.345-7.014-.464v-5.531a36.487 36.487 0 017.014-.33zm22.288 8.933c-1.964 0-3.762-.39-5.561-.599-1.799-.21-3.552-.54-5.306-.705-2.548-.39-5.066-.659-7.494-.899v-6.325a35.336 35.336 0 018.873 2.413 32.37 32.37 0 015.066 2.608 18.76 18.76 0 012.338 1.649c.675.599 1.409 1.199 2.084 1.858z" fill="#081A48"/><path d="M496.132 356.106l-58.755 28.268S344 334.313 277.002 297.741l-.15-.09c-35.762-19.485-63.071-34.713-62.622-35.298 1.124-1.499 19.111-1.334 26.23-.359.688.066 1.369.186 2.038.359 2.998.825 108.681 39.959 182.664 67.448l70.97 26.305z" fill="#1053FF"/><path opacity=".1" d="M496.132 356.106l-58.754 28.268S344 334.313 277.002 297.741c5.246 2.638 125.378 63.176 141.071 54.093 5.92-3.432 7.494-12.291 7.059-22.078l71 26.35z" fill="#000"/><path d="M504.706 352.284l-17.447 8.393c-44.635-18.705-230.297-92.103-245.809-98.264l-.48-.195-.39-.119h-.135c.688.066 1.37.186 2.039.359 4.616 1.229 262.222 89.826 262.222 89.826z" fill="#1053FF"/><path opacity=".5" d="M504.706 352.284l-17.447 8.393c-44.635-18.705-230.297-92.103-245.809-98.264l-.48-.195-.39-.119h-.135c.688.066 1.37.186 2.039.359 4.616 1.229 262.222 89.826 262.222 89.826z" fill="#fff"/><path d="M378.878 353.647c-5.741 2.788-11.991 4.977-12.441-.794-.179-2.368 1.649-4.901 10.897-9.338 2.158-1.049 7.494-3.372 8.993 1.499 1.499 4.871-5.276 7.584-7.449 8.633z" fill="#1053FF"/><path opacity=".1" d="M378.878 353.647c-5.741 2.788-11.991 4.977-12.441-.794-.179-2.368 1.649-4.901 10.897-9.338 2.158-1.049 7.494-3.372 8.993 1.499 1.499 4.871-5.276 7.584-7.449 8.633z" fill="#000"/><path d="M329.161 328.527c-5.74 2.788-11.99 4.976-12.44-.794-.18-2.369 1.649-4.887 10.896-9.338 2.159-1.049 7.495-3.358 8.993 1.499 1.499 4.856-5.275 7.584-7.449 8.633z" fill="#1053FF"/><path opacity=".1" d="M329.161 328.527c-5.74 2.788-11.99 4.976-12.44-.794-.18-2.369 1.649-4.887 10.896-9.338 2.159-1.049 7.495-3.358 8.993 1.499 1.499 4.856-5.275 7.584-7.449 8.633z" fill="#000"/><path d="M279.295 303.107c-5.351 2.608-11.182 4.646-11.601-.735-.165-2.203 1.499-4.496 10.147-8.693 2.023-.974 6.955-3.133 8.393 1.334 1.439 4.467-4.931 7.134-6.939 8.094z" fill="#1053FF"/><path opacity=".1" d="M279.295 303.107c-5.351 2.608-11.182 4.646-11.601-.735-.165-2.203 1.499-4.496 10.147-8.693 2.023-.974 6.955-3.133 8.393 1.334 1.439 4.467-4.931 7.134-6.939 8.094z" fill="#000"/><path d="M453.056 347.952c-4.497 8.049-14.779 10.941-21.269 13.489-17.251 6.895-29.752 10.777-35.972-4.901a19.697 19.697 0 01-1.379-5.665c-1.019-11.811 11.226-17.717 17.432-20.984 7.494-3.942 12.8-6.505 16.757-8.169 6.445-2.713 9.322-2.997 12.275-3.162 3.492-.12 11.361.764 13.954 15.213a20.505 20.505 0 01-1.798 14.179z" fill="#1053FF"/><path d="M440.975 352.658c6.788 0 12.29-7.133 12.29-15.932 0-8.8-5.502-15.933-12.29-15.933-6.788 0-12.29 7.133-12.29 15.933 0 8.799 5.502 15.932 12.29 15.932z" fill="#263238"/><path d="M451.826 336.726c0 7.779-4.856 14.074-10.851 14.074-5.996 0-10.867-6.295-10.867-14.074s4.871-14.074 10.867-14.074c5.995 0 10.851 6.295 10.851 14.074z" fill="#000"/><path d="M266.12 381.976l-1.738-.57 1.738.57z" fill="#1053FF"/><defs><radialGradient id="paint0_radial_1_1948" cx="0" cy="0" r="1" gradientUnits="userSpaceOnUse" gradientTransform="matrix(23.65666 44.91216 -126.24556 66.49754 602.941 111.848)"><stop stop-color="#5E64B1"/><stop offset="1" stop-color="#0D1027"/></radialGradient><radialGradient id="paint1_radial_1_1948" cx="0" cy="0" r="1" gradientUnits="userSpaceOnUse" gradientTransform="matrix(29.9158 46.46706 -144.18046 92.82433 93.534 256.422)"><stop stop-color="#5E64B1"/><stop offset="1" stop-color="#0D1027"/></radialGradient><radialGradient id="paint2_radial_1_1948" cx="0" cy="0" r="1" gradientUnits="userSpaceOnUse" gradientTransform="matrix(20.3435 36.3846 -105.65542 59.07447 36.117 504.003)"><stop stop-color="#5E64B1"/><stop offset="1" stop-color="#0D1027"/></radialGradient><radialGradient id="paint3_radial_1_1948" cx="0" cy="0" r="1" gradientUnits="userSpaceOnUse" gradientTransform="rotate(83.111 142.015 196.523) scale(578.76 620.903)"><stop stop-color="#000105" stop-opacity=".58"/><stop offset=".961" stop-color="#0C1138" stop-opacity=".1"/></radialGradient><radialGradient id="paint4_radial_1_1948" cx="0" cy="0" r="1" gradientUnits="userSpaceOnUse" gradientTransform="rotate(127.342 204.227 101.649) scale(810.532 810.542)"><stop offset=".201" stop-color="#0303FF" stop-opacity="0"/><stop offset=".323" stop-color="#fff"/><stop offset=".417" stop-color="#000BFF" stop-opacity="0"/><stop offset=".536" stop-color="#fff" stop-opacity="0"/><stop offset="1" stop-color="#fff" stop-opacity="0"/></radialGradient><radialGradient id="paint5_radial_1_1948" cx="0" cy="0" r="1" gradientUnits="userSpaceOnUse" gradientTransform="scale(171.926 69.5632) rotate(90 .17 2.707)"><stop stop-color="#DBDBDB"/><stop offset="1" stop-color="#DBDBDB" stop-opacity="0"/></radialGradient><radialGradient id="paint6_radial_1_1948" cx="0" cy="0" r="1" gradientUnits="userSpaceOnUse" gradientTransform="matrix(244.74413 4.79026 -20.23138 1033.66203 65 434)"><stop stop-color="#fff" stop-opacity="0"/><stop offset=".983" stop-color="#fff"/></radialGradient><radialGradient id="paint7_radial_1_1948" cx="0" cy="0" r="1" gradientUnits="userSpaceOnUse" gradientTransform="matrix(-150.85626 14.53643 -46.18616 -479.3109 354.468 447.925)"><stop stop-color="#fff"/><stop offset="1" stop-color="#232B6F" stop-opacity="0"/></radialGradient><radialGradient id="paint8_radial_1_1948" cx="0" cy="0" r="1" gradientUnits="userSpaceOnUse" gradientTransform="matrix(62.78656 1.44561 -7.18116 311.89534 108.053 427.837)"><stop stop-color="#fff" stop-opacity="0"/><stop offset=".983" stop-color="#fff"/></radialGradient><radialGradient id="paint9_radial_1_1948" cx="0" cy="0" r="1" gradientUnits="userSpaceOnUse" gradientTransform="matrix(-259.4524 75.20114 -669.22171 -2308.89014 569.666 98.025)"><stop stop-color="#5A6AFF"/><stop offset="1" stop-color="#232B6F" stop-opacity="0"/></radialGradient><radialGradient id="paint10_radial_1_1948" cx="0" cy="0" r="1" gradientUnits="userSpaceOnUse" gradientTransform="matrix(-147.98775 22.2833 -109.1881 -725.13956 468.412 184.942)"><stop stop-color="#5A6AFF"/><stop offset="1" stop-color="#232B6F" stop-opacity="0"/></radialGradient><radialGradient id="paint11_radial_1_1948" cx="0" cy="0" r="1" gradientUnits="userSpaceOnUse" gradientTransform="matrix(-61.33636 29.39272 -381.23208 -795.5502 549.623 98.678)"><stop stop-color="#5A6AFF"/><stop offset="1" stop-color="#232B6F" stop-opacity="0"/></radialGradient><filter id="filter0_b_1_1948" x="59.118" y="-16.778" width="634.801" height="634.794" filterUnits="userSpaceOnUse" color-interpolation-filters="sRGB"><feFlood flood-opacity="0" result="BackgroundImageFix"/><feGaussianBlur in="BackgroundImage" stdDeviation="24.5"/><feComposite in2="SourceAlpha" operator="in" result="effect1_backgroundBlur_1_1948"/><feBlend in="SourceGraphic" in2="effect1_backgroundBlur_1_1948" result="shape"/></filter></defs></svg>